<?xml version="1.0" encoding="utf-8" standalone="no"?>
<!DOCTYPE svg PUBLIC "-//W3C//DTD SVG 1.1//EN"
  "http://www.w3.org/Graphics/SVG/1.1/DTD/svg11.dtd">
<svg xmlns:xlink="http://www.w3.org/1999/xlink" width="460.8pt" height="345.6pt" viewBox="0 0 460.8 345.6" xmlns="http://www.w3.org/2000/svg" version="1.1">
 <metadata>
  <rdf:RDF xmlns:dc="http://purl.org/dc/elements/1.1/" xmlns:cc="http://creativecommons.org/ns#" xmlns:rdf="http://www.w3.org/1999/02/22-rdf-syntax-ns#">
   <cc:Work>
    <dc:type rdf:resource="http://purl.org/dc/dcmitype/StillImage"/>
    <dc:date>2023-03-10T06:01:40.496594</dc:date>
    <dc:format>image/svg+xml</dc:format>
    <dc:creator>
     <cc:Agent>
      <dc:title>Matplotlib v3.6.2, https://matplotlib.org/</dc:title>
     </cc:Agent>
    </dc:creator>
   </cc:Work>
  </rdf:RDF>
 </metadata>
 <defs>
  <style type="text/css">*{stroke-linejoin: round; stroke-linecap: butt}</style>
 </defs>
 <g id="figure_1">
  <g id="patch_1">
   <path d="M 0 345.6 
L 460.8 345.6 
L 460.8 0 
L 0 0 
z
" style="fill: #ffffff"/>
  </g>
  <g id="axes_1">
   <g id="patch_2">
    <path d="M 40.12 248.853484 
L 450 248.853484 
L 450 10.8 
L 40.12 10.8 
z
" style="fill: #ffffff"/>
   </g>
   <g id="matplotlib.axis_1">
    <g id="xtick_1">
     <g id="line2d_1">
      <path d="M 58.750909 248.853484 
L 58.750909 10.8 
" clip-path="url(#p5fe47dbc00)" style="fill: none; stroke-dasharray: 0.8,1.32; stroke-dashoffset: 0; stroke: #b0b0b0; stroke-width: 0.8"/>
     </g>
     <g id="line2d_2">
      <defs>
       <path id="m55f418db92" d="M 0 0 
L 0 3.5 
" style="stroke: #000000; stroke-width: 0.8"/>
      </defs>
      <g>
       <use xlink:href="#m55f418db92" x="58.750909" y="248.853484" style="stroke: #000000; stroke-width: 0.8"/>
      </g>
     </g>
    </g>
    <g id="xtick_2">
     <g id="line2d_3">
      <path d="M 120.853939 248.853484 
L 120.853939 10.8 
" clip-path="url(#p5fe47dbc00)" style="fill: none; stroke-dasharray: 0.8,1.32; stroke-dashoffset: 0; stroke: #b0b0b0; stroke-width: 0.8"/>
     </g>
     <g id="line2d_4">
      <g>
       <use xlink:href="#m55f418db92" x="120.853939" y="248.853484" style="stroke: #000000; stroke-width: 0.8"/>
      </g>
     </g>
    </g>
    <g id="xtick_3">
     <g id="line2d_5">
      <path d="M 182.95697 248.853484 
L 182.95697 10.8 
" clip-path="url(#p5fe47dbc00)" style="fill: none; stroke-dasharray: 0.8,1.32; stroke-dashoffset: 0; stroke: #b0b0b0; stroke-width: 0.8"/>
     </g>
     <g id="line2d_6">
      <g>
       <use xlink:href="#m55f418db92" x="182.95697" y="248.853484" style="stroke: #000000; stroke-width: 0.8"/>
      </g>
     </g>
    </g>
    <g id="xtick_4">
     <g id="line2d_7">
      <path d="M 245.06 248.853484 
L 245.06 10.8 
" clip-path="url(#p5fe47dbc00)" style="fill: none; stroke-dasharray: 0.8,1.32; stroke-dashoffset: 0; stroke: #b0b0b0; stroke-width: 0.8"/>
     </g>
     <g id="line2d_8">
      <g>
       <use xlink:href="#m55f418db92" x="245.06" y="248.853484" style="stroke: #000000; stroke-width: 0.8"/>
      </g>
     </g>
    </g>
    <g id="xtick_5">
     <g id="line2d_9">
      <path d="M 307.16303 248.853484 
L 307.16303 10.8 
" clip-path="url(#p5fe47dbc00)" style="fill: none; stroke-dasharray: 0.8,1.32; stroke-dashoffset: 0; stroke: #b0b0b0; stroke-width: 0.8"/>
     </g>
     <g id="line2d_10">
      <g>
       <use xlink:href="#m55f418db92" x="307.16303" y="248.853484" style="stroke: #000000; stroke-width: 0.8"/>
      </g>
     </g>
    </g>
    <g id="xtick_6">
     <g id="line2d_11">
      <path d="M 369.266061 248.853484 
L 369.266061 10.8 
" clip-path="url(#p5fe47dbc00)" style="fill: none; stroke-dasharray: 0.8,1.32; stroke-dashoffset: 0; stroke: #b0b0b0; stroke-width: 0.8"/>
     </g>
     <g id="line2d_12">
      <g>
       <use xlink:href="#m55f418db92" x="369.266061" y="248.853484" style="stroke: #000000; stroke-width: 0.8"/>
      </g>
     </g>
    </g>
    <g id="xtick_7">
     <g id="line2d_13">
      <path d="M 431.369091 248.853484 
L 431.369091 10.8 
" clip-path="url(#p5fe47dbc00)" style="fill: none; stroke-dasharray: 0.8,1.32; stroke-dashoffset: 0; stroke: #b0b0b0; stroke-width: 0.8"/>
     </g>
     <g id="line2d_14">
      <g>
       <use xlink:href="#m55f418db92" x="431.369091" y="248.853484" style="stroke: #000000; stroke-width: 0.8"/>
      </g>
     </g>
    </g>
   </g>
   <g id="matplotlib.axis_2">
    <g id="ytick_1">
     <g id="line2d_15">
      <path d="M 40.12 247.705809 
L 450 247.705809 
" clip-path="url(#p5fe47dbc00)" style="fill: none; stroke-dasharray: 0.8,1.32; stroke-dashoffset: 0; stroke: #b0b0b0; stroke-width: 0.8"/>
     </g>
     <g id="line2d_16">
      <defs>
       <path id="mc2e575b6ed" d="M 0 0 
L -3.5 0 
" style="stroke: #000000; stroke-width: 0.8"/>
      </defs>
      <g>
       <use xlink:href="#mc2e575b6ed" x="40.12" y="247.705809" style="stroke: #000000; stroke-width: 0.8"/>
      </g>
     </g>
     <g id="text_1">
      <!-- 0.85 -->
      <g transform="translate(10.854375 251.505028) scale(0.1 -0.1)">
       <defs>
        <path id="DejaVuSans-30" d="M 2034 4250 
Q 1547 4250 1301 3770 
Q 1056 3291 1056 2328 
Q 1056 1369 1301 889 
Q 1547 409 2034 409 
Q 2525 409 2770 889 
Q 3016 1369 3016 2328 
Q 3016 3291 2770 3770 
Q 2525 4250 2034 4250 
z
M 2034 4750 
Q 2819 4750 3233 4129 
Q 3647 3509 3647 2328 
Q 3647 1150 3233 529 
Q 2819 -91 2034 -91 
Q 1250 -91 836 529 
Q 422 1150 422 2328 
Q 422 3509 836 4129 
Q 1250 4750 2034 4750 
z
" transform="scale(0.015625)"/>
        <path id="DejaVuSans-2e" d="M 684 794 
L 1344 794 
L 1344 0 
L 684 0 
L 684 794 
z
" transform="scale(0.015625)"/>
        <path id="DejaVuSans-38" d="M 2034 2216 
Q 1584 2216 1326 1975 
Q 1069 1734 1069 1313 
Q 1069 891 1326 650 
Q 1584 409 2034 409 
Q 2484 409 2743 651 
Q 3003 894 3003 1313 
Q 3003 1734 2745 1975 
Q 2488 2216 2034 2216 
z
M 1403 2484 
Q 997 2584 770 2862 
Q 544 3141 544 3541 
Q 544 4100 942 4425 
Q 1341 4750 2034 4750 
Q 2731 4750 3128 4425 
Q 3525 4100 3525 3541 
Q 3525 3141 3298 2862 
Q 3072 2584 2669 2484 
Q 3125 2378 3379 2068 
Q 3634 1759 3634 1313 
Q 3634 634 3220 271 
Q 2806 -91 2034 -91 
Q 1263 -91 848 271 
Q 434 634 434 1313 
Q 434 1759 690 2068 
Q 947 2378 1403 2484 
z
M 1172 3481 
Q 1172 3119 1398 2916 
Q 1625 2713 2034 2713 
Q 2441 2713 2670 2916 
Q 2900 3119 2900 3481 
Q 2900 3844 2670 4047 
Q 2441 4250 2034 4250 
Q 1625 4250 1398 4047 
Q 1172 3844 1172 3481 
z
" transform="scale(0.015625)"/>
        <path id="DejaVuSans-35" d="M 691 4666 
L 3169 4666 
L 3169 4134 
L 1269 4134 
L 1269 2991 
Q 1406 3038 1543 3061 
Q 1681 3084 1819 3084 
Q 2600 3084 3056 2656 
Q 3513 2228 3513 1497 
Q 3513 744 3044 326 
Q 2575 -91 1722 -91 
Q 1428 -91 1123 -41 
Q 819 9 494 109 
L 494 744 
Q 775 591 1075 516 
Q 1375 441 1709 441 
Q 2250 441 2565 725 
Q 2881 1009 2881 1497 
Q 2881 1984 2565 2268 
Q 2250 2553 1709 2553 
Q 1456 2553 1204 2497 
Q 953 2441 691 2322 
L 691 4666 
z
" transform="scale(0.015625)"/>
       </defs>
       <use xlink:href="#DejaVuSans-30"/>
       <use xlink:href="#DejaVuSans-2e" x="63.623047"/>
       <use xlink:href="#DejaVuSans-38" x="95.410156"/>
       <use xlink:href="#DejaVuSans-35" x="159.033203"/>
      </g>
     </g>
    </g>
    <g id="ytick_2">
     <g id="line2d_17">
      <path d="M 40.12 221.171264 
L 450 221.171264 
" clip-path="url(#p5fe47dbc00)" style="fill: none; stroke-dasharray: 0.8,1.32; stroke-dashoffset: 0; stroke: #b0b0b0; stroke-width: 0.8"/>
     </g>
     <g id="line2d_18">
      <g>
       <use xlink:href="#mc2e575b6ed" x="40.12" y="221.171264" style="stroke: #000000; stroke-width: 0.8"/>
      </g>
     </g>
     <g id="text_2">
      <!-- 0.90 -->
      <g transform="translate(10.854375 224.970483) scale(0.1 -0.1)">
       <defs>
        <path id="DejaVuSans-39" d="M 703 97 
L 703 672 
Q 941 559 1184 500 
Q 1428 441 1663 441 
Q 2288 441 2617 861 
Q 2947 1281 2994 2138 
Q 2813 1869 2534 1725 
Q 2256 1581 1919 1581 
Q 1219 1581 811 2004 
Q 403 2428 403 3163 
Q 403 3881 828 4315 
Q 1253 4750 1959 4750 
Q 2769 4750 3195 4129 
Q 3622 3509 3622 2328 
Q 3622 1225 3098 567 
Q 2575 -91 1691 -91 
Q 1453 -91 1209 -44 
Q 966 3 703 97 
z
M 1959 2075 
Q 2384 2075 2632 2365 
Q 2881 2656 2881 3163 
Q 2881 3666 2632 3958 
Q 2384 4250 1959 4250 
Q 1534 4250 1286 3958 
Q 1038 3666 1038 3163 
Q 1038 2656 1286 2365 
Q 1534 2075 1959 2075 
z
" transform="scale(0.015625)"/>
       </defs>
       <use xlink:href="#DejaVuSans-30"/>
       <use xlink:href="#DejaVuSans-2e" x="63.623047"/>
       <use xlink:href="#DejaVuSans-39" x="95.410156"/>
       <use xlink:href="#DejaVuSans-30" x="159.033203"/>
      </g>
     </g>
    </g>
    <g id="ytick_3">
     <g id="line2d_19">
      <path d="M 40.12 194.636718 
L 450 194.636718 
" clip-path="url(#p5fe47dbc00)" style="fill: none; stroke-dasharray: 0.8,1.32; stroke-dashoffset: 0; stroke: #b0b0b0; stroke-width: 0.8"/>
     </g>
     <g id="line2d_20">
      <g>
       <use xlink:href="#mc2e575b6ed" x="40.12" y="194.636718" style="stroke: #000000; stroke-width: 0.8"/>
      </g>
     </g>
     <g id="text_3">
      <!-- 0.95 -->
      <g transform="translate(10.854375 198.435937) scale(0.1 -0.1)">
       <use xlink:href="#DejaVuSans-30"/>
       <use xlink:href="#DejaVuSans-2e" x="63.623047"/>
       <use xlink:href="#DejaVuSans-39" x="95.410156"/>
       <use xlink:href="#DejaVuSans-35" x="159.033203"/>
      </g>
     </g>
    </g>
    <g id="ytick_4">
     <g id="line2d_21">
      <path d="M 40.12 168.102173 
L 450 168.102173 
" clip-path="url(#p5fe47dbc00)" style="fill: none; stroke-dasharray: 0.8,1.32; stroke-dashoffset: 0; stroke: #b0b0b0; stroke-width: 0.8"/>
     </g>
     <g id="line2d_22">
      <g>
       <use xlink:href="#mc2e575b6ed" x="40.12" y="168.102173" style="stroke: #000000; stroke-width: 0.8"/>
      </g>
     </g>
     <g id="text_4">
      <!-- 1.00 -->
      <g transform="translate(10.854375 171.901392) scale(0.1 -0.1)">
       <defs>
        <path id="DejaVuSans-31" d="M 794 531 
L 1825 531 
L 1825 4091 
L 703 3866 
L 703 4441 
L 1819 4666 
L 2450 4666 
L 2450 531 
L 3481 531 
L 3481 0 
L 794 0 
L 794 531 
z
" transform="scale(0.015625)"/>
       </defs>
       <use xlink:href="#DejaVuSans-31"/>
       <use xlink:href="#DejaVuSans-2e" x="63.623047"/>
       <use xlink:href="#DejaVuSans-30" x="95.410156"/>
       <use xlink:href="#DejaVuSans-30" x="159.033203"/>
      </g>
     </g>
    </g>
    <g id="ytick_5">
     <g id="line2d_23">
      <path d="M 40.12 141.567627 
L 450 141.567627 
" clip-path="url(#p5fe47dbc00)" style="fill: none; stroke-dasharray: 0.8,1.32; stroke-dashoffset: 0; stroke: #b0b0b0; stroke-width: 0.8"/>
     </g>
     <g id="line2d_24">
      <g>
       <use xlink:href="#mc2e575b6ed" x="40.12" y="141.567627" style="stroke: #000000; stroke-width: 0.8"/>
      </g>
     </g>
     <g id="text_5">
      <!-- 1.05 -->
      <g transform="translate(10.854375 145.366846) scale(0.1 -0.1)">
       <use xlink:href="#DejaVuSans-31"/>
       <use xlink:href="#DejaVuSans-2e" x="63.623047"/>
       <use xlink:href="#DejaVuSans-30" x="95.410156"/>
       <use xlink:href="#DejaVuSans-35" x="159.033203"/>
      </g>
     </g>
    </g>
    <g id="ytick_6">
     <g id="line2d_25">
      <path d="M 40.12 115.033082 
L 450 115.033082 
" clip-path="url(#p5fe47dbc00)" style="fill: none; stroke-dasharray: 0.8,1.32; stroke-dashoffset: 0; stroke: #b0b0b0; stroke-width: 0.8"/>
     </g>
     <g id="line2d_26">
      <g>
       <use xlink:href="#mc2e575b6ed" x="40.12" y="115.033082" style="stroke: #000000; stroke-width: 0.8"/>
      </g>
     </g>
     <g id="text_6">
      <!-- 1.10 -->
      <g transform="translate(10.854375 118.8323) scale(0.1 -0.1)">
       <use xlink:href="#DejaVuSans-31"/>
       <use xlink:href="#DejaVuSans-2e" x="63.623047"/>
       <use xlink:href="#DejaVuSans-31" x="95.410156"/>
       <use xlink:href="#DejaVuSans-30" x="159.033203"/>
      </g>
     </g>
    </g>
    <g id="ytick_7">
     <g id="line2d_27">
      <path d="M 40.12 88.498536 
L 450 88.498536 
" clip-path="url(#p5fe47dbc00)" style="fill: none; stroke-dasharray: 0.8,1.32; stroke-dashoffset: 0; stroke: #b0b0b0; stroke-width: 0.8"/>
     </g>
     <g id="line2d_28">
      <g>
       <use xlink:href="#mc2e575b6ed" x="40.12" y="88.498536" style="stroke: #000000; stroke-width: 0.8"/>
      </g>
     </g>
     <g id="text_7">
      <!-- 1.15 -->
      <g transform="translate(10.854375 92.297755) scale(0.1 -0.1)">
       <use xlink:href="#DejaVuSans-31"/>
       <use xlink:href="#DejaVuSans-2e" x="63.623047"/>
       <use xlink:href="#DejaVuSans-31" x="95.410156"/>
       <use xlink:href="#DejaVuSans-35" x="159.033203"/>
      </g>
     </g>
    </g>
    <g id="ytick_8">
     <g id="line2d_29">
      <path d="M 40.12 61.963991 
L 450 61.963991 
" clip-path="url(#p5fe47dbc00)" style="fill: none; stroke-dasharray: 0.8,1.32; stroke-dashoffset: 0; stroke: #b0b0b0; stroke-width: 0.8"/>
     </g>
     <g id="line2d_30">
      <g>
       <use xlink:href="#mc2e575b6ed" x="40.12" y="61.963991" style="stroke: #000000; stroke-width: 0.8"/>
      </g>
     </g>
     <g id="text_8">
      <!-- 1.20 -->
      <g transform="translate(10.854375 65.763209) scale(0.1 -0.1)">
       <defs>
        <path id="DejaVuSans-32" d="M 1228 531 
L 3431 531 
L 3431 0 
L 469 0 
L 469 531 
Q 828 903 1448 1529 
Q 2069 2156 2228 2338 
Q 2531 2678 2651 2914 
Q 2772 3150 2772 3378 
Q 2772 3750 2511 3984 
Q 2250 4219 1831 4219 
Q 1534 4219 1204 4116 
Q 875 4013 500 3803 
L 500 4441 
Q 881 4594 1212 4672 
Q 1544 4750 1819 4750 
Q 2544 4750 2975 4387 
Q 3406 4025 3406 3419 
Q 3406 3131 3298 2873 
Q 3191 2616 2906 2266 
Q 2828 2175 2409 1742 
Q 1991 1309 1228 531 
z
" transform="scale(0.015625)"/>
       </defs>
       <use xlink:href="#DejaVuSans-31"/>
       <use xlink:href="#DejaVuSans-2e" x="63.623047"/>
       <use xlink:href="#DejaVuSans-32" x="95.410156"/>
       <use xlink:href="#DejaVuSans-30" x="159.033203"/>
      </g>
     </g>
    </g>
    <g id="ytick_9">
     <g id="line2d_31">
      <path d="M 40.12 35.429445 
L 450 35.429445 
" clip-path="url(#p5fe47dbc00)" style="fill: none; stroke-dasharray: 0.8,1.32; stroke-dashoffset: 0; stroke: #b0b0b0; stroke-width: 0.8"/>
     </g>
     <g id="line2d_32">
      <g>
       <use xlink:href="#mc2e575b6ed" x="40.12" y="35.429445" style="stroke: #000000; stroke-width: 0.8"/>
      </g>
     </g>
     <g id="text_9">
      <!-- 1.25 -->
      <g transform="translate(10.854375 39.228664) scale(0.1 -0.1)">
       <use xlink:href="#DejaVuSans-31"/>
       <use xlink:href="#DejaVuSans-2e" x="63.623047"/>
       <use xlink:href="#DejaVuSans-32" x="95.410156"/>
       <use xlink:href="#DejaVuSans-35" x="159.033203"/>
      </g>
     </g>
    </g>
   </g>
   <g id="line2d_33">
    <path d="M 58.750909 140.171072 
L 58.770706 140.171093 
L 58.861785 140.170032 
L 59.228262 140.048106 
L 59.525522 139.667298 
L 60.445433 138.297872 
L 60.798998 138.347261 
L 61.097359 138.291691 
L 61.345268 137.976137 
L 61.824011 136.877898 
L 62.181498 136.359662 
L 62.421147 136.351683 
L 62.980303 136.453357 
L 63.208517 136.121076 
L 64.160934 134.416676 
L 64.480064 134.618658 
L 64.747939 134.661357 
L 64.950439 134.434192 
L 65.272976 133.652688 
L 65.745802 132.65381 
L 65.969725 132.605315 
L 66.657244 132.730567 
L 66.918376 132.22419 
L 67.562045 130.921583 
L 67.793022 130.917467 
L 68.327906 131.021142 
L 68.563276 130.700333 
L 69.425503 129.296749 
L 69.827358 129.367341 
L 70.082563 129.264949 
L 70.368608 128.856922 
L 71.050479 127.832916 
L 71.40279 127.771907 
L 71.759293 127.645418 
L 72.095029 127.232553 
L 72.755278 126.419012 
L 73.85771 125.658434 
L 74.473459 125.060687 
L 75.50364 124.336925 
L 76.249718 123.736776 
L 77.205624 123.059269 
L 78.150654 122.416732 
L 82.705432 119.744999 
L 85.187313 118.678169 
L 87.380062 117.976718 
L 89.543037 117.515573 
L 91.654219 117.291629 
L 93.746296 117.292819 
L 95.842011 117.516751 
L 97.96509 117.968498 
L 100.139239 118.660439 
L 102.3921 119.613546 
L 104.75623 120.858906 
L 107.273044 122.440848 
L 110.006645 124.427945 
L 113.080375 126.945965 
L 116.768505 130.26826 
L 121.768836 135.09622 
L 133.297014 146.319404 
L 137.459418 149.998951 
L 141.061002 152.892892 
L 144.336516 155.245283 
L 147.389151 157.168541 
L 149.707205 158.395142 
L 150.991674 158.876848 
L 151.895577 159.500777 
L 152.196868 159.37844 
L 152.954604 158.95613 
L 153.168152 159.217222 
L 153.475921 160.017184 
L 154.069235 161.535363 
L 154.214808 161.489178 
L 154.377065 161.10971 
L 154.630442 159.837737 
L 155.256561 156.567331 
L 155.342214 156.693889 
L 155.484347 157.431949 
L 155.723379 160.082768 
L 156.5004 169.568606 
L 156.50439 169.567898 
L 156.567235 169.431054 
L 156.685888 168.469338 
L 156.874429 164.782257 
L 157.159072 154.062079 
L 157.581367 139.734085 
L 157.591725 139.729567 
L 157.62278 139.864918 
L 157.711206 141.470188 
L 157.893694 149.746955 
L 158.978131 207.926144 
L 159.019852 208.053776 
L 159.072966 207.82312 
L 159.177624 205.939007 
L 159.341735 198.257352 
L 159.537552 177.202089 
L 159.734955 128.433067 
L 159.958891 68.856721 
L 160.006669 71.515009 
L 160.162288 99.590328 
L 160.672694 184.304512 
L 161.062322 215.484443 
L 161.360903 225.204966 
L 161.45078 225.795912 
L 161.501426 225.592419 
L 161.603716 223.847367 
L 161.767314 216.521773 
L 161.968019 196.17992 
L 162.150325 152.102955 
L 162.410737 40.914823 
L 162.513584 56.359193 
L 163.072479 163.48352 
L 163.433593 191.66957 
L 163.699867 199.076755 
L 163.749389 199.27021 
L 163.80393 199.021037 
L 163.910688 197.003464 
L 164.078101 188.854941 
L 164.27924 166.681847 
L 164.510811 111.962157 
L 164.683317 83.263289 
L 164.71883 84.395652 
L 164.828841 98.162255 
L 165.60025 209.356002 
L 165.972189 230.824493 
L 166.21029 235.183607 
L 166.223383 235.184954 
L 166.254822 235.075041 
L 166.34523 233.826075 
L 166.506899 227.88196 
L 166.708004 211.369304 
L 166.897227 174.815063 
L 167.058254 94.341506 
L 167.205377 26.171452 
L 167.25447 31.444858 
L 168.102459 172.760642 
L 168.387122 183.019794 
L 168.470983 183.586817 
L 168.523196 183.35272 
L 168.628997 181.392829 
L 168.79979 173.346087 
L 169.023456 150.668204 
L 169.389393 106.628589 
L 169.443287 107.992725 
L 169.573565 119.974098 
L 170.529572 224.503535 
L 170.833323 234.815268 
L 170.917522 235.371064 
L 170.969687 235.15204 
L 171.077675 233.295743 
L 171.252357 225.839809 
L 171.44767 206.762993 
L 171.636604 163.62655 
L 171.80539 62.084328 
L 171.909203 25.044435 
L 171.961367 30.879445 
L 172.757532 167.252268 
L 173.049343 179.041453 
L 173.151153 179.889278 
L 173.1991 179.688668 
L 173.300634 177.909935 
L 173.469484 170.314794 
L 173.697661 148.436567 
L 174.059585 110.093325 
L 174.101524 110.819826 
L 174.209542 118.323593 
L 174.599125 167.72889 
L 175.073992 212.497876 
L 175.412528 227.182471 
L 175.5548 228.729199 
L 175.590707 228.618576 
L 175.680435 227.370014 
L 175.838167 221.432462 
L 176.033149 204.649924 
L 176.221827 166.517936 
L 176.395105 77.395442 
L 176.518621 33.905885 
L 176.566252 38.406112 
L 176.831739 102.217343 
L 177.204391 157.926007 
L 177.5382 179.829319 
L 177.754946 183.771007 
L 177.758045 183.769806 
L 177.797285 183.606813 
L 177.892773 182.008963 
L 178.05318 174.907959 
L 178.264549 154.163813 
L 178.658521 101.630825 
L 178.736977 104.691995 
L 178.919872 126.387774 
L 179.557071 201.78547 
L 179.918529 220.967103 
L 180.119854 224.045389 
L 180.132974 224.031319 
L 180.189299 223.635722 
L 180.307486 220.862905 
L 180.486731 210.500908 
L 180.680853 184.922537 
L 180.855198 128.32121 
L 181.065414 39.024388 
L 181.129442 45.950367 
L 181.902922 170.448235 
L 182.188507 181.856926 
L 182.275474 182.528094 
L 182.327308 182.276721 
L 182.432303 180.150648 
L 182.60073 171.39357 
L 182.818102 146.703064 
L 183.1678 99.918604 
L 183.219963 101.340741 
L 183.353057 114.164088 
L 184.158329 202.529449 
L 184.465215 213.864781 
L 184.563415 214.633353 
L 184.612383 214.427067 
L 184.712751 212.612606 
L 184.87283 204.918066 
L 185.065381 183.460454 
L 185.247381 134.974569 
L 185.48382 50.633741 
L 185.551111 56.787803 
L 186.411065 178.498866 
L 186.658817 185.128896 
L 186.685075 185.190034 
L 186.733364 184.959794 
L 186.834358 182.938213 
L 186.997277 174.426765 
L 187.203445 150.277976 
L 187.568454 92.400415 
L 187.644768 95.780698 
L 187.842467 121.284007 
L 188.376439 184.22192 
L 188.714256 201.682891 
L 188.879068 203.930372 
L 188.907322 203.861 
L 188.984789 202.906861 
L 189.124223 197.89472 
L 189.307913 182.008283 
L 189.499781 143.367968 
L 189.780629 63.55027 
L 189.856588 69.600691 
L 190.768373 182.518766 
L 190.965892 186.117331 
L 190.978638 186.101037 
L 191.034758 185.641859 
L 191.152964 182.412394 
L 191.327664 170.514994 
L 191.538603 138.60363 
L 191.840475 87.210064 
L 191.886884 88.629153 
L 192.017814 102.900556 
L 192.668396 179.024564 
L 192.967365 191.284934 
L 193.057916 192.034885 
L 193.108481 191.790065 
L 193.210557 189.673424 
L 193.371764 180.842514 
L 193.566501 156.104481 
L 193.938326 77.272527 
L 194.05306 86.412676 
L 194.834186 177.416749 
L 195.077385 183.707076 
L 195.095519 183.735745 
L 195.139234 183.531868 
L 195.236526 181.589168 
L 195.394632 173.149174 
L 195.594541 148.751624 
L 195.958805 86.516526 
L 196.04072 90.475679 
L 196.274603 121.073382 
L 196.723546 168.529805 
L 197.014761 180.5552 
L 197.095681 181.183794 
L 197.147919 180.898086 
L 197.252551 178.509872 
L 197.416563 168.769837 
L 197.622797 141.251205 
L 197.955447 88.043689 
L 198.009572 89.744342 
L 198.156789 105.217233 
L 198.732501 166.414429 
L 199.004524 176.024773 
L 199.057522 176.297536 
L 199.111649 175.98268 
L 199.21808 173.438734 
L 199.384967 163.177851 
L 199.603053 133.761146 
L 199.908882 92.288627 
L 199.940341 92.7933 
L 200.037346 99.381574 
L 200.884702 170.602689 
L 200.977397 171.453251 
L 201.028098 171.183997 
L 201.131142 168.866968 
L 201.297189 159.185626 
L 201.524123 130.713086 
L 201.823985 96.356863 
L 201.844914 96.547376 
L 201.920309 99.955774 
L 202.162767 124.295675 
L 202.601664 160.08104 
L 202.844017 166.297068 
L 202.860804 166.31891 
L 202.901758 166.130256 
L 202.997151 164.276712 
L 203.158294 155.981806 
L 203.391655 130.360758 
L 203.701031 100.559627 
L 203.714851 100.62637 
L 203.773716 102.30335 
L 203.942264 115.134423 
L 204.496732 157.001644 
L 204.702988 160.925415 
L 204.712372 160.915856 
L 204.76246 160.565733 
L 204.874902 157.828009 
L 205.056209 146.979165 
L 205.541473 104.825204 
L 205.641156 107.338896 
L 205.857831 122.903613 
L 206.323172 152.258767 
L 206.510661 155.332008 
L 206.528264 155.301278 
L 206.593546 154.672852 
L 206.725775 150.766307 
L 206.939764 136.585786 
L 207.34768 109.025563 
L 207.36656 109.098058 
L 207.434459 110.512705 
L 207.613747 120.078907 
L 208.148905 148.170201 
L 208.284139 149.649121 
L 208.32217 149.526485 
L 208.413699 148.206627 
L 208.581412 141.918363 
L 209.121996 112.975475 
L 209.21936 114.347869 
L 209.409377 122.456432 
L 209.914799 143.165624 
L 210.027764 144.053184 
L 210.072649 143.90508 
L 210.173676 142.497505 
L 210.360505 136.12488 
L 210.866727 116.44211 
L 210.899543 116.558457 
L 210.991216 117.979715 
L 211.223399 125.972013 
L 211.641601 138.202402 
L 211.743718 138.78181 
L 211.791319 138.647781 
L 211.896676 137.434476 
L 212.098486 131.988728 
L 212.577355 119.19481 
L 212.591969 119.196086 
L 212.623138 119.296983 
L 212.723466 120.440425 
L 212.97718 126.608628 
L 213.352742 133.816224 
L 213.435188 134.088842 
L 213.487527 133.967364 
L 213.601276 132.936598 
L 213.82997 128.365265 
L 214.237552 121.139244 
L 214.281722 121.067949 
L 214.334701 121.201191 
L 214.458366 122.310877 
L 215.102538 130.165345 
L 215.174656 130.015377 
L 215.310865 129.000182 
L 215.662756 124.098975 
L 215.928723 122.069632 
L 215.970152 122.063041 
L 216.012561 122.141616 
L 216.142793 122.842788 
L 216.749549 127.069468 
L 216.80445 127.0116 
L 216.93123 126.516704 
L 217.220195 124.227222 
L 217.55245 122.337107 
L 217.636584 122.296343 
L 217.678152 122.343313 
L 217.825669 122.797208 
L 218.378073 124.720031 
L 218.390026 124.715807 
L 218.507577 124.538163 
L 218.729639 123.682026 
L 219.191534 122.021952 
L 219.346263 122.022418 
L 219.544709 122.357452 
L 219.944247 122.960632 
L 220.099469 122.861439 
L 220.340241 122.357566 
L 220.829144 121.395331 
L 221.044641 121.390622 
L 221.660904 121.560044 
L 221.959258 121.203015 
L 222.480086 120.630942 
L 222.853763 120.591246 
L 223.264391 120.484691 
L 225.484585 119.255321 
L 226.571406 118.841997 
L 228.156512 118.27335 
L 230.069862 117.753678 
L 232.104533 117.406142 
L 234.23156 117.265755 
L 236.321534 117.351254 
L 238.424045 117.660456 
L 240.563807 118.201412 
L 242.764512 118.989433 
L 245.055772 120.049245 
L 247.472105 121.416048 
L 250.060837 123.141023 
L 252.902862 125.308872 
L 256.164953 128.087062 
L 260.214947 131.8442 
L 266.538454 138.057721 
L 274.048301 145.359496 
L 278.38802 149.265096 
L 282.071909 152.288601 
L 285.389127 154.729549 
L 288.442003 156.70553 
L 290.985884 158.105333 
L 292.607896 158.834727 
L 293.236956 159.223772 
L 293.573541 159.165305 
L 294.370543 158.904893 
L 294.614514 159.206712 
L 294.994955 160.114132 
L 295.439858 160.993302 
L 295.606946 160.967588 
L 295.777928 160.6414 
L 296.044895 159.5545 
L 296.61963 157.207993 
L 296.719063 157.29309 
L 296.860424 157.840795 
L 297.093791 159.815866 
L 297.873078 167.385899 
L 297.897915 167.369564 
L 297.982369 167.083647 
L 298.132232 165.606451 
L 298.361067 160.736091 
L 298.976922 144.223556 
L 299.046218 144.630356 
L 299.172547 147.433965 
L 299.419992 158.961336 
L 300.2003 197.153784 
L 300.363394 198.932675 
L 300.392839 198.867208 
L 300.473265 197.989052 
L 300.615743 193.479559 
L 300.805263 179.31305 
L 301.013849 144.662099 
L 301.30762 83.726683 
L 301.368505 86.855702 
L 301.541529 114.354521 
L 302.097989 197.636734 
L 302.493238 226.469208 
L 302.778534 234.632022 
L 302.838997 234.910511 
L 302.893074 234.664323 
L 303.001609 232.650141 
L 303.180403 224.449156 
L 303.378918 204.079334 
L 303.562609 158.987199 
L 303.824582 26.676205 
L 303.950693 51.184028 
L 304.38904 142.832554 
L 304.746837 175.134205 
L 305.025207 184.501307 
L 305.098957 184.939354 
L 305.152253 184.698731 
L 305.259131 182.700236 
L 305.430881 174.526416 
L 305.652372 151.756928 
L 306.021028 105.427909 
L 306.079993 107.137085 
L 306.219687 121.253667 
L 307.092707 222.473376 
L 307.426953 236.679652 
L 307.559643 238.032871 
L 307.598829 237.911293 
L 307.694625 236.615702 
L 307.859814 230.836249 
L 308.052873 215.273288 
L 308.250704 178.645994 
L 308.404675 103.666817 
L 308.564251 21.620613 
L 308.61602 27.781988 
L 309.382924 164.333715 
L 309.687511 178.116251 
L 309.818219 179.473824 
L 309.857844 179.339614 
L 309.952008 177.939246 
L 310.113808 171.569579 
L 310.337805 152.564435 
L 310.732054 112.810894 
L 310.786572 113.948827 
L 310.912875 123.734288 
L 312.006982 228.292281 
L 312.242503 232.63279 
L 312.255611 232.630006 
L 312.283847 232.529842 
L 312.373426 231.341313 
L 312.53167 225.739863 
L 312.725857 209.950315 
L 312.918632 173.617462 
L 313.080304 94.676282 
L 313.228442 29.316234 
L 313.27633 34.107612 
L 313.618936 116.024871 
L 313.986273 163.722139 
L 314.309229 181.618668 
L 314.484356 184.138751 
L 314.506979 184.095134 
L 314.578757 183.360832 
L 314.715579 179.203713 
L 314.910863 165.402715 
L 315.169184 128.525103 
L 315.39802 104.059278 
L 315.420966 104.327095 
L 315.498489 108.779089 
L 315.729798 138.763884 
L 316.299199 206.101441 
L 316.6753 227.539635 
L 316.902193 231.42583 
L 316.903288 231.425606 
L 316.941392 231.293541 
L 317.03527 229.903497 
L 317.198337 223.573806 
L 317.393636 206.310815 
L 317.582236 167.120865 
L 317.749787 77.241681 
L 317.874145 29.835707 
L 317.922224 34.605677 
L 318.812923 173.541956 
L 319.06592 180.351886 
L 319.100772 180.449867 
L 319.152051 180.206629 
L 319.25708 178.179339 
L 319.428326 169.768712 
L 319.655469 145.93034 
L 320.001173 106.637135 
L 320.04123 107.364177 
L 320.148085 115.101111 
L 320.610464 173.89999 
L 321.048696 211.144523 
L 321.359681 222.460647 
L 321.458137 223.222807 
L 321.507046 223.017098 
L 321.60812 221.210813 
L 321.773 213.535241 
L 321.968484 192.779702 
L 322.149569 146.48863 
L 322.400789 40.416025 
L 322.493459 53.022205 
L 323.082052 158.951836 
L 323.414303 180.655184 
L 323.62018 184.351802 
L 323.629543 184.343897 
L 323.679409 184.027612 
L 323.79065 181.541561 
L 323.963785 171.778442 
L 324.182072 144.917057 
L 324.515485 97.675693 
L 324.564759 99.04469 
L 324.694523 111.946485 
L 325.493376 202.56186 
L 325.806794 214.80225 
L 325.917258 215.765687 
L 325.962978 215.583202 
L 326.060225 213.908789 
L 326.217456 206.662042 
L 326.410296 186.06198 
L 326.592358 139.604446 
L 326.839306 49.117704 
L 326.914452 56.8956 
L 327.677797 173.057798 
L 327.960558 184.094966 
L 328.039097 184.651099 
L 328.091484 184.378415 
L 328.196397 182.140792 
L 328.362883 173.010123 
L 328.572217 147.515796 
L 328.922236 93.473397 
L 328.986366 95.848915 
L 329.150333 115.18615 
L 329.756773 186.794463 
L 330.089364 203.084161 
L 330.241305 204.980556 
L 330.273906 204.885107 
L 330.357699 203.724387 
L 330.502796 198.01253 
L 330.688145 180.643931 
L 330.878464 139.089001 
L 331.143198 62.219077 
L 331.21061 67.242927 
L 331.505791 121.593124 
L 331.899036 169.259925 
L 332.206746 184.652887 
L 332.329471 186.060773 
L 332.371864 185.882553 
L 332.466486 184.128593 
L 332.623789 176.27646 
L 332.822905 153.502228 
L 333.204578 87.621448 
L 333.301719 93.223527 
L 333.615636 137.386692 
L 334.039777 180.145822 
L 334.338067 192.341996 
L 334.429807 193.107662 
L 334.48041 192.864226 
L 334.582526 190.757151 
L 334.743707 181.963545 
L 334.937303 157.451254 
L 335.311143 76.053428 
L 335.432443 86.30759 
L 336.169921 175.74108 
L 336.431354 183.994837 
L 336.470799 184.149854 
L 336.52408 183.863885 
L 336.628557 181.49603 
L 336.793152 171.781763 
L 336.996609 144.593214 
L 337.336459 86.298219 
L 337.40157 88.937922 
L 337.58044 110.912946 
L 338.0894 168.278771 
L 338.387733 181.303553 
L 338.479359 182.107849 
L 338.529506 181.846907 
L 338.632112 179.59001 
L 338.795246 170.156145 
L 338.998713 143.532599 
L 339.340363 87.181681 
L 339.403195 89.489313 
L 339.572 108.883349 
L 340.093712 165.424112 
L 340.378831 176.670265 
L 340.447753 177.139263 
L 340.501916 176.830107 
L 340.607341 174.335828 
L 340.774257 164.135 
L 340.98937 135.130895 
L 341.30045 91.566214 
L 341.335424 92.204507 
L 341.439435 99.912868 
L 342.231322 170.364864 
L 342.375539 172.382983 
L 342.410426 172.252334 
L 342.497947 170.751638 
L 342.649522 163.562414 
L 342.857013 141.382441 
L 343.222479 95.573379 
L 343.272363 96.651506 
L 343.402387 106.706882 
L 344.071522 163.772662 
L 344.263766 167.312199 
L 344.279529 167.285975 
L 344.340512 166.692016 
L 344.464786 162.834542 
L 344.652505 148.896675 
L 345.106531 99.747122 
L 345.203817 102.904271 
L 345.434896 123.483885 
L 345.8839 157.057727 
L 346.112991 161.972418 
L 346.146411 161.867301 
L 346.229971 160.586296 
L 346.381006 154.174228 
L 346.608186 133.355338 
L 346.954077 104.005239 
L 346.967104 104.058338 
L 347.02564 105.437626 
L 347.187237 115.852962 
L 347.766777 154.082368 
L 347.927835 156.418242 
L 347.956871 156.339875 
L 348.036773 155.274721 
L 348.186302 149.676271 
L 348.426788 130.655561 
L 348.765623 108.227671 
L 348.788224 108.336719 
L 348.863487 110.196719 
L 349.06557 122.189759 
L 349.551753 148.731565 
L 349.70862 150.747648 
L 349.739499 150.663077 
L 349.822926 149.592238 
L 349.979784 144.111973 
L 350.269112 124.273851 
L 350.540606 112.245476 
L 350.548233 112.24145 
L 350.576816 112.395705 
L 350.666338 114.423314 
L 350.905834 126.35708 
L 351.327268 143.905483 
L 351.457659 145.123368 
L 351.4975 145.001465 
L 351.592547 143.739976 
L 351.76958 137.803273 
L 352.295655 115.818542 
L 352.353441 116.191223 
L 352.480677 119.23333 
L 353.178192 139.772835 
L 353.207599 139.719453 
L 353.290787 139.003549 
L 353.455832 135.229845 
L 354.018778 118.722558 
L 354.082953 119.030984 
L 354.217251 121.340197 
L 354.873404 134.951989 
L 354.900607 134.918255 
L 354.983252 134.412622 
L 355.150337 131.699077 
L 355.717168 120.774466 
L 355.754405 120.840318 
L 355.853378 121.59231 
L 356.094346 125.59666 
L 356.474479 130.718683 
L 356.548607 130.870282 
L 356.600734 130.776798 
L 356.71803 129.991093 
L 356.965954 126.443534 
L 357.34136 122.009848 
L 357.400503 121.930511 
L 357.453714 122.022856 
L 357.58186 122.786533 
L 358.197488 127.616227 
L 358.258412 127.539638 
L 358.389255 126.940151 
L 358.702119 124.130291 
L 359.007407 122.332644 
L 359.079623 122.302725 
L 359.123146 122.358161 
L 359.267612 122.863887 
L 359.828917 125.132381 
L 359.847848 125.124647 
L 359.961451 124.926121 
L 360.182572 123.964879 
L 360.639451 122.117785 
L 360.777273 122.108794 
L 360.787188 122.118422 
L 360.969693 122.467152 
L 361.407955 123.271126 
L 361.552256 123.169464 
L 361.780129 122.646006 
L 362.282923 121.532135 
L 362.481499 121.536215 
L 363.136503 121.786042 
L 363.429895 121.385625 
L 363.918888 120.790328 
L 364.239849 120.760982 
L 364.683254 120.702299 
L 365.102878 120.341011 
L 365.623775 119.988385 
L 366.766196 119.492799 
L 367.476103 119.185102 
L 369.501692 118.416056 
L 371.567184 117.816632 
L 373.598879 117.441699 
L 375.736869 117.27087 
L 377.825889 117.327701 
L 379.925475 117.607763 
L 382.059349 118.118166 
L 384.251206 118.87337 
L 386.528679 119.8963 
L 388.926295 121.220899 
L 391.489411 122.896004 
L 394.292996 125.000641 
L 397.486051 127.685426 
L 401.401957 131.283484 
L 407.128914 136.881756 
L 415.865444 145.399214 
L 420.195266 149.292835 
L 423.87322 152.308483 
L 427.182549 154.740439 
L 430.210843 156.696025 
L 431.369091 157.365471 
L 431.369091 157.365471 
" clip-path="url(#p5fe47dbc00)" style="fill: none; stroke: #0000ff; stroke-width: 1.5; stroke-linecap: square"/>
   </g>
   <g id="patch_3">
    <path d="M 40.12 248.853484 
L 40.12 10.8 
" style="fill: none; stroke: #000000; stroke-width: 0.8; stroke-linejoin: miter; stroke-linecap: square"/>
   </g>
   <g id="patch_4">
    <path d="M 450 248.853484 
L 450 10.8 
" style="fill: none; stroke: #000000; stroke-width: 0.8; stroke-linejoin: miter; stroke-linecap: square"/>
   </g>
   <g id="patch_5">
    <path d="M 40.12 248.853484 
L 450 248.853484 
" style="fill: none; stroke: #000000; stroke-width: 0.8; stroke-linejoin: miter; stroke-linecap: square"/>
   </g>
   <g id="patch_6">
    <path d="M 40.12 10.8 
L 450 10.8 
" style="fill: none; stroke: #000000; stroke-width: 0.8; stroke-linejoin: miter; stroke-linecap: square"/>
   </g>
  </g>
  <g id="axes_2">
   <g id="patch_7">
    <path d="M 40.12 317.72 
L 450 317.72 
L 450 264.819226 
L 40.12 264.819226 
z
" style="fill: #ffffff"/>
   </g>
   <g id="matplotlib.axis_3">
    <g id="xtick_8">
     <g id="line2d_34">
      <path d="M 58.750909 317.72 
L 58.750909 264.819226 
" clip-path="url(#p191c265b5e)" style="fill: none; stroke-dasharray: 0.8,1.32; stroke-dashoffset: 0; stroke: #b0b0b0; stroke-width: 0.8"/>
     </g>
     <g id="line2d_35">
      <g>
       <use xlink:href="#m55f418db92" x="58.750909" y="317.72" style="stroke: #000000; stroke-width: 0.8"/>
      </g>
     </g>
     <g id="text_10">
      <!-- 0 -->
      <g transform="translate(55.569659 332.318437) scale(0.1 -0.1)">
       <use xlink:href="#DejaVuSans-30"/>
      </g>
     </g>
    </g>
    <g id="xtick_9">
     <g id="line2d_36">
      <path d="M 120.853939 317.72 
L 120.853939 264.819226 
" clip-path="url(#p191c265b5e)" style="fill: none; stroke-dasharray: 0.8,1.32; stroke-dashoffset: 0; stroke: #b0b0b0; stroke-width: 0.8"/>
     </g>
     <g id="line2d_37">
      <g>
       <use xlink:href="#m55f418db92" x="120.853939" y="317.72" style="stroke: #000000; stroke-width: 0.8"/>
      </g>
     </g>
     <g id="text_11">
      <!-- 500 -->
      <g transform="translate(111.310189 332.318437) scale(0.1 -0.1)">
       <use xlink:href="#DejaVuSans-35"/>
       <use xlink:href="#DejaVuSans-30" x="63.623047"/>
       <use xlink:href="#DejaVuSans-30" x="127.246094"/>
      </g>
     </g>
    </g>
    <g id="xtick_10">
     <g id="line2d_38">
      <path d="M 182.95697 317.72 
L 182.95697 264.819226 
" clip-path="url(#p191c265b5e)" style="fill: none; stroke-dasharray: 0.8,1.32; stroke-dashoffset: 0; stroke: #b0b0b0; stroke-width: 0.8"/>
     </g>
     <g id="line2d_39">
      <g>
       <use xlink:href="#m55f418db92" x="182.95697" y="317.72" style="stroke: #000000; stroke-width: 0.8"/>
      </g>
     </g>
     <g id="text_12">
      <!-- 1000 -->
      <g transform="translate(170.23197 332.318437) scale(0.1 -0.1)">
       <use xlink:href="#DejaVuSans-31"/>
       <use xlink:href="#DejaVuSans-30" x="63.623047"/>
       <use xlink:href="#DejaVuSans-30" x="127.246094"/>
       <use xlink:href="#DejaVuSans-30" x="190.869141"/>
      </g>
     </g>
    </g>
    <g id="xtick_11">
     <g id="line2d_40">
      <path d="M 245.06 317.72 
L 245.06 264.819226 
" clip-path="url(#p191c265b5e)" style="fill: none; stroke-dasharray: 0.8,1.32; stroke-dashoffset: 0; stroke: #b0b0b0; stroke-width: 0.8"/>
     </g>
     <g id="line2d_41">
      <g>
       <use xlink:href="#m55f418db92" x="245.06" y="317.72" style="stroke: #000000; stroke-width: 0.8"/>
      </g>
     </g>
     <g id="text_13">
      <!-- 1500 -->
      <g transform="translate(232.335 332.318437) scale(0.1 -0.1)">
       <use xlink:href="#DejaVuSans-31"/>
       <use xlink:href="#DejaVuSans-35" x="63.623047"/>
       <use xlink:href="#DejaVuSans-30" x="127.246094"/>
       <use xlink:href="#DejaVuSans-30" x="190.869141"/>
      </g>
     </g>
    </g>
    <g id="xtick_12">
     <g id="line2d_42">
      <path d="M 307.16303 317.72 
L 307.16303 264.819226 
" clip-path="url(#p191c265b5e)" style="fill: none; stroke-dasharray: 0.8,1.32; stroke-dashoffset: 0; stroke: #b0b0b0; stroke-width: 0.8"/>
     </g>
     <g id="line2d_43">
      <g>
       <use xlink:href="#m55f418db92" x="307.16303" y="317.72" style="stroke: #000000; stroke-width: 0.8"/>
      </g>
     </g>
     <g id="text_14">
      <!-- 2000 -->
      <g transform="translate(294.43803 332.318437) scale(0.1 -0.1)">
       <use xlink:href="#DejaVuSans-32"/>
       <use xlink:href="#DejaVuSans-30" x="63.623047"/>
       <use xlink:href="#DejaVuSans-30" x="127.246094"/>
       <use xlink:href="#DejaVuSans-30" x="190.869141"/>
      </g>
     </g>
    </g>
    <g id="xtick_13">
     <g id="line2d_44">
      <path d="M 369.266061 317.72 
L 369.266061 264.819226 
" clip-path="url(#p191c265b5e)" style="fill: none; stroke-dasharray: 0.8,1.32; stroke-dashoffset: 0; stroke: #b0b0b0; stroke-width: 0.8"/>
     </g>
     <g id="line2d_45">
      <g>
       <use xlink:href="#m55f418db92" x="369.266061" y="317.72" style="stroke: #000000; stroke-width: 0.8"/>
      </g>
     </g>
     <g id="text_15">
      <!-- 2500 -->
      <g transform="translate(356.541061 332.318437) scale(0.1 -0.1)">
       <use xlink:href="#DejaVuSans-32"/>
       <use xlink:href="#DejaVuSans-35" x="63.623047"/>
       <use xlink:href="#DejaVuSans-30" x="127.246094"/>
       <use xlink:href="#DejaVuSans-30" x="190.869141"/>
      </g>
     </g>
    </g>
    <g id="xtick_14">
     <g id="line2d_46">
      <path d="M 431.369091 317.72 
L 431.369091 264.819226 
" clip-path="url(#p191c265b5e)" style="fill: none; stroke-dasharray: 0.8,1.32; stroke-dashoffset: 0; stroke: #b0b0b0; stroke-width: 0.8"/>
     </g>
     <g id="line2d_47">
      <g>
       <use xlink:href="#m55f418db92" x="431.369091" y="317.72" style="stroke: #000000; stroke-width: 0.8"/>
      </g>
     </g>
     <g id="text_16">
      <!-- 3000 -->
      <g transform="translate(418.644091 332.318437) scale(0.1 -0.1)">
       <defs>
        <path id="DejaVuSans-33" d="M 2597 2516 
Q 3050 2419 3304 2112 
Q 3559 1806 3559 1356 
Q 3559 666 3084 287 
Q 2609 -91 1734 -91 
Q 1441 -91 1130 -33 
Q 819 25 488 141 
L 488 750 
Q 750 597 1062 519 
Q 1375 441 1716 441 
Q 2309 441 2620 675 
Q 2931 909 2931 1356 
Q 2931 1769 2642 2001 
Q 2353 2234 1838 2234 
L 1294 2234 
L 1294 2753 
L 1863 2753 
Q 2328 2753 2575 2939 
Q 2822 3125 2822 3475 
Q 2822 3834 2567 4026 
Q 2313 4219 1838 4219 
Q 1578 4219 1281 4162 
Q 984 4106 628 3988 
L 628 4550 
Q 988 4650 1302 4700 
Q 1616 4750 1894 4750 
Q 2613 4750 3031 4423 
Q 3450 4097 3450 3541 
Q 3450 3153 3228 2886 
Q 3006 2619 2597 2516 
z
" transform="scale(0.015625)"/>
       </defs>
       <use xlink:href="#DejaVuSans-33"/>
       <use xlink:href="#DejaVuSans-30" x="63.623047"/>
       <use xlink:href="#DejaVuSans-30" x="127.246094"/>
       <use xlink:href="#DejaVuSans-30" x="190.869141"/>
      </g>
     </g>
    </g>
   </g>
   <g id="matplotlib.axis_4">
    <g id="ytick_10">
     <g id="line2d_48">
      <path d="M 40.12 315.315419 
L 450 315.315419 
" clip-path="url(#p191c265b5e)" style="fill: none; stroke-dasharray: 0.8,1.32; stroke-dashoffset: 0; stroke: #b0b0b0; stroke-width: 0.8"/>
     </g>
     <g id="line2d_49">
      <g>
       <use xlink:href="#mc2e575b6ed" x="40.12" y="315.315419" style="stroke: #000000; stroke-width: 0.8"/>
      </g>
     </g>
     <g id="text_17">
      <!-- 0.0 -->
      <g transform="translate(17.216875 319.114638) scale(0.1 -0.1)">
       <use xlink:href="#DejaVuSans-30"/>
       <use xlink:href="#DejaVuSans-2e" x="63.623047"/>
       <use xlink:href="#DejaVuSans-30" x="95.410156"/>
      </g>
     </g>
    </g>
    <g id="ytick_11">
     <g id="line2d_50">
      <path d="M 40.12 269.628319 
L 450 269.628319 
" clip-path="url(#p191c265b5e)" style="fill: none; stroke-dasharray: 0.8,1.32; stroke-dashoffset: 0; stroke: #b0b0b0; stroke-width: 0.8"/>
     </g>
     <g id="line2d_51">
      <g>
       <use xlink:href="#mc2e575b6ed" x="40.12" y="269.628319" style="stroke: #000000; stroke-width: 0.8"/>
      </g>
     </g>
     <g id="text_18">
      <!-- 0.1 -->
      <g transform="translate(17.216875 273.427537) scale(0.1 -0.1)">
       <use xlink:href="#DejaVuSans-30"/>
       <use xlink:href="#DejaVuSans-2e" x="63.623047"/>
       <use xlink:href="#DejaVuSans-31" x="95.410156"/>
      </g>
     </g>
    </g>
   </g>
   <g id="line2d_52">
    <path d="M 58.750909 291.269567 
L 58.952883 291.05397 
L 69.806515 279.694832 
L 73.81698 275.976861 
L 76.717688 273.590304 
L 80.37506 271.037583 
L 82.316649 269.919848 
L 85.104827 268.634167 
L 86.312979 268.200597 
L 86.663116 268.089577 
L 87.380033 267.882158 
L 87.81165 267.771138 
L 88.347723 267.646869 
L 88.89957 267.535849 
L 89.329199 267.460466 
L 90.120764 267.349446 
L 90.468914 267.311526 
L 94.898599 267.422545 
L 95.307237 267.488335 
L 95.898706 267.599354 
L 96.405591 267.710374 
L 96.859937 267.821394 
L 97.521831 268.003685 
L 97.888611 268.114705 
L 98.906232 268.460556 
L 99.203333 268.571576 
L 103.433791 270.638872 
L 106.003863 272.304441 
L 108.290869 274.016702 
L 110.852371 276.159838 
L 113.907591 278.976402 
L 118.03235 283.113552 
L 121.556325 286.836228 
L 134.222859 300.069634 
L 138.03201 303.59316 
L 141.602686 306.56506 
L 144.654802 308.809759 
L 147.435278 310.59247 
L 151.546126 312.73376 
L 154.216805 313.791215 
L 156.801161 314.553171 
L 159.297827 315.035984 
L 162.36435 315.305041 
L 164.492248 315.274535 
L 167.148892 314.995338 
L 171.222105 314.025302 
L 172.501552 313.557115 
L 176.624075 311.747357 
L 177.857938 311.063622 
L 178.972936 310.38834 
L 181.817379 308.558754 
L 185.263476 306.047654 
L 185.37402 305.949884 
L 185.807499 305.548477 
L 185.918042 305.452168 
L 186.842135 304.707194 
L 186.952679 304.617602 
L 187.566257 304.078311 
L 187.6768 303.971998 
L 188.414584 303.321139 
L 188.525127 303.229719 
L 189.67776 302.243883 
L 189.788303 302.127381 
L 190.224266 301.687597 
L 190.33481 301.583385 
L 191.20301 300.807206 
L 191.313553 300.706558 
L 191.851366 300.173481 
L 191.961909 300.055471 
L 192.626412 299.401963 
L 192.736955 299.298984 
L 193.638691 298.46291 
L 193.749234 298.348646 
L 194.172777 297.881998 
L 194.28332 297.7644 
L 194.931676 297.123181 
L 195.756404 296.313012 
L 195.866948 296.190799 
L 196.345141 295.661103 
L 196.455684 295.544601 
L 197.239425 294.767874 
L 197.349968 294.658134 
L 197.989629 293.972005 
L 198.100173 293.84504 
L 198.637985 293.267281 
L 198.748528 293.153612 
L 199.60555 292.283684 
L 199.716093 292.161608 
L 200.211676 291.597646 
L 200.322219 291.476484 
L 201.096023 290.677143 
L 201.206566 290.563382 
L 201.812692 289.905396 
L 201.923235 289.777975 
L 202.417575 289.235303 
L 202.528119 289.11903 
L 203.305649 288.316581 
L 203.416192 288.197064 
L 203.9391 287.609619 
L 204.049643 287.486767 
L 204.784943 286.719726 
L 204.895486 286.6056 
L 205.644449 285.797029 
L 205.754992 285.673948 
L 206.335034 285.062426 
L 206.445578 284.94894 
L 207.200751 284.164675 
L 207.311294 284.043513 
L 207.871463 283.447479 
L 207.982007 283.333626 
L 208.689981 282.618212 
L 208.800525 282.5034 
L 209.538309 281.734578 
L 209.648852 281.621594 
L 210.436319 280.842218 
L 210.546862 280.731563 
L 211.270983 280.003128 
L 211.381527 279.893571 
L 212.128005 279.176694 
L 212.238548 279.069969 
L 212.973848 278.361956 
L 213.084392 278.256556 
L 213.813481 277.583082 
L 213.924025 277.480241 
L 214.695344 276.775517 
L 214.805888 276.676011 
L 215.777179 275.823992 
L 215.887723 275.72709 
L 216.589487 275.129868 
L 216.70003 275.037534 
L 217.542147 274.346882 
L 217.652691 274.257427 
L 218.456304 273.624569 
L 218.566847 273.538723 
L 219.632535 272.74162 
L 219.743079 272.660937 
L 220.9131 271.843869 
L 221.023643 271.769033 
L 221.952704 271.165827 
L 222.063248 271.096017 
L 223.940001 270.005054 
L 224.050545 269.945478 
L 228.710756 268.009625 
L 229.103247 267.898605 
L 230.079507 267.657834 
L 230.62353 267.546814 
L 231.232139 267.441277 
L 232.071772 267.330257 
L 232.508978 267.287768 
L 236.517107 267.398788 
L 237.076034 267.48605 
L 237.669739 267.59707 
L 238.511856 267.788499 
L 238.936641 267.899519 
L 243.514877 269.701555 
L 243.62542 269.758618 
L 244.530882 270.244683 
L 244.641426 270.307138 
L 245.494721 270.805218 
L 246.348017 271.336377 
L 246.45856 271.408014 
L 247.291983 271.961605 
L 247.402526 272.037719 
L 248.234707 272.623656 
L 248.34525 272.704066 
L 249.182399 273.325227 
L 249.292943 273.409794 
L 249.981044 273.943374 
L 250.091588 274.03123 
L 250.818193 274.616482 
L 250.928736 274.707628 
L 251.693846 275.346653 
L 251.804389 275.441134 
L 252.468892 276.014325 
L 253.196739 276.657964 
L 253.307282 276.757562 
L 254.099717 277.478231 
L 254.21026 277.580615 
L 254.908299 278.231702 
L 255.018842 278.336463 
L 255.652293 278.939715 
L 255.762836 279.04644 
L 256.469569 279.732341 
L 256.580112 279.841076 
L 257.373789 280.626072 
L 257.484332 280.736817 
L 258.207212 281.464202 
L 258.317755 281.576592 
L 258.992194 282.264411 
L 259.102737 282.378218 
L 259.879025 283.179798 
L 259.989568 283.294975 
L 260.59942 283.931122 
L 260.709964 284.047259 
L 261.2987 284.666365 
L 261.409244 284.783324 
L 262.089893 285.503992 
L 262.200436 285.621636 
L 262.861213 286.325309 
L 262.971756 286.444598 
L 263.626322 287.143748 
L 263.736865 287.262397 
L 264.376527 287.948709 
L 264.48707 288.068683 
L 265.125489 288.753944 
L 265.236032 288.87401 
L 265.87321 289.558494 
L 265.983753 289.677509 
L 266.615962 290.357196 
L 266.726505 290.477124 
L 267.367408 291.16403 
L 267.477952 291.283639 
L 268.12755 291.977946 
L 268.238093 292.097143 
L 268.901353 292.803283 
L 269.011897 292.921887 
L 269.693788 293.643972 
L 269.804331 293.761844 
L 270.50858 294.502889 
L 270.619123 294.619894 
L 271.226491 295.254122 
L 271.337034 295.370213 
L 271.968001 296.023676 
L 272.078544 296.13867 
L 272.738079 296.815113 
L 272.848622 296.92892 
L 273.539208 297.62976 
L 273.649751 297.74215 
L 274.388777 298.482144 
L 274.49932 298.592981 
L 275.302934 299.385698 
L 275.413477 299.494662 
L 276.121452 300.181339 
L 276.231995 300.288475 
L 277.004557 301.02486 
L 277.1151 301.12994 
L 277.987027 301.943536 
L 278.09757 302.046149 
L 278.877584 302.75736 
L 278.988128 302.857643 
L 279.886137 303.655843 
L 279.996681 303.753293 
L 280.812715 304.458611 
L 280.923258 304.553412 
L 281.667252 305.178868 
L 281.777796 305.271019 
L 282.643512 305.976976 
L 282.754055 306.066066 
L 283.558911 306.700294 
L 283.669454 306.786414 
L 284.410964 307.351427 
L 284.521508 307.434669 
L 285.408339 308.085344 
L 285.518882 308.165114 
L 286.696356 308.986568 
L 286.806899 309.061723 
L 288.034055 309.865222 
L 288.144598 309.935443 
L 289.041366 310.487207 
L 289.151909 310.55359 
L 290.438684 311.291546 
L 290.549228 311.35247 
L 291.837244 312.027492 
L 291.947788 312.082824 
L 293.566193 312.838854 
L 293.676736 312.887118 
L 299.534294 314.773602 
L 303.240603 315.260934 
L 306.140814 315.278902 
L 308.438627 315.071471 
L 308.54917 315.052131 
L 310.119135 314.76187 
L 311.492854 314.426997 
L 313.18454 313.965123 
L 313.295084 313.919939 
L 314.253954 313.565864 
L 314.364498 313.526281 
L 315.469932 313.085217 
L 315.580475 313.034495 
L 316.827504 312.514361 
L 316.938047 312.469483 
L 317.909339 312.008742 
L 318.019882 311.941189 
L 318.726615 311.552173 
L 318.837158 311.494182 
L 319.813418 310.961027 
L 319.923961 310.8923 
L 320.720122 310.407346 
L 320.830665 310.344389 
L 322.163396 309.584384 
L 322.27394 309.506487 
L 322.69003 309.184987 
L 322.800573 309.104578 
L 323.576861 308.579861 
L 324.405316 307.996117 
L 324.515859 307.907256 
L 325.276 307.33137 
L 325.386544 307.252834 
L 326.536692 306.447599 
L 326.647235 306.357504 
L 327.039726 305.997946 
L 327.15027 305.899719 
L 327.844581 305.334935 
L 327.955125 305.247856 
L 328.782337 304.567255 
L 328.892881 304.463591 
L 329.426967 303.976749 
L 330.572147 303.041534 
L 330.68269 302.948789 
L 331.145979 302.509553 
L 331.256522 302.393874 
L 331.764525 301.903377 
L 331.875068 301.803322 
L 332.614094 301.152053 
L 332.724638 301.051724 
L 333.194136 300.588045 
L 333.787841 299.98991 
L 333.898385 299.885195 
L 334.894517 298.976113 
L 335.005061 298.867743 
L 335.408731 298.433213 
L 335.519274 298.311411 
L 336.007404 297.814884 
L 336.117947 297.707245 
L 337.040798 296.817946 
L 337.151342 296.700027 
L 337.624567 296.174809 
L 337.73511 296.056616 
L 338.500219 295.295149 
L 338.610763 295.186734 
L 339.242972 294.53222 
L 339.353515 294.40489 
L 339.937284 293.766276 
L 340.047827 293.652469 
L 340.939626 292.752708 
L 341.05017 292.632733 
L 341.486133 292.137165 
L 341.596676 292.012714 
L 342.181687 291.396897 
L 342.29223 291.284233 
L 343.032499 290.512806 
L 343.143042 290.386801 
L 343.663465 289.801047 
L 343.774009 289.682489 
L 344.558991 288.873096 
L 344.669534 288.756731 
L 345.213557 288.151971 
L 345.3241 288.027154 
L 345.994813 287.314252 
L 346.105356 287.200126 
L 346.807121 286.461457 
L 346.917664 286.337234 
L 347.510127 285.691081 
L 347.62067 285.57499 
L 348.414347 284.758836 
L 348.524891 284.640552 
L 349.138468 283.976535 
L 349.249012 283.859622 
L 349.938356 283.15933 
L 350.048899 283.046574 
L 350.764326 282.296392 
L 350.874869 282.180987 
L 351.611411 281.442135 
L 351.721955 281.332029 
L 352.421235 280.624016 
L 352.531778 280.511489 
L 353.204975 279.851219 
L 353.315518 279.744768 
L 354.187445 278.896769 
L 354.297988 278.789176 
L 355.138863 278.000023 
L 355.249407 277.896679 
L 356.171016 277.045026 
L 356.281559 276.94456 
L 357.190747 276.138548 
L 357.301291 276.040366 
L 358.137198 275.321297 
L 358.247741 275.22805 
L 359.041418 274.56979 
L 359.151961 274.479284 
L 359.907134 273.876625 
L 360.017677 273.789408 
L 360.969096 273.063852 
L 361.079639 272.981295 
L 362.655814 271.865113 
L 362.766357 271.790141 
L 363.682998 271.193741 
L 363.793542 271.123749 
L 365.529942 270.105064 
L 365.640486 270.044528 
L 370.602518 267.975359 
L 371.003703 267.86434 
L 371.003703 267.86434 
L 371.934007 267.640473 
L 372.49045 267.529453 
L 372.599751 267.509351 
L 372.600993 267.509351 
L 373.177309 267.415692 
L 374.097676 267.304673 
L 374.206978 267.294165 
L 374.20822 267.294165 
L 378.336829 267.405184 
L 378.903209 267.495188 
L 379.488219 267.606208 
L 380.347725 267.804033 
L 380.767542 267.915052 
L 385.253865 269.683554 
L 385.364408 269.740435 
L 386.279807 270.23052 
L 386.39035 270.292838 
L 387.251098 270.794071 
L 387.361642 270.861368 
L 388.43354 271.538177 
L 388.544083 271.611276 
L 389.525311 272.279267 
L 389.635855 272.357529 
L 390.383575 272.896682 
L 390.494118 272.978782 
L 391.26668 273.562252 
L 391.377224 273.648144 
L 392.173384 274.276296 
L 392.283928 274.365843 
L 393.113624 275.047814 
L 393.224168 275.14097 
L 393.92469 275.737461 
L 394.035233 275.833495 
L 394.789164 276.495501 
L 394.899707 276.594505 
L 395.56421 277.194194 
L 395.674753 277.295619 
L 396.402601 277.968819 
L 396.513144 278.072757 
L 397.314273 278.831757 
L 397.424817 278.938208 
L 398.140244 279.631052 
L 398.250787 279.739514 
L 399.049432 280.527799 
L 399.159975 280.638316 
L 399.889065 281.370406 
L 399.999608 281.482659 
L 400.679015 282.174545 
L 400.789559 282.288169 
L 401.569573 283.092901 
L 401.680116 283.207941 
L 402.289968 283.843495 
L 402.400511 283.959494 
L 403.106002 284.701224 
L 403.216545 284.818183 
L 403.897194 285.539034 
L 404.007738 285.65677 
L 404.668514 286.360534 
L 404.779057 286.478818 
L 405.428655 287.17381 
L 405.539199 287.292505 
L 406.17886 287.978817 
L 406.289403 288.09774 
L 407.058239 288.924403 
L 407.168782 289.043418 
L 407.931407 289.863821 
L 408.041951 289.98279 
L 408.814512 290.812696 
L 408.925056 290.932442 
L 409.569685 291.6225 
L 409.680229 291.741881 
L 410.4826 292.597737 
L 410.593143 292.716523 
L 411.270066 293.434451 
L 411.38061 293.552506 
L 412.076164 294.285556 
L 412.186707 294.402789 
L 412.909586 295.15891 
L 413.02013 295.275092 
L 413.646128 295.924169 
L 413.756672 296.039346 
L 414.411237 296.711632 
L 414.521781 296.825576 
L 415.20864 297.523492 
L 415.319184 297.63611 
L 416.053242 298.372495 
L 416.163785 298.483515 
L 416.957462 299.268145 
L 417.068005 299.377383 
L 417.766043 300.056202 
L 417.876587 300.163658 
L 418.640454 300.893738 
L 418.750997 300.999138 
L 419.604293 301.798068 
L 419.714836 301.901093 
L 420.481188 302.602709 
L 420.591731 302.70345 
L 421.461173 303.480267 
L 421.571717 303.578312 
L 422.364152 304.267547 
L 422.474695 304.362988 
L 423.403756 305.147253 
L 423.5143 305.239586 
L 424.375048 305.942482 
L 424.485591 306.031755 
L 425.28051 306.659313 
L 425.391053 306.745616 
L 426.123869 307.305146 
L 426.234412 307.388616 
L 427.106339 308.030337 
L 427.216882 308.110381 
L 428.037884 308.689648 
L 428.148428 308.766402 
L 429.201695 309.474186 
L 429.312239 309.546646 
L 430.365506 310.213495 
L 430.476049 310.281569 
L 431.369091 310.814317 
L 431.369091 310.814317 
" clip-path="url(#p191c265b5e)" style="fill: none; stroke: #0000ff; stroke-width: 1.5; stroke-linecap: square"/>
   </g>
   <g id="patch_8">
    <path d="M 40.12 317.72 
L 40.12 264.819226 
" style="fill: none; stroke: #000000; stroke-width: 0.8; stroke-linejoin: miter; stroke-linecap: square"/>
   </g>
   <g id="patch_9">
    <path d="M 450 317.72 
L 450 264.819226 
" style="fill: none; stroke: #000000; stroke-width: 0.8; stroke-linejoin: miter; stroke-linecap: square"/>
   </g>
   <g id="patch_10">
    <path d="M 40.12 317.72 
L 450 317.72 
" style="fill: none; stroke: #000000; stroke-width: 0.8; stroke-linejoin: miter; stroke-linecap: square"/>
   </g>
   <g id="patch_11">
    <path d="M 40.12 264.819226 
L 450 264.819226 
" style="fill: none; stroke: #000000; stroke-width: 0.8; stroke-linejoin: miter; stroke-linecap: square"/>
   </g>
  </g>
 </g>
 <defs>
  <clipPath id="p5fe47dbc00">
   <rect x="40.12" y="10.8" width="409.88" height="238.053484"/>
  </clipPath>
  <clipPath id="p191c265b5e">
   <rect x="40.12" y="264.819226" width="409.88" height="52.900774"/>
  </clipPath>
 </defs>
</svg>
