<?xml version="1.0" encoding="utf-8" standalone="no"?>
<!DOCTYPE svg PUBLIC "-//W3C//DTD SVG 1.1//EN"
  "http://www.w3.org/Graphics/SVG/1.1/DTD/svg11.dtd">
<svg xmlns:xlink="http://www.w3.org/1999/xlink" width="460.8pt" height="345.6pt" viewBox="0 0 460.8 345.6" xmlns="http://www.w3.org/2000/svg" version="1.1">
 <metadata>
  <rdf:RDF xmlns:dc="http://purl.org/dc/elements/1.1/" xmlns:cc="http://creativecommons.org/ns#" xmlns:rdf="http://www.w3.org/1999/02/22-rdf-syntax-ns#">
   <cc:Work>
    <dc:type rdf:resource="http://purl.org/dc/dcmitype/StillImage"/>
    <dc:date>2023-01-27T01:42:31.645531</dc:date>
    <dc:format>image/svg+xml</dc:format>
    <dc:creator>
     <cc:Agent>
      <dc:title>Matplotlib v3.6.2, https://matplotlib.org/</dc:title>
     </cc:Agent>
    </dc:creator>
   </cc:Work>
  </rdf:RDF>
 </metadata>
 <defs>
  <style type="text/css">*{stroke-linejoin: round; stroke-linecap: butt}</style>
 </defs>
 <g id="figure_1">
  <g id="patch_1">
   <path d="M 0 345.6 
L 460.8 345.6 
L 460.8 0 
L 0 0 
L 0 345.6 
z
" style="fill: none"/>
  </g>
  <g id="axes_1">
   <g id="patch_2">
    <path d="M 57.6 307.584 
L 414.72 307.584 
L 414.72 41.472 
L 57.6 41.472 
L 57.6 307.584 
z
" style="fill: none"/>
   </g>
   <g id="matplotlib.axis_1">
    <g id="xtick_1">
     <g id="line2d_1">
      <defs>
       <path id="mc12bde62f2" d="M 0 0 
L 0 3.5 
" style="stroke: #000000; stroke-width: 0.8"/>
      </defs>
      <g>
       <use xlink:href="#mc12bde62f2" x="73.832727" y="307.584" style="stroke: #000000; stroke-width: 0.8"/>
      </g>
     </g>
     <g id="text_1">
      <!-- 0 -->
      <g transform="translate(70.651477 322.182437) scale(0.1 -0.1)">
       <defs>
        <path id="DejaVuSans-30" d="M 2034 4250 
Q 1547 4250 1301 3770 
Q 1056 3291 1056 2328 
Q 1056 1369 1301 889 
Q 1547 409 2034 409 
Q 2525 409 2770 889 
Q 3016 1369 3016 2328 
Q 3016 3291 2770 3770 
Q 2525 4250 2034 4250 
z
M 2034 4750 
Q 2819 4750 3233 4129 
Q 3647 3509 3647 2328 
Q 3647 1150 3233 529 
Q 2819 -91 2034 -91 
Q 1250 -91 836 529 
Q 422 1150 422 2328 
Q 422 3509 836 4129 
Q 1250 4750 2034 4750 
z
" transform="scale(0.015625)"/>
       </defs>
       <use xlink:href="#DejaVuSans-30"/>
      </g>
     </g>
    </g>
    <g id="xtick_2">
     <g id="line2d_2">
      <g>
       <use xlink:href="#mc12bde62f2" x="127.941818" y="307.584" style="stroke: #000000; stroke-width: 0.8"/>
      </g>
     </g>
     <g id="text_2">
      <!-- 500 -->
      <g transform="translate(118.398068 322.182437) scale(0.1 -0.1)">
       <defs>
        <path id="DejaVuSans-35" d="M 691 4666 
L 3169 4666 
L 3169 4134 
L 1269 4134 
L 1269 2991 
Q 1406 3038 1543 3061 
Q 1681 3084 1819 3084 
Q 2600 3084 3056 2656 
Q 3513 2228 3513 1497 
Q 3513 744 3044 326 
Q 2575 -91 1722 -91 
Q 1428 -91 1123 -41 
Q 819 9 494 109 
L 494 744 
Q 775 591 1075 516 
Q 1375 441 1709 441 
Q 2250 441 2565 725 
Q 2881 1009 2881 1497 
Q 2881 1984 2565 2268 
Q 2250 2553 1709 2553 
Q 1456 2553 1204 2497 
Q 953 2441 691 2322 
L 691 4666 
z
" transform="scale(0.015625)"/>
       </defs>
       <use xlink:href="#DejaVuSans-35"/>
       <use xlink:href="#DejaVuSans-30" x="63.623047"/>
       <use xlink:href="#DejaVuSans-30" x="127.246094"/>
      </g>
     </g>
    </g>
    <g id="xtick_3">
     <g id="line2d_3">
      <g>
       <use xlink:href="#mc12bde62f2" x="182.050909" y="307.584" style="stroke: #000000; stroke-width: 0.8"/>
      </g>
     </g>
     <g id="text_3">
      <!-- 1000 -->
      <g transform="translate(169.325909 322.182437) scale(0.1 -0.1)">
       <defs>
        <path id="DejaVuSans-31" d="M 794 531 
L 1825 531 
L 1825 4091 
L 703 3866 
L 703 4441 
L 1819 4666 
L 2450 4666 
L 2450 531 
L 3481 531 
L 3481 0 
L 794 0 
L 794 531 
z
" transform="scale(0.015625)"/>
       </defs>
       <use xlink:href="#DejaVuSans-31"/>
       <use xlink:href="#DejaVuSans-30" x="63.623047"/>
       <use xlink:href="#DejaVuSans-30" x="127.246094"/>
       <use xlink:href="#DejaVuSans-30" x="190.869141"/>
      </g>
     </g>
    </g>
    <g id="xtick_4">
     <g id="line2d_4">
      <g>
       <use xlink:href="#mc12bde62f2" x="236.16" y="307.584" style="stroke: #000000; stroke-width: 0.8"/>
      </g>
     </g>
     <g id="text_4">
      <!-- 1500 -->
      <g transform="translate(223.435 322.182437) scale(0.1 -0.1)">
       <use xlink:href="#DejaVuSans-31"/>
       <use xlink:href="#DejaVuSans-35" x="63.623047"/>
       <use xlink:href="#DejaVuSans-30" x="127.246094"/>
       <use xlink:href="#DejaVuSans-30" x="190.869141"/>
      </g>
     </g>
    </g>
    <g id="xtick_5">
     <g id="line2d_5">
      <g>
       <use xlink:href="#mc12bde62f2" x="290.269091" y="307.584" style="stroke: #000000; stroke-width: 0.8"/>
      </g>
     </g>
     <g id="text_5">
      <!-- 2000 -->
      <g transform="translate(277.544091 322.182437) scale(0.1 -0.1)">
       <defs>
        <path id="DejaVuSans-32" d="M 1228 531 
L 3431 531 
L 3431 0 
L 469 0 
L 469 531 
Q 828 903 1448 1529 
Q 2069 2156 2228 2338 
Q 2531 2678 2651 2914 
Q 2772 3150 2772 3378 
Q 2772 3750 2511 3984 
Q 2250 4219 1831 4219 
Q 1534 4219 1204 4116 
Q 875 4013 500 3803 
L 500 4441 
Q 881 4594 1212 4672 
Q 1544 4750 1819 4750 
Q 2544 4750 2975 4387 
Q 3406 4025 3406 3419 
Q 3406 3131 3298 2873 
Q 3191 2616 2906 2266 
Q 2828 2175 2409 1742 
Q 1991 1309 1228 531 
z
" transform="scale(0.015625)"/>
       </defs>
       <use xlink:href="#DejaVuSans-32"/>
       <use xlink:href="#DejaVuSans-30" x="63.623047"/>
       <use xlink:href="#DejaVuSans-30" x="127.246094"/>
       <use xlink:href="#DejaVuSans-30" x="190.869141"/>
      </g>
     </g>
    </g>
    <g id="xtick_6">
     <g id="line2d_6">
      <g>
       <use xlink:href="#mc12bde62f2" x="344.378182" y="307.584" style="stroke: #000000; stroke-width: 0.8"/>
      </g>
     </g>
     <g id="text_6">
      <!-- 2500 -->
      <g transform="translate(331.653182 322.182437) scale(0.1 -0.1)">
       <use xlink:href="#DejaVuSans-32"/>
       <use xlink:href="#DejaVuSans-35" x="63.623047"/>
       <use xlink:href="#DejaVuSans-30" x="127.246094"/>
       <use xlink:href="#DejaVuSans-30" x="190.869141"/>
      </g>
     </g>
    </g>
    <g id="xtick_7">
     <g id="line2d_7">
      <g>
       <use xlink:href="#mc12bde62f2" x="398.487273" y="307.584" style="stroke: #000000; stroke-width: 0.8"/>
      </g>
     </g>
     <g id="text_7">
      <!-- 3000 -->
      <g transform="translate(385.762273 322.182437) scale(0.1 -0.1)">
       <defs>
        <path id="DejaVuSans-33" d="M 2597 2516 
Q 3050 2419 3304 2112 
Q 3559 1806 3559 1356 
Q 3559 666 3084 287 
Q 2609 -91 1734 -91 
Q 1441 -91 1130 -33 
Q 819 25 488 141 
L 488 750 
Q 750 597 1062 519 
Q 1375 441 1716 441 
Q 2309 441 2620 675 
Q 2931 909 2931 1356 
Q 2931 1769 2642 2001 
Q 2353 2234 1838 2234 
L 1294 2234 
L 1294 2753 
L 1863 2753 
Q 2328 2753 2575 2939 
Q 2822 3125 2822 3475 
Q 2822 3834 2567 4026 
Q 2313 4219 1838 4219 
Q 1578 4219 1281 4162 
Q 984 4106 628 3988 
L 628 4550 
Q 988 4650 1302 4700 
Q 1616 4750 1894 4750 
Q 2613 4750 3031 4423 
Q 3450 4097 3450 3541 
Q 3450 3153 3228 2886 
Q 3006 2619 2597 2516 
z
" transform="scale(0.015625)"/>
       </defs>
       <use xlink:href="#DejaVuSans-33"/>
       <use xlink:href="#DejaVuSans-30" x="63.623047"/>
       <use xlink:href="#DejaVuSans-30" x="127.246094"/>
       <use xlink:href="#DejaVuSans-30" x="190.869141"/>
      </g>
     </g>
    </g>
   </g>
   <g id="matplotlib.axis_2">
    <g id="ytick_1">
     <g id="line2d_8">
      <defs>
       <path id="m75d6c9d8c7" d="M 0 0 
L -3.5 0 
" style="stroke: #000000; stroke-width: 0.8"/>
      </defs>
      <g>
       <use xlink:href="#m75d6c9d8c7" x="57.6" y="280.887133" style="stroke: #000000; stroke-width: 0.8"/>
      </g>
     </g>
     <g id="text_8">
      <!-- 0.95 -->
      <g transform="translate(28.334375 284.686352) scale(0.1 -0.1)">
       <defs>
        <path id="DejaVuSans-2e" d="M 684 794 
L 1344 794 
L 1344 0 
L 684 0 
L 684 794 
z
" transform="scale(0.015625)"/>
        <path id="DejaVuSans-39" d="M 703 97 
L 703 672 
Q 941 559 1184 500 
Q 1428 441 1663 441 
Q 2288 441 2617 861 
Q 2947 1281 2994 2138 
Q 2813 1869 2534 1725 
Q 2256 1581 1919 1581 
Q 1219 1581 811 2004 
Q 403 2428 403 3163 
Q 403 3881 828 4315 
Q 1253 4750 1959 4750 
Q 2769 4750 3195 4129 
Q 3622 3509 3622 2328 
Q 3622 1225 3098 567 
Q 2575 -91 1691 -91 
Q 1453 -91 1209 -44 
Q 966 3 703 97 
z
M 1959 2075 
Q 2384 2075 2632 2365 
Q 2881 2656 2881 3163 
Q 2881 3666 2632 3958 
Q 2384 4250 1959 4250 
Q 1534 4250 1286 3958 
Q 1038 3666 1038 3163 
Q 1038 2656 1286 2365 
Q 1534 2075 1959 2075 
z
" transform="scale(0.015625)"/>
       </defs>
       <use xlink:href="#DejaVuSans-30"/>
       <use xlink:href="#DejaVuSans-2e" x="63.623047"/>
       <use xlink:href="#DejaVuSans-39" x="95.410156"/>
       <use xlink:href="#DejaVuSans-35" x="159.033203"/>
      </g>
     </g>
    </g>
    <g id="ytick_2">
     <g id="line2d_9">
      <g>
       <use xlink:href="#m75d6c9d8c7" x="57.6" y="240.807769" style="stroke: #000000; stroke-width: 0.8"/>
      </g>
     </g>
     <g id="text_9">
      <!-- 1.00 -->
      <g transform="translate(28.334375 244.606988) scale(0.1 -0.1)">
       <use xlink:href="#DejaVuSans-31"/>
       <use xlink:href="#DejaVuSans-2e" x="63.623047"/>
       <use xlink:href="#DejaVuSans-30" x="95.410156"/>
       <use xlink:href="#DejaVuSans-30" x="159.033203"/>
      </g>
     </g>
    </g>
    <g id="ytick_3">
     <g id="line2d_10">
      <g>
       <use xlink:href="#m75d6c9d8c7" x="57.6" y="200.728406" style="stroke: #000000; stroke-width: 0.8"/>
      </g>
     </g>
     <g id="text_10">
      <!-- 1.05 -->
      <g transform="translate(28.334375 204.527624) scale(0.1 -0.1)">
       <use xlink:href="#DejaVuSans-31"/>
       <use xlink:href="#DejaVuSans-2e" x="63.623047"/>
       <use xlink:href="#DejaVuSans-30" x="95.410156"/>
       <use xlink:href="#DejaVuSans-35" x="159.033203"/>
      </g>
     </g>
    </g>
    <g id="ytick_4">
     <g id="line2d_11">
      <g>
       <use xlink:href="#m75d6c9d8c7" x="57.6" y="160.649042" style="stroke: #000000; stroke-width: 0.8"/>
      </g>
     </g>
     <g id="text_11">
      <!-- 1.10 -->
      <g transform="translate(28.334375 164.448261) scale(0.1 -0.1)">
       <use xlink:href="#DejaVuSans-31"/>
       <use xlink:href="#DejaVuSans-2e" x="63.623047"/>
       <use xlink:href="#DejaVuSans-31" x="95.410156"/>
       <use xlink:href="#DejaVuSans-30" x="159.033203"/>
      </g>
     </g>
    </g>
    <g id="ytick_5">
     <g id="line2d_12">
      <g>
       <use xlink:href="#m75d6c9d8c7" x="57.6" y="120.569678" style="stroke: #000000; stroke-width: 0.8"/>
      </g>
     </g>
     <g id="text_12">
      <!-- 1.15 -->
      <g transform="translate(28.334375 124.368897) scale(0.1 -0.1)">
       <use xlink:href="#DejaVuSans-31"/>
       <use xlink:href="#DejaVuSans-2e" x="63.623047"/>
       <use xlink:href="#DejaVuSans-31" x="95.410156"/>
       <use xlink:href="#DejaVuSans-35" x="159.033203"/>
      </g>
     </g>
    </g>
    <g id="ytick_6">
     <g id="line2d_13">
      <g>
       <use xlink:href="#m75d6c9d8c7" x="57.6" y="80.490315" style="stroke: #000000; stroke-width: 0.8"/>
      </g>
     </g>
     <g id="text_13">
      <!-- 1.20 -->
      <g transform="translate(28.334375 84.289534) scale(0.1 -0.1)">
       <use xlink:href="#DejaVuSans-31"/>
       <use xlink:href="#DejaVuSans-2e" x="63.623047"/>
       <use xlink:href="#DejaVuSans-32" x="95.410156"/>
       <use xlink:href="#DejaVuSans-30" x="159.033203"/>
      </g>
     </g>
    </g>
   </g>
   <g id="line2d_14">
    <path d="M 73.832727 198.618965 
L 73.833419 198.618966 
L 73.943803 198.47448 
L 74.036233 197.694747 
L 74.164665 194.210267 
L 74.351094 181.797399 
L 74.748418 150.543433 
L 74.797936 151.307855 
L 74.908916 158.137744 
L 75.169245 191.313874 
L 75.902791 284.383863 
L 76.165228 295.399411 
L 76.189748 295.487958 
L 76.237533 295.111377 
L 76.335324 291.789261 
L 76.48714 277.697811 
L 76.660776 237.899433 
L 76.831668 138.307242 
L 76.998179 53.568 
L 77.041251 57.681147 
L 77.231965 110.333283 
L 77.614545 186.519842 
L 78.020615 226.021949 
L 78.360604 241.746809 
L 78.461123 242.802115 
L 78.509789 242.521307 
L 78.60765 240.076975 
L 78.763059 229.592326 
L 78.965884 198.347753 
L 79.350914 126.488008 
L 79.405286 128.092861 
L 79.551261 142.510207 
L 80.236742 213.932829 
L 80.838018 252.341527 
L 81.020546 255.979528 
L 81.045491 255.896843 
L 81.117338 254.668409 
L 81.246667 247.873007 
L 81.420201 225.074365 
L 81.632744 162.456022 
L 81.862005 107.432271 
L 81.88693 108.021378 
L 81.975136 117.232288 
L 82.813985 224.677747 
L 83.245436 248.292928 
L 83.418864 251.191959 
L 83.446323 251.105756 
L 83.521517 249.911422 
L 83.654766 243.525703 
L 83.833609 222.474037 
L 84.060945 164.498008 
L 84.300977 117.341987 
L 84.319001 117.587027 
L 84.389852 122.494089 
L 84.692526 165.641886 
L 85.146621 212.593823 
L 85.698137 247.338992 
L 85.942068 253.035844 
L 85.94458 253.035042 
L 85.977651 252.88083 
L 86.061772 251.145637 
L 86.202411 242.737167 
L 86.38435 216.325992 
L 86.640308 138.748176 
L 86.802052 112.312095 
L 86.83364 113.144524 
L 86.935846 124.076984 
L 87.709333 220.980733 
L 88.175448 248.698792 
L 88.37955 252.710633 
L 88.396359 252.677313 
L 88.456644 251.98384 
L 88.574767 247.520165 
L 88.742687 231.275933 
L 88.947214 186.323136 
L 89.253836 114.875335 
L 89.290752 115.945285 
L 89.404902 128.476173 
L 90.098073 213.368916 
L 90.624821 246.527705 
L 90.876411 252.482377 
L 90.902584 252.406927 
L 90.907253 252.376005 
L 90.985057 251.001909 
L 91.120102 243.887045 
L 91.299089 220.715802 
L 91.529109 156.213271 
L 91.743449 113.603759 
L 91.764653 113.979533 
L 91.843681 120.595002 
L 92.917636 238.633287 
L 93.263222 252.382223 
L 93.333077 252.90634 
L 93.386508 252.561326 
L 93.487371 249.763517 
L 93.642172 238.14929 
L 93.834683 204.247499 
L 94.204539 114.235994 
L 94.284559 118.844762 
L 94.540509 157.159314 
L 94.994515 209.414239 
L 95.516213 244.314475 
L 95.797478 252.437722 
L 95.819287 252.486928 
L 95.864849 252.228278 
L 95.959642 249.875753 
L 96.109284 239.584861 
L 96.297826 208.80723 
L 96.686445 113.93479 
L 96.784101 120.536329 
L 97.895596 240.207268 
L 98.225703 252.499092 
L 98.283135 252.856571 
L 98.337302 252.500565 
L 98.438924 249.638813 
L 98.594486 237.798388 
L 98.787331 203.357522 
L 99.15338 114.075035 
L 99.230766 118.416655 
L 99.471424 154.376003 
L 99.931257 208.640708 
L 100.448718 243.843984 
L 100.73679 252.494374 
L 100.762879 252.567014 
L 100.810949 252.282601 
L 100.907535 249.798843 
L 101.058922 239.092697 
L 101.248706 207.335261 
L 101.631315 114.01307 
L 101.722761 119.897327 
L 102.087129 174.438587 
L 102.539936 219.861535 
L 103.026149 248.72317 
L 103.231146 252.793289 
L 103.247977 252.760403 
L 103.307987 252.068422 
L 103.425923 247.582041 
L 103.593341 231.232159 
L 103.796954 185.942975 
L 104.101142 114.035964 
L 104.138673 115.14889 
L 104.25401 128.128539 
L 104.94168 214.05155 
L 105.451464 246.542725 
L 105.704645 252.627017 
L 105.714666 252.621882 
L 105.73797 252.518043 
L 105.816432 251.123889 
L 105.952079 243.968005 
L 106.131634 220.759778 
L 106.362579 156.263604 
L 106.576941 114.028457 
L 106.597829 114.390773 
L 106.67625 120.843376 
L 107.760622 238.380725 
L 108.109336 252.233368 
L 108.178861 252.75158 
L 108.232317 252.403813 
L 108.333235 249.589798 
L 108.488122 237.89925 
L 108.680353 203.834061 
L 109.048532 114.027348 
L 109.127547 118.557178 
L 109.377296 156.08164 
L 109.835178 209.631777 
L 110.349805 244.417295 
L 110.631736 252.611254 
L 110.654255 252.663555 
L 110.700165 252.401062 
L 110.795291 250.031013 
L 110.945595 239.663478 
L 111.134758 208.688426 
L 111.52294 114.029852 
L 111.619301 120.489218 
L 112.740768 240.254974 
L 113.070234 252.393754 
L 113.125895 252.727986 
L 113.179712 252.374228 
L 113.280995 249.529996 
L 113.436241 237.740905 
L 113.628798 203.418976 
L 113.995247 114.026036 
L 114.073281 118.44056 
L 114.316938 154.97021 
L 114.776758 209.213744 
L 115.290961 244.191554 
L 115.575609 252.61859 
L 115.600269 252.682663 
L 115.647617 252.405515 
L 115.743828 249.956459 
L 115.894837 239.367469 
L 116.084276 207.925833 
L 116.469287 114.029008 
L 116.562701 120.152522 
L 117.722381 242.131598 
L 118.031525 252.531875 
L 118.072589 252.715389 
L 118.125327 252.376307 
L 118.225885 249.597816 
L 118.380428 238.012225 
L 118.572352 204.205075 
L 118.941951 114.026265 
L 119.022274 118.681264 
L 119.27878 157.315195 
L 119.735048 210.234266 
L 120.24844 244.733864 
L 120.526614 252.650714 
L 120.54699 252.692317 
L 120.591464 252.44391 
L 120.6855 250.151581 
L 120.834732 240.042667 
L 121.023264 209.671971 
L 121.415644 114.02822 
L 121.515937 120.96567 
L 122.586244 237.488779 
L 122.943371 252.096125 
L 123.019291 252.708839 
L 123.072029 252.368622 
L 123.172589 249.587375 
L 123.327132 237.995228 
L 123.519055 204.174084 
L 123.888649 114.026656 
L 123.968973 118.692712 
L 124.226154 157.436641 
L 124.682088 210.282167 
L 125.195494 244.767864 
L 125.473329 252.656811 
L 125.493348 252.697211 
L 125.537821 252.449586 
L 125.631857 250.159308 
L 125.781088 240.055282 
L 125.96927 209.776631 
L 126.362006 114.027746 
L 126.462626 120.994756 
L 127.529847 237.3107 
L 127.888656 252.072582 
L 127.96564 252.705518 
L 128.018377 252.368073 
L 128.118936 249.593329 
L 128.273481 238.015281 
L 128.46541 204.221545 
L 128.835018 114.026927 
L 128.915669 118.708318 
L 129.173863 157.61517 
L 129.629811 210.387428 
L 130.142895 244.814131 
L 130.420042 252.660267 
L 130.439704 252.699664 
L 130.484176 252.453274 
L 130.57785 250.180145 
L 130.726724 240.141998 
L 130.914924 209.968352 
L 131.30837 114.027503 
L 131.409972 121.100538 
L 132.466571 236.721785 
L 132.831104 252.00412 
L 132.912348 252.703821 
L 132.964367 252.373441 
L 133.064202 249.646528 
L 133.218037 238.232914 
L 133.409666 204.790739 
L 133.781712 114.027083 
L 133.863999 118.899474 
L 134.133365 159.58828 
L 134.58674 211.275598 
L 135.099338 245.280045 
L 135.370682 252.676978 
L 135.386415 252.700814 
L 135.427655 252.486631 
L 135.51879 250.390538 
L 135.665529 240.902417 
L 135.852141 212.075906 
L 136.255061 114.027391 
L 136.365188 122.192585 
L 137.327119 231.282793 
L 137.740271 251.252912 
L 137.858699 252.702991 
L 137.903169 252.464372 
L 137.996479 250.224941 
L 138.144997 240.28963 
L 138.332877 210.376992 
L 138.728079 114.027167 
L 138.83132 121.30008 
L 139.868745 235.647023 
L 140.243361 251.870511 
L 140.332053 252.70156 
L 140.382993 252.386085 
L 140.482102 249.725338 
L 140.63559 238.476921 
L 140.826924 205.419194 
L 141.201427 114.027312 
L 141.286003 119.138519 
L 141.571294 162.301401 
L 142.022134 212.590232 
L 142.532972 245.912622 
L 142.795753 252.692907 
L 142.807199 252.702006 
L 142.842335 252.537023 
L 142.928398 250.748062 
L 143.070851 242.248252 
L 143.25459 215.81035 
L 143.520901 136.999093 
L 143.674772 114.027216 
L 143.70806 114.921198 
L 143.814135 126.178107 
L 144.564712 218.177653 
L 145.060093 248.145615 
L 145.278406 252.701865 
L 145.290221 252.685209 
L 145.342294 252.20345 
L 145.451191 248.677214 
L 145.61205 234.952919 
L 145.809234 195.991491 
L 146.147792 114.027297 
L 146.204911 116.50007 
L 146.369498 138.939117 
L 146.897577 206.439076 
L 147.410561 242.585752 
L 147.714262 252.548453 
L 147.75212 252.702321 
L 147.80378 252.373651 
L 147.903615 249.650686 
L 148.057451 238.245679 
L 148.249083 204.82039 
L 148.621138 114.027229 
L 148.703751 118.922485 
L 148.974473 159.825418 
L 149.427524 211.383074 
L 149.939801 245.325202 
L 150.210456 252.678898 
L 150.22619 252.701775 
L 150.266712 252.492252 
L 150.357124 250.434428 
L 150.503507 241.050743 
L 150.689799 212.487681 
L 151.094485 114.027268 
L 151.20658 122.434977 
L 152.150101 230.179445 
L 152.572267 251.071515 
L 152.698114 252.702263 
L 152.740786 252.484012 
L 152.832284 250.364509 
L 152.979379 240.797242 
L 153.166319 211.758709 
L 153.567831 114.027258 
L 153.676646 122.026509 
L 154.65154 232.047157 
L 155.058344 251.373016 
L 155.171469 252.702084 
L 155.217376 252.447756 
L 155.311774 250.127035 
L 155.46136 239.927728 
L 155.649862 209.404588 
L 156.040851 114.027264 
L 156.14016 120.81914 
L 157.224869 238.247408 
L 157.574587 252.17401 
L 157.644824 252.702201 
L 157.697922 252.358847 
L 157.798844 249.554424 
L 157.953743 237.880978 
L 158.145994 203.84089 
L 158.514197 114.027244 
L 158.593539 118.581769 
L 158.844629 156.337888 
L 159.302515 209.843878 
L 159.816173 244.544148 
L 160.096733 252.652354 
L 160.118537 252.702056 
L 160.164447 252.441398 
L 160.259569 250.07641 
L 160.409508 239.75975 
L 160.598324 208.946899 
L 160.987543 114.027262 
L 161.084888 120.606004 
L 162.192256 239.448514 
L 162.529826 252.294696 
L 162.591177 252.702185 
L 162.644993 252.351359 
L 162.746278 249.51364 
L 162.90153 237.736928 
L 163.094098 203.435325 
L 163.460563 114.027262 
L 163.538597 118.431842 
L 163.78191 154.908095 
L 164.242056 209.241083 
L 164.755931 244.219087 
L 165.040587 252.639161 
L 165.065248 252.702033 
L 165.112236 252.426575 
L 165.208446 249.981751 
L 165.359452 239.403458 
L 165.54889 207.98613 
L 165.933909 114.027252 
L 166.027651 120.165278 
L 167.185258 241.993949 
L 167.495755 252.50919 
L 167.537887 252.70216 
L 167.590626 252.362887 
L 167.691185 249.58379 
L 167.84573 237.995912 
L 168.037656 204.182242 
L 168.407256 114.027249 
L 168.487579 118.689041 
L 168.744421 157.38031 
L 169.200689 210.287647 
L 169.7141 244.777883 
L 169.991939 252.662148 
L 170.011958 252.701992 
L 170.056072 252.456998 
L 170.149745 250.18724 
L 170.298619 240.156776 
L 170.486822 209.998973 
L 170.880602 114.027267 
L 170.982206 121.125774 
L 172.036063 236.564389 
L 172.402288 251.987374 
L 172.48424 252.702166 
L 172.536258 252.374217 
L 172.636093 249.653052 
L 172.789929 238.252002 
L 172.981563 204.834543 
L 173.353622 114.027254 
L 173.436235 118.916803 
L 173.706617 159.766351 
L 174.159664 211.349799 
L 174.671933 245.306911 
L 174.942935 252.678871 
L 174.958669 252.701937 
L 174.999549 252.489271 
L 175.090324 250.410187 
L 175.237064 240.952148 
L 175.423686 212.186814 
L 175.826968 114.027248 
L 175.937751 122.259493 
L 176.894567 230.976286 
L 177.310045 251.198116 
L 177.430592 252.702169 
L 177.474702 252.46933 
L 177.567288 250.272012 
L 177.715452 240.449439 
L 177.903017 210.817101 
L 178.300314 114.027254 
L 178.405195 121.524473 
L 179.422097 234.484883 
L 179.80746 251.721442 
L 179.903948 252.702162 
L 179.953449 252.406364 
L 180.051109 249.85335 
L 180.203176 238.959183 
L 180.393567 206.745086 
L 180.773334 114.027263 
L 180.862819 119.666778 
L 181.195286 169.751657 
L 181.644845 216.709419 
L 182.145696 247.63137 
L 182.377303 252.702161 
L 182.383746 252.696965 
L 182.425367 252.422398 
L 182.521939 249.952693 
L 182.6733 239.290822 
L 182.863064 207.651491 
L 183.24668 114.027247 
L 183.339439 120.051115 
L 183.741278 179.364014 
L 184.198718 222.875758 
L 184.671264 249.536029 
L 184.8503 252.702167 
L 184.876455 252.621752 
L 184.949846 251.458477 
L 185.080802 245.128404 
L 185.257381 223.964346 
L 185.477375 165.866182 
L 185.720027 114.027247 
L 185.740915 114.387734 
L 185.819009 120.796077 
L 186.90612 238.376053 
L 187.254485 252.186457 
L 187.324013 252.702144 
L 187.377112 252.356856 
L 187.478034 249.54788 
L 187.632932 237.864393 
L 187.825179 203.804445 
L 188.193373 114.027262 
L 188.272388 118.561743 
L 188.522463 156.151476 
L 188.980674 209.767819 
L 189.494316 244.501195 
L 189.775565 252.651411 
L 189.797726 252.702069 
L 189.843636 252.439738 
L 189.938759 250.070531 
L 190.089057 239.707505 
L 190.278212 208.74755 
L 190.666393 114.027252 
L 190.763081 120.50535 
L 191.881447 240.019746 
L 192.213281 252.350049 
L 192.270366 252.70216 
L 192.324183 252.349367 
L 192.425468 249.507056 
L 192.580719 237.720222 
L 192.773284 203.398621 
L 193.139739 114.027243 
L 193.217446 118.412102 
L 193.459746 154.720305 
L 193.920556 209.194086 
L 194.434421 244.192378 
L 194.719419 252.63808 
L 194.744079 252.702102 
L 194.791426 252.424852 
L 194.887636 249.975748 
L 195.038642 239.387935 
L 195.228076 207.951538 
L 195.613085 114.02725 
L 195.706827 120.18103 
L 196.862366 241.891837 
L 197.173874 252.500729 
L 197.217076 252.702141 
L 197.269815 252.36094 
L 197.370375 249.577293 
L 197.524919 237.979383 
L 197.716842 204.145861 
L 198.086105 114.027259 
L 198.166428 118.668873 
L 198.422254 157.195058 
L 198.878848 210.211992 
L 199.392242 244.735327 
L 199.670413 252.659743 
L 199.690789 252.702062 
L 199.735621 252.451374 
L 199.829657 250.153527 
L 199.978887 240.032866 
L 200.167413 209.639866 
L 200.559451 114.027244 
L 200.659744 120.942752 
L 201.731763 237.561399 
L 202.088219 252.099345 
L 202.163429 252.702159 
L 202.216167 252.362973 
L 202.316727 249.584082 
L 202.471271 237.996657 
L 202.663198 204.183882 
L 203.032798 114.027243 
L 203.113121 118.688397 
L 203.369963 157.379354 
L 203.826231 210.287128 
L 204.339642 244.777611 
L 204.61748 252.662142 
L 204.6375 252.702013 
L 204.681614 252.457088 
L 204.775287 250.187507 
L 204.924161 240.157436 
L 205.112363 210.000432 
L 205.506144 114.027257 
L 205.607748 121.125052 
L 206.661949 236.584804 
L 207.027829 251.987269 
L 207.109781 252.702171 
L 207.1618 252.374308 
L 207.261634 249.653343 
L 207.415471 238.252735 
L 207.607105 204.836155 
L 207.979164 114.027247 
L 208.061777 118.916154 
L 208.332159 159.765418 
L 208.785206 211.349286 
L 209.297475 245.30664 
L 209.568477 252.678867 
L 209.58421 252.701955 
L 209.625091 252.489353 
L 209.715865 250.41044 
L 209.862605 240.952787 
L 210.049228 212.188236 
L 210.45251 114.027239 
L 210.563293 122.258726 
L 211.520109 230.975881 
L 211.935587 251.197972 
L 212.056134 252.702178 
L 212.100243 252.46941 
L 212.192829 250.272271 
L 212.340994 240.4501 
L 212.528559 210.818574 
L 212.925856 114.027245 
L 213.030737 121.523719 
L 214.047639 234.484507 
L 214.433002 251.721331 
L 214.529489 252.702176 
L 214.57899 252.406458 
L 214.67665 249.853634 
L 214.828718 238.95989 
L 215.019109 206.746639 
L 215.398876 114.027255 
L 215.488361 119.666101 
L 215.820828 169.750806 
L 216.270387 216.708936 
L 216.771237 247.631128 
L 217.002844 252.702172 
L 217.009287 252.696987 
L 217.050908 252.422486 
L 217.14748 249.952971 
L 217.298842 239.291522 
L 217.488606 207.653035 
L 217.872223 114.027239 
L 217.964981 120.050416 
L 218.36648 179.320521 
L 218.823919 222.850131 
L 219.296806 249.535834 
L 219.475842 252.702181 
L 219.501997 252.621806 
L 219.575387 251.458661 
L 219.706344 245.128898 
L 219.882923 223.965489 
L 220.102917 165.868285 
L 220.345569 114.027238 
L 220.366457 114.387525 
L 220.444551 120.795353 
L 221.531662 238.3757 
L 221.880027 252.186376 
L 221.949555 252.702157 
L 222.002653 252.356955 
L 222.103575 249.548181 
L 222.258474 237.865139 
L 222.450721 203.806071 
L 222.818915 114.027251 
L 222.897931 118.561114 
L 223.147669 156.098544 
L 223.605875 209.737865 
L 224.11951 244.484254 
L 224.400749 252.649688 
L 224.423268 252.702084 
L 224.469178 252.439826 
L 224.564301 250.070804 
L 224.714599 239.708191 
L 224.903754 208.749067 
L 225.291935 114.027243 
L 225.388624 120.504634 
L 226.506989 240.019407 
L 226.838823 252.349983 
L 226.895907 252.702172 
L 226.949724 252.349467 
L 227.051009 249.507359 
L 227.206261 237.720973 
L 227.398826 203.400257 
L 227.765281 114.027234 
L 227.842988 118.411481 
L 228.085288 154.719347 
L 228.546098 209.193554 
L 229.059963 244.192084 
L 229.344961 252.638059 
L 229.369621 252.702116 
L 229.416968 252.424942 
L 229.513178 249.976026 
L 229.664183 239.388633 
L 229.853618 207.953075 
L 230.238628 114.02724 
L 230.332369 120.180326 
L 231.488253 241.909814 
L 231.799772 252.503971 
L 231.842618 252.702155 
L 231.895357 252.361039 
L 231.995917 249.577593 
L 232.150461 237.980127 
L 232.342384 204.147482 
L 232.711647 114.027252 
L 232.791971 118.668238 
L 233.047796 157.194112 
L 233.50439 210.211467 
L 234.017784 244.73504 
L 234.295955 252.659727 
L 234.316331 252.702076 
L 234.361163 252.451459 
L 234.455199 250.153795 
L 234.604429 240.033543 
L 234.792955 209.641367 
L 235.184994 114.027235 
L 235.285286 120.942018 
L 236.357305 237.561039 
L 236.713761 252.099256 
L 236.788971 252.702172 
L 236.841709 252.363071 
L 236.942268 249.584381 
L 237.096813 237.9974 
L 237.28874 204.185503 
L 237.65834 114.027234 
L 237.738664 118.687761 
L 237.995505 157.378408 
L 238.451773 210.286603 
L 238.965184 244.777323 
L 239.243022 252.662126 
L 239.263041 252.702027 
L 239.307155 252.457172 
L 239.400829 250.187773 
L 239.549703 240.158109 
L 239.737905 210.001926 
L 240.131686 114.027247 
L 240.23329 121.124311 
L 241.287491 236.584436 
L 241.653371 251.987171 
L 241.735323 252.702183 
L 241.787341 252.374404 
L 241.887176 249.653638 
L 242.041012 238.25347 
L 242.232647 204.837763 
L 242.604706 114.02724 
L 242.687319 118.915506 
L 242.957701 159.764487 
L 243.410748 211.348767 
L 243.923016 245.306358 
L 244.194019 252.678857 
L 244.209752 252.701968 
L 244.250633 252.489432 
L 244.341407 250.410693 
L 244.488147 240.953433 
L 244.67477 212.18968 
L 245.078052 114.027231 
L 245.188835 122.257948 
L 246.145651 230.975475 
L 246.561129 251.19783 
L 246.681676 252.702189 
L 246.725785 252.469491 
L 246.818371 250.272531 
L 246.966535 240.450763 
L 247.154101 210.82005 
L 247.551399 114.027237 
L 247.65628 121.522964 
L 248.673524 234.505692 
L 249.058543 251.721215 
L 249.155031 252.702187 
L 249.204532 252.406548 
L 249.302192 249.853918 
L 249.454259 238.960602 
L 249.644651 206.748206 
L 250.024419 114.027249 
L 250.113903 119.665418 
L 250.446032 169.702921 
L 250.895588 216.681381 
L 251.39643 247.616951 
L 251.628386 252.702183 
L 251.634829 252.697007 
L 251.67645 252.422574 
L 251.773022 249.953249 
L 251.924383 239.292223 
L 252.114147 207.654582 
L 252.497765 114.027233 
L 252.590524 120.049717 
L 252.991682 179.277003 
L 253.44912 222.824489 
L 253.921997 249.524093 
L 254.101384 252.702191 
L 254.12718 252.62407 
L 254.199848 251.486926 
L 254.330444 245.234893 
L 254.50669 224.276672 
L 254.725723 166.793258 
L 254.971111 114.027231 
L 254.991999 114.387317 
L 255.070093 120.794624 
L 256.157549 238.395381 
L 256.505924 252.191431 
L 256.575097 252.702166 
L 256.628195 252.35705 
L 256.729117 249.548479 
L 256.884016 237.865885 
L 257.076263 203.807702 
L 257.444458 114.027244 
L 257.523473 118.560485 
L 257.773211 156.09759 
L 258.231417 209.737332 
L 258.745052 244.483958 
L 259.026291 252.649665 
L 259.04881 252.702094 
L 259.09472 252.43991 
L 259.189842 250.071074 
L 259.34014 239.708877 
L 259.529296 208.75059 
L 259.917477 114.027238 
L 260.014166 120.503917 
L 261.132876 240.038342 
L 261.464365 252.349912 
L 261.521449 252.702181 
L 261.575266 252.349563 
L 261.676551 249.507659 
L 261.831803 237.721722 
L 262.024368 203.401896 
L 262.390824 114.027229 
L 262.468531 118.410861 
L 262.710494 154.666011 
L 263.171299 209.163379 
L 263.685158 244.174912 
L 263.970145 252.63612 
L 263.995162 252.702124 
L 264.042869 252.420779 
L 264.139441 249.947067 
L 264.290802 239.276285 
L 264.480563 207.619108 
L 264.86417 114.027235 
L 264.956602 120.027874 
L 265.350954 178.393134 
L 265.807338 222.228409 
L 266.283495 249.3657 
L 266.467802 252.702189 
L 266.491805 252.633799 
L 266.562302 251.583165 
L 266.690734 245.662647 
L 266.865294 225.5889 
L 267.080835 170.536842 
L 267.33719 114.027249 
L 267.35971 114.437498 
L 267.441086 121.371387 
L 268.472011 235.28288 
L 268.849984 251.824416 
L 268.941157 252.702184 
L 268.991737 252.392035 
L 269.090484 249.759288 
L 269.243617 238.602003 
L 269.434628 205.781835 
L 269.810536 114.027232 
L 269.896421 119.274718 
L 270.191886 163.980171 
L 270.641811 213.460677 
L 271.151137 246.308551 
L 271.408789 252.698903 
L 271.417733 252.700718 
L 271.447128 252.573768 
L 271.528483 251.039523 
L 271.666994 243.377284 
L 271.848157 218.970644 
L 272.088193 150.072936 
L 272.283882 114.02723 
L 272.307381 114.480262 
L 272.391386 121.845571 
L 273.380957 232.907721 
L 273.780401 251.502387 
L 273.88751 252.70219 
L 273.934854 252.432847 
L 274.03034 250.032256 
L 274.180992 239.57126 
L 274.370117 208.44338 
L 274.757229 114.027243 
L 274.852608 120.376526 
L 275.985419 240.758395 
L 276.309475 252.414491 
L 276.361223 252.702155 
L 276.414681 252.35097 
L 276.515966 249.512339 
L 276.671218 237.733614 
L 276.863786 203.428033 
L 277.230249 114.027239 
L 277.308282 118.434583 
L 277.551597 154.912389 
L 278.011742 209.243565 
L 278.525618 244.220544 
L 278.810275 252.639364 
L 278.834578 252.702141 
L 278.881925 252.426266 
L 278.978135 249.980576 
L 279.12914 239.400356 
L 279.318578 207.979172 
L 279.703595 114.027229 
L 279.797336 120.16844 
L 280.954599 241.97722 
L 281.265443 252.509471 
L 281.307576 252.702172 
L 281.360314 252.362514 
L 281.460874 249.582508 
L 281.615418 237.992626 
L 281.807344 204.174988 
L 282.176941 114.027235 
L 282.257265 118.691858 
L 282.514444 157.436169 
L 282.970376 210.290094 
L 283.483788 244.779289 
L 283.761627 252.662309 
L 283.781289 252.702105 
L 283.825761 252.456702 
L 283.919434 250.186114 
L 284.068308 240.153793 
L 284.256509 209.992246 
L 284.649961 114.02725 
L 284.751891 121.129092 
L 285.805406 236.545331 
L 286.171621 251.981885 
L 286.253928 252.702183 
L 286.305947 252.373854 
L 286.405781 249.651787 
L 286.559618 238.248747 
L 286.751251 204.827336 
L 287.123307 114.027233 
L 287.205921 118.91968 
L 287.476641 159.821396 
L 287.929692 211.381063 
L 288.441968 245.324307 
L 288.712623 252.678996 
L 288.728357 252.701956 
L 288.769238 252.488993 
L 288.860012 250.409117 
L 289.006752 240.949289 
L 289.193374 212.180328 
L 289.596654 114.027231 
L 289.707437 122.262975 
L 290.663911 230.95544 
L 291.079733 251.19883 
L 291.200281 252.702188 
L 291.24439 252.46903 
L 291.336976 250.270901 
L 291.48514 240.446507 
L 291.672705 210.810489 
L 292.07 114.027243 
L 292.174881 121.527838 
L 293.191441 234.465121 
L 293.577148 251.722041 
L 293.673636 252.702184 
L 293.723137 252.406024 
L 293.820797 249.852133 
L 293.972865 238.956024 
L 294.163255 206.738044 
L 294.54302 114.027241 
L 294.632505 119.669825 
L 294.965312 169.80256 
L 295.414873 216.738735 
L 295.915383 247.632543 
L 296.146633 252.702188 
L 296.153434 252.696938 
L 296.195055 252.422065 
L 296.291627 249.951499 
L 296.442989 239.287714 
L 296.632752 207.644549 
L 297.016366 114.027232 
L 297.108798 120.01645 
L 297.500088 177.990792 
L 297.955775 221.941175 
L 298.433577 249.291101 
L 298.619989 252.702187 
L 298.643274 252.638438 
L 298.712686 251.629781 
L 298.840035 245.871179 
L 299.013927 226.200836 
L 299.227882 172.283871 
L 299.489712 114.027237 
L 299.512885 114.469637 
L 299.596232 121.726947 
L 300.595707 233.483085 
L 300.990128 251.585443 
L 301.093344 252.702184 
L 301.141407 252.423894 
L 301.237618 249.972415 
L 301.388622 239.379319 
L 301.578055 207.932336 
L 301.962732 114.027254 
L 302.056473 120.151684 
L 303.215804 242.07855 
L 303.52528 252.514476 
L 303.567057 252.702144 
L 303.619437 252.364578 
L 303.719996 249.589426 
L 303.874541 238.010247 
L 304.066471 204.213791 
L 304.436079 114.027236 
L 304.516729 118.711111 
L 304.774924 157.619736 
L 305.230871 210.394089 
L 305.743958 244.821332 
L 306.021108 252.663141 
L 306.04077 252.702055 
L 306.084883 252.458442 
L 306.178556 250.192237 
L 306.327431 240.169719 
L 306.515636 210.027962 
L 306.909425 114.027234 
L 307.011356 121.151546 
L 308.062816 236.432037 
L 308.430036 251.967133 
L 308.513052 252.702184 
L 308.565069 252.375881 
L 308.664904 249.658616 
L 308.818741 238.26617 
L 309.010378 204.865802 
L 309.382771 114.027246 
L 309.465385 118.939289 
L 309.737122 160.00224 
L 310.190187 211.483681 
L 310.702488 245.381271 
L 310.972462 252.680751 
L 310.98748 252.701999 
L 311.028001 252.494267 
L 311.118413 250.44124 
L 311.264796 241.0684 
L 311.451093 212.527362 
L 311.855791 114.027245 
L 311.968213 122.455832 
L 312.910372 230.098482 
L 313.333206 251.058222 
L 313.459762 252.702173 
L 313.502076 252.48586 
L 313.593212 250.38466 
L 313.73995 240.885116 
L 313.926557 212.035603 
L 314.329137 114.027235 
L 314.439264 122.172308 
L 315.402558 231.360309 
L 315.81504 251.263949 
L 315.93276 252.702182 
L 315.977587 252.461837 
L 316.070898 250.21806 
L 316.219416 240.272974 
L 316.407293 210.340477 
L 316.802484 114.02724 
L 316.905398 121.277852 
L 317.944876 235.763712 
L 318.318488 251.887141 
L 318.406115 252.702179 
L 318.457413 252.3844 
L 318.556523 249.7182 
L 318.71001 238.457754 
L 318.901339 205.376181 
L 319.27583 114.02726 
L 319.360079 119.120629 
L 319.644015 162.076138 
L 320.095181 212.489839 
L 320.605993 245.857111 
L 320.869813 252.692101 
L 320.881259 252.701704 
L 320.916754 252.535139 
L 321.002818 250.742117 
L 321.14527 242.233024 
L 321.329359 215.702347 
L 321.597324 136.373963 
L 321.74885 114.027241 
L 321.783117 114.963198 
L 321.890844 126.532595 
L 322.62889 217.388998 
L 323.127161 247.868825 
L 323.352467 252.702179 
L 323.361775 252.69218 
L 323.40844 252.324572 
L 323.511175 249.360448 
L 323.667482 237.225813 
L 323.860985 202.044643 
L 324.222196 114.027238 
L 324.295652 117.98693 
L 324.517696 150.867484 
L 324.987331 207.821632 
L 325.500917 243.405674 
L 325.795099 252.597321 
L 325.826538 252.702104 
L 325.876402 252.394076 
L 325.974787 249.781426 
L 326.127564 238.697612 
L 326.318246 206.079617 
L 326.695542 114.02725 
L 326.78241 119.402588 
L 327.088392 165.673317 
L 327.537737 214.371058 
L 328.044873 246.692483 
L 328.297031 252.70174 
L 328.30956 252.689226 
L 328.328922 252.5966 
L 328.406656 251.236614 
L 328.541933 244.180848 
L 328.721147 221.236812 
L 328.95046 157.61426 
L 329.168562 114.02725 
L 329.18945 114.382203 
L 329.267216 120.736866 
L 330.360505 238.705497 
L 330.705849 252.224409 
L 330.772533 252.702167 
L 330.82599 252.354504 
L 330.926913 249.540029 
L 331.08181 237.844419 
L 331.274053 203.760505 
L 331.641908 114.02724 
L 331.720924 118.544616 
L 331.969985 155.969261 
L 332.42852 209.694115 
L 332.942146 244.459482 
L 333.223728 252.648842 
L 333.246246 252.70211 
L 333.292515 252.437701 
L 333.387638 250.063447 
L 333.537935 239.689148 
L 333.727086 208.706527 
L 334.115255 114.027244 
L 334.211616 120.48579 
L 335.33239 240.144824 
L 335.66287 252.360725 
L 335.719243 252.702146 
L 335.773061 252.346985 
L 335.874708 249.483146 
L 336.029956 237.659526 
L 336.222507 203.265286 
L 336.588601 114.027264 
L 336.665981 118.395201 
L 336.907268 154.536721 
L 337.368402 209.119855 
L 337.882252 244.150115 
L 338.167582 252.635199 
L 338.192956 252.702068 
L 338.240304 252.422751 
L 338.336876 249.953898 
L 338.488238 239.293923 
L 338.678002 207.658387 
L 339.061621 114.027246 
L 339.15438 120.04801 
L 339.555197 179.232298 
L 340.012633 222.798131 
L 340.485851 249.52355 
L 340.665238 252.702173 
L 340.691034 252.624153 
L 340.763702 251.487332 
L 340.894298 245.23607 
L 341.070545 224.279462 
L 341.289578 166.798487 
L 341.534967 114.027242 
L 341.555855 114.38683 
L 341.633949 120.792845 
L 342.721404 238.394453 
L 343.069779 252.191181 
L 343.138951 252.702151 
L 343.192049 252.357249 
L 343.292971 249.549181 
L 343.44787 237.867697 
L 343.640118 203.81171 
L 344.008313 114.027253 
L 344.087329 118.558954 
L 344.337067 156.095232 
L 344.795272 209.735983 
L 345.308907 244.483183 
L 345.590146 252.649569 
L 345.612664 252.702079 
L 345.658933 252.435953 
L 345.754418 250.043054 
L 345.904713 239.636402 
L 346.093852 208.58874 
L 346.481333 114.027254 
L 346.577694 120.463397 
L 347.700874 240.268083 
L 348.029998 252.370933 
L 348.085304 252.702164 
L 348.13912 252.349763 
L 348.240405 249.508365 
L 348.395657 237.723544 
L 348.588223 203.405921 
L 348.95468 114.027242 
L 349.032714 118.442942 
L 349.276366 154.977682 
L 349.736518 209.280507 
L 350.250402 244.241541 
L 350.534714 252.639811 
L 350.559017 252.702109 
L 350.606364 252.4252 
L 350.702574 249.976944 
L 350.853579 239.391016 
L 351.043015 207.958394 
L 351.428026 114.027245 
L 351.521767 120.177907 
L 352.677997 241.926926 
L 352.989169 252.50375 
L 353.032014 252.702145 
L 353.084753 252.361327 
L 353.185313 249.578584 
L 353.339857 237.982667 
L 353.531781 204.153087 
L 353.901372 114.027263 
L 353.981369 118.666063 
L 354.236857 157.139147 
L 354.693447 210.180327 
L 355.206833 244.717496 
L 355.485351 252.659616 
L 355.505727 252.702069 
L 355.550559 252.451702 
L 355.644595 250.154676 
L 355.793825 240.035849 
L 355.982351 209.646549 
L 356.374392 114.027246 
L 356.474684 120.939499 
L 357.547046 237.580115 
L 357.903512 252.10442 
L 357.978367 252.70216 
L 358.031105 252.363357 
L 358.131664 249.585369 
L 358.286209 237.999935 
L 358.478137 204.191101 
L 358.847738 114.027242 
L 358.928062 118.685585 
L 359.184902 157.375126 
L 359.641171 210.284733 
L 360.154581 244.776262 
L 360.432418 252.662016 
L 360.452438 252.702019 
L 360.496552 252.457411 
L 360.590225 250.188645 
L 360.739099 240.160398 
L 360.927302 210.007076 
L 361.321085 114.027252 
L 361.422688 121.121771 
L 362.476888 236.583099 
L 362.842767 251.986775 
L 362.924719 252.70217 
L 362.976737 252.374683 
L 363.076572 249.654612 
L 363.230409 238.255974 
L 363.422043 204.843308 
L 363.794104 114.027254 
L 363.876717 118.913291 
L 364.147099 159.761254 
L 364.600145 211.346921 
L 365.112413 245.305322 
L 365.383415 252.678768 
L 365.399148 252.70196 
L 365.440029 252.489651 
L 365.530803 250.411518 
L 365.677543 240.955626 
L 365.864166 212.194649 
L 366.267451 114.027242 
L 366.378561 122.297437 
L 367.332308 230.791798 
L 367.749465 251.172025 
L 367.871072 252.702173 
L 367.914822 252.473564 
L 368.007045 250.300603 
L 368.154853 240.559673 
L 368.342091 211.144751 
L 368.740797 114.027245 
L 368.847317 121.725467 
L 369.846791 233.482279 
L 370.241211 251.585164 
L 370.344427 252.702171 
L 370.39249 252.424035 
L 370.488701 249.97293 
L 370.639706 239.380665 
L 370.829139 207.935349 
L 371.214143 114.027263 
L 371.307558 120.150318 
L 372.466888 242.077879 
L 372.776363 252.514348 
L 372.81814 252.702133 
L 372.87052 252.364735 
L 372.971079 249.589982 
L 373.125624 238.011681 
L 373.317555 204.216964 
L 373.687163 114.027247 
L 373.767813 118.709876 
L 374.026008 157.617875 
L 374.481955 210.393025 
L 374.995042 244.820726 
L 375.272191 252.663075 
L 375.291853 252.702046 
L 375.335967 252.458573 
L 375.429639 250.192728 
L 375.578514 240.171015 
L 375.766719 210.030882 
L 376.160509 114.027242 
L 376.26244 121.150104 
L 377.3139 236.431272 
L 377.68112 251.966902 
L 377.764135 252.702173 
L 377.816152 252.376036 
L 377.915987 249.659166 
L 378.069824 238.267589 
L 378.261461 204.868949 
L 378.633856 114.027252 
L 378.716469 118.93803 
L 378.988206 160.000407 
L 379.441271 211.482632 
L 379.953571 245.380683 
L 380.223545 252.680701 
L 380.238564 252.701992 
L 380.279084 252.494388 
L 380.369496 250.441704 
L 380.51588 241.069637 
L 380.702176 212.530169 
L 381.106875 114.027255 
L 381.219298 122.454305 
L 382.161456 230.097641 
L 382.58429 251.057897 
L 382.710845 252.702164 
L 382.753159 252.485985 
L 382.844295 250.385131 
L 382.991033 240.886366 
L 383.17764 212.038433 
L 383.580222 114.027243 
L 383.690348 122.170798 
L 384.653642 231.359483 
L 385.066124 251.263644 
L 385.183843 252.702173 
L 385.22867 252.461971 
L 385.321981 250.218551 
L 385.470499 240.274265 
L 385.658376 210.343386 
L 386.053568 114.027245 
L 386.156482 121.2764 
L 387.19596 235.762941 
L 387.569571 251.886903 
L 387.657198 252.702172 
L 387.708497 252.384557 
L 387.807607 249.718746 
L 387.961093 238.459164 
L 388.152423 205.379309 
L 388.526914 114.027262 
L 388.611164 119.11935 
L 388.895099 162.07433 
L 389.346265 212.488805 
L 389.857077 245.856541 
L 390.120897 252.692066 
L 390.132342 252.701704 
L 390.167837 252.53525 
L 390.253901 250.742548 
L 390.396353 242.234185 
L 390.580442 215.705006 
L 390.848408 136.37744 
L 390.999934 114.027247 
L 391.034201 114.962581 
L 391.141928 126.530877 
L 391.879974 217.388023 
L 392.378244 247.868325 
L 392.603551 252.702173 
L 392.612858 252.692203 
L 392.659523 252.324746 
L 392.762258 249.361033 
L 392.918565 237.227302 
L 393.112069 202.047911 
L 393.47328 114.027242 
L 393.546737 117.985769 
L 393.76878 150.865562 
L 394.238414 207.820539 
L 394.752 243.40504 
L 395.046182 252.597229 
L 395.077621 252.702101 
L 395.127485 252.394232 
L 395.22587 249.781969 
L 395.378647 238.69901 
L 395.56933 206.082718 
L 395.946627 114.027251 
L 396.033494 119.401281 
L 396.339476 165.671558 
L 396.78882 214.37005 
L 397.295957 246.691942 
L 397.548114 252.701731 
L 397.560643 252.689253 
L 397.580005 252.596689 
L 397.657739 251.236982 
L 397.793017 244.181873 
L 397.97223 221.239199 
L 398.201544 157.618412 
L 398.419646 114.027256 
L 398.440535 114.381812 
L 398.487273 117.429132 
L 398.487273 117.429132 
" clip-path="url(#p6c0321391e)" style="fill: none; stroke: #1f77b4; stroke-width: 1.5; stroke-linecap: square"/>
   </g>
   <g id="line2d_15">
    <path d="M 73.832727 198.618965 
L 73.833419 198.618966 
L 73.943803 198.47448 
L 74.036233 197.694747 
L 74.164665 194.210267 
L 74.351094 181.797399 
L 74.748418 150.543433 
L 74.797936 151.307855 
L 74.908916 158.137744 
L 75.169245 191.313874 
L 75.902791 284.383863 
L 76.165228 295.399411 
L 76.189748 295.487958 
L 76.237533 295.111377 
L 76.335324 291.789261 
L 76.48714 277.697811 
L 76.660776 237.899433 
L 76.831668 138.307242 
L 76.998179 53.568 
L 77.041251 57.681147 
L 77.231965 110.333283 
L 77.614545 186.519842 
L 78.020615 226.021949 
L 78.360604 241.746809 
L 78.461123 242.802115 
L 78.509789 242.521307 
L 78.60765 240.076975 
L 78.763059 229.592326 
L 78.965884 198.347753 
L 79.350914 126.488008 
L 79.405286 128.092861 
L 79.551261 142.510207 
L 80.236742 213.932829 
L 80.838018 252.341527 
L 81.020546 255.979528 
L 81.045491 255.896843 
L 81.117338 254.668409 
L 81.246667 247.873007 
L 81.420201 225.074365 
L 81.632744 162.456022 
L 81.862005 107.432271 
L 81.88693 108.021378 
L 81.975136 117.232288 
L 82.813985 224.677747 
L 83.245436 248.292928 
L 83.418864 251.191959 
L 83.446323 251.105756 
L 83.521517 249.911422 
L 83.654766 243.525703 
L 83.833609 222.474037 
L 84.060945 164.498008 
L 84.300977 117.341987 
L 84.319001 117.587027 
L 84.389852 122.494089 
L 84.692526 165.641886 
L 85.146621 212.593823 
L 85.698137 247.338992 
L 85.942068 253.035844 
L 85.94458 253.035042 
L 85.977651 252.88083 
L 86.061772 251.145637 
L 86.202411 242.737167 
L 86.38435 216.325992 
L 86.640308 138.748176 
L 86.802052 112.312095 
L 86.83364 113.144524 
L 86.935846 124.076984 
L 87.709333 220.980733 
L 88.175448 248.698792 
L 88.37955 252.710633 
L 88.396359 252.677313 
L 88.456644 251.98384 
L 88.574767 247.520165 
L 88.742687 231.275933 
L 88.947214 186.323136 
L 89.253836 114.875335 
L 89.290752 115.945285 
L 89.404902 128.476173 
L 90.098073 213.368916 
L 90.624821 246.527705 
L 90.876411 252.482377 
L 90.902584 252.406927 
L 90.907253 252.376005 
L 90.985057 251.001909 
L 91.120102 243.887045 
L 91.299089 220.715802 
L 91.529109 156.213271 
L 91.743449 113.603759 
L 91.764653 113.979533 
L 91.843681 120.595002 
L 92.917636 238.633287 
L 93.263222 252.382223 
L 93.333077 252.90634 
L 93.386508 252.561326 
L 93.487371 249.763517 
L 93.642172 238.14929 
L 93.834683 204.247499 
L 94.204539 114.235994 
L 94.284559 118.844762 
L 94.540509 157.159314 
L 94.994515 209.414239 
L 95.516213 244.314475 
L 95.797478 252.437722 
L 95.819287 252.486928 
L 95.864849 252.228278 
L 95.959642 249.875753 
L 96.109284 239.584861 
L 96.297826 208.80723 
L 96.686445 113.93479 
L 96.784101 120.536329 
L 97.895596 240.207268 
L 98.225703 252.499092 
L 98.283135 252.856571 
L 98.337302 252.500565 
L 98.438924 249.638813 
L 98.594486 237.798388 
L 98.787331 203.357522 
L 99.15338 114.075035 
L 99.230766 118.416655 
L 99.471424 154.376003 
L 99.931257 208.640708 
L 100.448718 243.843984 
L 100.73679 252.494374 
L 100.762879 252.567014 
L 100.810949 252.282601 
L 100.907535 249.798843 
L 101.058922 239.092697 
L 101.248706 207.335261 
L 101.631315 114.01307 
L 101.722761 119.897327 
L 102.087129 174.438587 
L 102.539936 219.861535 
L 103.026149 248.72317 
L 103.231146 252.793289 
L 103.247977 252.760403 
L 103.307987 252.068422 
L 103.425923 247.582041 
L 103.593341 231.232159 
L 103.796954 185.942975 
L 104.101142 114.035964 
L 104.138673 115.14889 
L 104.25401 128.128539 
L 104.94168 214.05155 
L 105.451464 246.542725 
L 105.704645 252.627017 
L 105.714666 252.621882 
L 105.73797 252.518043 
L 105.816432 251.123889 
L 105.952079 243.968005 
L 106.131634 220.759778 
L 106.362579 156.263604 
L 106.576941 114.028457 
L 106.597829 114.390773 
L 106.67625 120.843376 
L 107.760622 238.380725 
L 108.109336 252.233368 
L 108.178861 252.75158 
L 108.232317 252.403813 
L 108.333235 249.589798 
L 108.488122 237.89925 
L 108.680353 203.834061 
L 109.048532 114.027348 
L 109.127547 118.557178 
L 109.377296 156.08164 
L 109.835178 209.631777 
L 110.349805 244.417295 
L 110.631736 252.611254 
L 110.654255 252.663555 
L 110.700165 252.401062 
L 110.795291 250.031013 
L 110.945595 239.663478 
L 111.134758 208.688426 
L 111.52294 114.029852 
L 111.619301 120.489218 
L 112.740768 240.254974 
L 113.070234 252.393754 
L 113.125895 252.727986 
L 113.179712 252.374228 
L 113.280995 249.529996 
L 113.436241 237.740905 
L 113.628798 203.418976 
L 113.995247 114.026036 
L 114.073281 118.44056 
L 114.316938 154.97021 
L 114.776758 209.213744 
L 115.290961 244.191554 
L 115.575609 252.61859 
L 115.600269 252.682663 
L 115.647617 252.405515 
L 115.743828 249.956459 
L 115.894837 239.367469 
L 116.084276 207.925833 
L 116.469287 114.029008 
L 116.562701 120.152522 
L 117.722381 242.131598 
L 118.031525 252.531875 
L 118.072589 252.715389 
L 118.125327 252.376307 
L 118.225885 249.597816 
L 118.380428 238.012225 
L 118.572352 204.205075 
L 118.941951 114.026265 
L 119.022274 118.681264 
L 119.27878 157.315195 
L 119.735048 210.234266 
L 120.24844 244.733864 
L 120.526614 252.650714 
L 120.54699 252.692317 
L 120.591464 252.44391 
L 120.6855 250.151581 
L 120.834732 240.042667 
L 121.023264 209.671971 
L 121.415644 114.02822 
L 121.515937 120.96567 
L 122.586244 237.488779 
L 122.943371 252.096125 
L 123.019291 252.708839 
L 123.072029 252.368622 
L 123.172589 249.587375 
L 123.327132 237.995228 
L 123.519055 204.174084 
L 123.888649 114.026656 
L 123.968973 118.692712 
L 124.226154 157.436641 
L 124.682088 210.282167 
L 125.195494 244.767864 
L 125.473329 252.656811 
L 125.493348 252.697211 
L 125.537821 252.449586 
L 125.631857 250.159308 
L 125.781088 240.055282 
L 125.96927 209.776631 
L 126.362006 114.027746 
L 126.462626 120.994756 
L 127.529847 237.3107 
L 127.888656 252.072582 
L 127.96564 252.705518 
L 128.018377 252.368073 
L 128.118936 249.593329 
L 128.273481 238.015281 
L 128.46541 204.221545 
L 128.835018 114.026927 
L 128.915669 118.708318 
L 129.173863 157.61517 
L 129.629811 210.387428 
L 130.142895 244.814131 
L 130.420042 252.660267 
L 130.439704 252.699664 
L 130.484176 252.453274 
L 130.57785 250.180145 
L 130.726724 240.141998 
L 130.914924 209.968352 
L 131.30837 114.027503 
L 131.409972 121.100538 
L 132.466571 236.721785 
L 132.831104 252.00412 
L 132.912348 252.703821 
L 132.964367 252.373441 
L 133.064202 249.646528 
L 133.218037 238.232914 
L 133.409666 204.790739 
L 133.781712 114.027083 
L 133.863999 118.899474 
L 134.133365 159.58828 
L 134.58674 211.275598 
L 135.099338 245.280045 
L 135.370682 252.676978 
L 135.386415 252.700814 
L 135.427655 252.486631 
L 135.51879 250.390538 
L 135.665529 240.902417 
L 135.852141 212.075906 
L 136.255061 114.027391 
L 136.365188 122.192585 
L 137.327119 231.282793 
L 137.740271 251.252912 
L 137.858699 252.702991 
L 137.903169 252.464372 
L 137.996479 250.224941 
L 138.144997 240.28963 
L 138.332877 210.376992 
L 138.728079 114.027167 
L 138.83132 121.30008 
L 139.868745 235.647023 
L 140.243361 251.870511 
L 140.332053 252.70156 
L 140.382993 252.386085 
L 140.482102 249.725338 
L 140.63559 238.476921 
L 140.826924 205.419194 
L 141.201427 114.027312 
L 141.286003 119.138519 
L 141.571294 162.301401 
L 142.022134 212.590232 
L 142.532972 245.912622 
L 142.795753 252.692907 
L 142.807199 252.702006 
L 142.842335 252.537023 
L 142.928398 250.748062 
L 143.070851 242.248252 
L 143.25459 215.81035 
L 143.520901 136.999093 
L 143.674772 114.027216 
L 143.70806 114.921198 
L 143.814135 126.178107 
L 144.564712 218.177653 
L 145.060093 248.145615 
L 145.278406 252.701865 
L 145.290221 252.685209 
L 145.342294 252.20345 
L 145.451191 248.677214 
L 145.61205 234.952919 
L 145.809234 195.991491 
L 146.147792 114.027297 
L 146.204911 116.50007 
L 146.369498 138.939117 
L 146.897577 206.439076 
L 147.410561 242.585752 
L 147.714262 252.548453 
L 147.75212 252.702321 
L 147.80378 252.373651 
L 147.903615 249.650686 
L 148.057451 238.245679 
L 148.249083 204.82039 
L 148.621138 114.027229 
L 148.703751 118.922485 
L 148.974473 159.825418 
L 149.427524 211.383074 
L 149.939801 245.325202 
L 150.210456 252.678898 
L 150.22619 252.701775 
L 150.266712 252.492252 
L 150.357124 250.434428 
L 150.503507 241.050743 
L 150.689799 212.487681 
L 151.094485 114.027268 
L 151.20658 122.434977 
L 152.150101 230.179445 
L 152.572267 251.071515 
L 152.698114 252.702263 
L 152.740786 252.484012 
L 152.832284 250.364509 
L 152.979379 240.797242 
L 153.166319 211.758709 
L 153.567831 114.027258 
L 153.676646 122.026509 
L 154.65154 232.047157 
L 155.058344 251.373016 
L 155.171469 252.702084 
L 155.217376 252.447756 
L 155.311774 250.127035 
L 155.46136 239.927728 
L 155.649862 209.404588 
L 156.040851 114.027264 
L 156.14016 120.81914 
L 157.224869 238.247408 
L 157.574587 252.17401 
L 157.644824 252.702201 
L 157.697922 252.358847 
L 157.798844 249.554424 
L 157.953743 237.880978 
L 158.145994 203.84089 
L 158.514197 114.027244 
L 158.593539 118.581769 
L 158.844629 156.337888 
L 159.302515 209.843878 
L 159.816173 244.544148 
L 160.096733 252.652354 
L 160.118537 252.702056 
L 160.164447 252.441398 
L 160.259569 250.07641 
L 160.409508 239.75975 
L 160.598324 208.946899 
L 160.987543 114.027262 
L 161.084888 120.606004 
L 162.192256 239.448514 
L 162.529826 252.294696 
L 162.591177 252.702185 
L 162.644993 252.351359 
L 162.746278 249.51364 
L 162.90153 237.736928 
L 163.094098 203.435325 
L 163.460563 114.027262 
L 163.538597 118.431842 
L 163.78191 154.908095 
L 164.242056 209.241083 
L 164.755931 244.219087 
L 165.040587 252.639161 
L 165.065248 252.702033 
L 165.112236 252.426575 
L 165.208446 249.981751 
L 165.359452 239.403458 
L 165.54889 207.98613 
L 165.933909 114.027252 
L 166.027651 120.165278 
L 167.185258 241.993949 
L 167.495755 252.50919 
L 167.537887 252.70216 
L 167.590626 252.362887 
L 167.691185 249.58379 
L 167.84573 237.995912 
L 168.037656 204.182242 
L 168.407256 114.027249 
L 168.487579 118.689041 
L 168.744421 157.38031 
L 169.200689 210.287647 
L 169.7141 244.777883 
L 169.991939 252.662148 
L 170.011958 252.701992 
L 170.056072 252.456998 
L 170.149745 250.18724 
L 170.298619 240.156776 
L 170.486822 209.998973 
L 170.880602 114.027267 
L 170.982206 121.125774 
L 172.036063 236.564389 
L 172.402288 251.987374 
L 172.48424 252.702166 
L 172.536258 252.374217 
L 172.636093 249.653052 
L 172.789929 238.252002 
L 172.981563 204.834543 
L 173.353622 114.027254 
L 173.436235 118.916803 
L 173.706617 159.766351 
L 174.159664 211.349799 
L 174.671933 245.306911 
L 174.942935 252.678871 
L 174.958669 252.701937 
L 174.999549 252.489271 
L 175.090324 250.410187 
L 175.237064 240.952148 
L 175.423686 212.186814 
L 175.826968 114.027248 
L 175.937751 122.259493 
L 176.894567 230.976286 
L 177.310045 251.198116 
L 177.430592 252.702169 
L 177.474702 252.46933 
L 177.567288 250.272012 
L 177.715452 240.449439 
L 177.903017 210.817101 
L 178.300314 114.027254 
L 178.405195 121.524473 
L 179.422097 234.484883 
L 179.80746 251.721442 
L 179.903948 252.702162 
L 179.953449 252.406364 
L 180.051109 249.85335 
L 180.203176 238.959183 
L 180.393567 206.745086 
L 180.773334 114.027263 
L 180.862819 119.666778 
L 181.195286 169.751657 
L 181.644845 216.709419 
L 182.145696 247.63137 
L 182.377303 252.702161 
L 182.383746 252.696965 
L 182.425367 252.422398 
L 182.521939 249.952693 
L 182.6733 239.290822 
L 182.863064 207.651491 
L 183.24668 114.027247 
L 183.339439 120.051115 
L 183.741278 179.364014 
L 184.198718 222.875758 
L 184.671264 249.536029 
L 184.8503 252.702167 
L 184.876455 252.621752 
L 184.949846 251.458477 
L 185.080802 245.128404 
L 185.257381 223.964346 
L 185.477375 165.866182 
L 185.720027 114.027247 
L 185.740915 114.387734 
L 185.819009 120.796077 
L 186.90612 238.376053 
L 187.254485 252.186457 
L 187.324013 252.702144 
L 187.377112 252.356856 
L 187.478034 249.54788 
L 187.632932 237.864393 
L 187.825179 203.804445 
L 188.193373 114.027262 
L 188.272388 118.561743 
L 188.522463 156.151476 
L 188.980674 209.767819 
L 189.494316 244.501195 
L 189.775565 252.651411 
L 189.797726 252.702069 
L 189.843636 252.439738 
L 189.938759 250.070531 
L 190.089057 239.707505 
L 190.278212 208.74755 
L 190.666393 114.027252 
L 190.763081 120.50535 
L 191.881447 240.019746 
L 192.213281 252.350049 
L 192.270366 252.70216 
L 192.324183 252.349367 
L 192.425468 249.507056 
L 192.580719 237.720222 
L 192.773284 203.398621 
L 193.139739 114.027243 
L 193.217446 118.412102 
L 193.459746 154.720305 
L 193.920556 209.194086 
L 194.434421 244.192378 
L 194.719419 252.63808 
L 194.744079 252.702102 
L 194.791426 252.424852 
L 194.887636 249.975748 
L 195.038642 239.387935 
L 195.228076 207.951538 
L 195.613085 114.02725 
L 195.706827 120.18103 
L 196.862366 241.891837 
L 197.173874 252.500729 
L 197.217076 252.702141 
L 197.269815 252.36094 
L 197.370375 249.577293 
L 197.524919 237.979383 
L 197.716842 204.145861 
L 198.086105 114.027259 
L 198.166428 118.668873 
L 198.422254 157.195058 
L 198.878848 210.211992 
L 199.392242 244.735327 
L 199.670413 252.659743 
L 199.690789 252.702062 
L 199.735621 252.451374 
L 199.829657 250.153527 
L 199.978887 240.032866 
L 200.167413 209.639866 
L 200.559451 114.027244 
L 200.659744 120.942752 
L 201.731763 237.561399 
L 202.088219 252.099345 
L 202.163429 252.702159 
L 202.216167 252.362973 
L 202.316727 249.584082 
L 202.471271 237.996657 
L 202.663198 204.183882 
L 203.032798 114.027243 
L 203.113121 118.688397 
L 203.369963 157.379354 
L 203.826231 210.287128 
L 204.339642 244.777611 
L 204.61748 252.662142 
L 204.6375 252.702013 
L 204.681614 252.457088 
L 204.775287 250.187507 
L 204.924161 240.157436 
L 205.112363 210.000432 
L 205.506144 114.027257 
L 205.607748 121.125052 
L 206.661949 236.584804 
L 207.027829 251.987269 
L 207.109781 252.702171 
L 207.1618 252.374308 
L 207.261634 249.653343 
L 207.415471 238.252735 
L 207.607105 204.836155 
L 207.979164 114.027247 
L 208.061777 118.916154 
L 208.332159 159.765418 
L 208.785206 211.349286 
L 209.297475 245.30664 
L 209.568477 252.678867 
L 209.58421 252.701955 
L 209.625091 252.489353 
L 209.715865 250.41044 
L 209.862605 240.952787 
L 210.049228 212.188236 
L 210.45251 114.027239 
L 210.563293 122.258726 
L 211.520109 230.975881 
L 211.935587 251.197972 
L 212.056134 252.702178 
L 212.100243 252.46941 
L 212.192829 250.272271 
L 212.340994 240.4501 
L 212.528559 210.818574 
L 212.925856 114.027245 
L 213.030737 121.523719 
L 214.047639 234.484507 
L 214.433002 251.721331 
L 214.529489 252.702176 
L 214.57899 252.406458 
L 214.67665 249.853634 
L 214.828718 238.95989 
L 215.019109 206.746639 
L 215.398876 114.027255 
L 215.488361 119.666101 
L 215.820828 169.750806 
L 216.270387 216.708936 
L 216.771237 247.631128 
L 217.002844 252.702172 
L 217.009287 252.696987 
L 217.050908 252.422486 
L 217.14748 249.952971 
L 217.298842 239.291522 
L 217.488606 207.653035 
L 217.872223 114.027239 
L 217.964981 120.050416 
L 218.36648 179.320521 
L 218.823919 222.850131 
L 219.296806 249.535834 
L 219.475842 252.702181 
L 219.501997 252.621806 
L 219.575387 251.458661 
L 219.706344 245.128898 
L 219.882923 223.965489 
L 220.102917 165.868285 
L 220.345569 114.027238 
L 220.366457 114.387525 
L 220.444551 120.795353 
L 221.531662 238.3757 
L 221.880027 252.186376 
L 221.949555 252.702157 
L 222.002653 252.356955 
L 222.103575 249.548181 
L 222.258474 237.865139 
L 222.450721 203.806071 
L 222.818915 114.027251 
L 222.897931 118.561114 
L 223.147669 156.098544 
L 223.605875 209.737865 
L 224.11951 244.484254 
L 224.400749 252.649688 
L 224.423268 252.702084 
L 224.469178 252.439826 
L 224.564301 250.070804 
L 224.714599 239.708191 
L 224.903754 208.749067 
L 225.291935 114.027243 
L 225.388624 120.504634 
L 226.506989 240.019407 
L 226.838823 252.349983 
L 226.895907 252.702172 
L 226.949724 252.349467 
L 227.051009 249.507359 
L 227.206261 237.720973 
L 227.398826 203.400257 
L 227.765281 114.027234 
L 227.842988 118.411481 
L 228.085288 154.719347 
L 228.546098 209.193554 
L 229.059963 244.192084 
L 229.344961 252.638059 
L 229.369621 252.702116 
L 229.416968 252.424942 
L 229.513178 249.976026 
L 229.664183 239.388633 
L 229.853618 207.953075 
L 230.238628 114.02724 
L 230.332369 120.180326 
L 231.488253 241.909814 
L 231.799772 252.503971 
L 231.842618 252.702155 
L 231.895357 252.361039 
L 231.995917 249.577593 
L 232.150461 237.980127 
L 232.342384 204.147482 
L 232.711647 114.027252 
L 232.791971 118.668238 
L 233.047796 157.194112 
L 233.50439 210.211467 
L 234.017784 244.73504 
L 234.295955 252.659727 
L 234.316331 252.702076 
L 234.361163 252.451459 
L 234.455199 250.153795 
L 234.604429 240.033543 
L 234.792955 209.641367 
L 235.184994 114.027235 
L 235.285286 120.942018 
L 236.357305 237.561039 
L 236.713761 252.099256 
L 236.788971 252.702172 
L 236.841709 252.363071 
L 236.942268 249.584381 
L 237.096813 237.9974 
L 237.28874 204.185503 
L 237.65834 114.027234 
L 237.738664 118.687761 
L 237.995505 157.378408 
L 238.451773 210.286603 
L 238.965184 244.777323 
L 239.243022 252.662126 
L 239.263041 252.702027 
L 239.307155 252.457172 
L 239.400829 250.187773 
L 239.549703 240.158109 
L 239.737905 210.001926 
L 240.131686 114.027247 
L 240.23329 121.124311 
L 241.287491 236.584436 
L 241.653371 251.987171 
L 241.735323 252.702183 
L 241.787341 252.374404 
L 241.887176 249.653638 
L 242.041012 238.25347 
L 242.232647 204.837763 
L 242.604706 114.02724 
L 242.687319 118.915506 
L 242.957701 159.764487 
L 243.410748 211.348767 
L 243.923016 245.306358 
L 244.194019 252.678857 
L 244.209752 252.701968 
L 244.250633 252.489432 
L 244.341407 250.410693 
L 244.488147 240.953433 
L 244.67477 212.18968 
L 245.078052 114.027231 
L 245.188835 122.257948 
L 246.145651 230.975475 
L 246.561129 251.19783 
L 246.681676 252.702189 
L 246.725785 252.469491 
L 246.818371 250.272531 
L 246.966535 240.450763 
L 247.154101 210.82005 
L 247.551399 114.027237 
L 247.65628 121.522964 
L 248.673524 234.505692 
L 249.058543 251.721215 
L 249.155031 252.702187 
L 249.204532 252.406548 
L 249.302192 249.853918 
L 249.454259 238.960602 
L 249.644651 206.748206 
L 250.024419 114.027249 
L 250.113903 119.665418 
L 250.446032 169.702921 
L 250.895588 216.681381 
L 251.39643 247.616951 
L 251.628386 252.702183 
L 251.634829 252.697007 
L 251.67645 252.422574 
L 251.773022 249.953249 
L 251.924383 239.292223 
L 252.114147 207.654582 
L 252.497765 114.027233 
L 252.590524 120.049717 
L 252.991682 179.277003 
L 253.44912 222.824489 
L 253.921997 249.524093 
L 254.101384 252.702191 
L 254.12718 252.62407 
L 254.199848 251.486926 
L 254.330444 245.234893 
L 254.50669 224.276672 
L 254.725723 166.793258 
L 254.971111 114.027231 
L 254.991999 114.387317 
L 255.070093 120.794624 
L 256.157549 238.395381 
L 256.505924 252.191431 
L 256.575097 252.702166 
L 256.628195 252.35705 
L 256.729117 249.548479 
L 256.884016 237.865885 
L 257.076263 203.807702 
L 257.444458 114.027244 
L 257.523473 118.560485 
L 257.773211 156.09759 
L 258.231417 209.737332 
L 258.745052 244.483958 
L 259.026291 252.649665 
L 259.04881 252.702094 
L 259.09472 252.43991 
L 259.189842 250.071074 
L 259.34014 239.708877 
L 259.529296 208.75059 
L 259.917477 114.027238 
L 260.014166 120.503917 
L 261.132876 240.038342 
L 261.464365 252.349912 
L 261.521449 252.702181 
L 261.575266 252.349563 
L 261.676551 249.507659 
L 261.831803 237.721722 
L 262.024368 203.401896 
L 262.390824 114.027229 
L 262.468531 118.410861 
L 262.710494 154.666011 
L 263.171299 209.163379 
L 263.685158 244.174912 
L 263.970145 252.63612 
L 263.995162 252.702124 
L 264.042869 252.420779 
L 264.139441 249.947067 
L 264.290802 239.276285 
L 264.480563 207.619108 
L 264.86417 114.027235 
L 264.956602 120.027874 
L 265.350954 178.393134 
L 265.807338 222.228409 
L 266.283495 249.3657 
L 266.467802 252.702189 
L 266.491805 252.633799 
L 266.562302 251.583165 
L 266.690734 245.662647 
L 266.865294 225.5889 
L 267.080835 170.536842 
L 267.33719 114.027249 
L 267.35971 114.437498 
L 267.441086 121.371387 
L 268.472011 235.28288 
L 268.849984 251.824416 
L 268.941157 252.702184 
L 268.991737 252.392035 
L 269.090484 249.759288 
L 269.243617 238.602003 
L 269.434628 205.781835 
L 269.810536 114.027232 
L 269.896421 119.274718 
L 270.191886 163.980171 
L 270.641811 213.460677 
L 271.151137 246.308551 
L 271.408789 252.698903 
L 271.417733 252.700718 
L 271.447128 252.573768 
L 271.528483 251.039523 
L 271.666994 243.377284 
L 271.848157 218.970644 
L 272.088193 150.072936 
L 272.283882 114.02723 
L 272.307381 114.480262 
L 272.391386 121.845571 
L 273.380957 232.907721 
L 273.780401 251.502387 
L 273.88751 252.70219 
L 273.934854 252.432847 
L 274.03034 250.032256 
L 274.180992 239.57126 
L 274.370117 208.44338 
L 274.757229 114.027243 
L 274.852608 120.376526 
L 275.985419 240.758395 
L 276.309475 252.414491 
L 276.361223 252.702155 
L 276.414681 252.35097 
L 276.515966 249.512339 
L 276.671218 237.733614 
L 276.863786 203.428033 
L 277.230249 114.027239 
L 277.308282 118.434583 
L 277.551597 154.912389 
L 278.011742 209.243565 
L 278.525618 244.220544 
L 278.810275 252.639364 
L 278.834578 252.702141 
L 278.881925 252.426266 
L 278.978135 249.980576 
L 279.12914 239.400356 
L 279.318578 207.979172 
L 279.703595 114.027229 
L 279.797336 120.16844 
L 280.954599 241.97722 
L 281.265443 252.509471 
L 281.307576 252.702172 
L 281.360314 252.362514 
L 281.460874 249.582508 
L 281.615418 237.992626 
L 281.807344 204.174988 
L 282.176941 114.027235 
L 282.257265 118.691858 
L 282.514444 157.436169 
L 282.970376 210.290094 
L 283.483788 244.779289 
L 283.761627 252.662309 
L 283.781289 252.702105 
L 283.825761 252.456702 
L 283.919434 250.186114 
L 284.068308 240.153793 
L 284.256509 209.992246 
L 284.649961 114.02725 
L 284.751891 121.129092 
L 285.805406 236.545331 
L 286.171621 251.981885 
L 286.253928 252.702183 
L 286.305947 252.373854 
L 286.405781 249.651787 
L 286.559618 238.248747 
L 286.751251 204.827336 
L 287.123307 114.027233 
L 287.205921 118.91968 
L 287.476641 159.821396 
L 287.929692 211.381063 
L 288.441968 245.324307 
L 288.712623 252.678996 
L 288.728357 252.701956 
L 288.769238 252.488993 
L 288.860012 250.409117 
L 289.006752 240.949289 
L 289.193374 212.180328 
L 289.596654 114.027231 
L 289.707437 122.262975 
L 290.663911 230.95544 
L 291.079733 251.19883 
L 291.200281 252.702188 
L 291.24439 252.46903 
L 291.336976 250.270901 
L 291.48514 240.446507 
L 291.672705 210.810489 
L 292.07 114.027243 
L 292.174881 121.527838 
L 293.191441 234.465121 
L 293.577148 251.722041 
L 293.673636 252.702184 
L 293.723137 252.406024 
L 293.820797 249.852133 
L 293.972865 238.956024 
L 294.163255 206.738044 
L 294.54302 114.027241 
L 294.632505 119.669825 
L 294.965312 169.80256 
L 295.414873 216.738735 
L 295.915383 247.632543 
L 296.146633 252.702188 
L 296.153434 252.696938 
L 296.195055 252.422065 
L 296.291627 249.951499 
L 296.442989 239.287714 
L 296.632752 207.644549 
L 297.016366 114.027232 
L 297.108798 120.01645 
L 297.500088 177.990792 
L 297.955775 221.941175 
L 298.433577 249.291101 
L 298.619989 252.702187 
L 298.643274 252.638438 
L 298.712686 251.629781 
L 298.840035 245.871179 
L 299.013927 226.200836 
L 299.227882 172.283871 
L 299.489712 114.027237 
L 299.512885 114.469637 
L 299.596232 121.726947 
L 300.595707 233.483085 
L 300.990128 251.585443 
L 301.093344 252.702184 
L 301.141407 252.423894 
L 301.237618 249.972415 
L 301.388622 239.379319 
L 301.578055 207.932336 
L 301.962732 114.027254 
L 302.056473 120.151684 
L 303.215804 242.07855 
L 303.52528 252.514476 
L 303.567057 252.702144 
L 303.619437 252.364578 
L 303.719996 249.589426 
L 303.874541 238.010247 
L 304.066471 204.213791 
L 304.436079 114.027236 
L 304.516729 118.711111 
L 304.774924 157.619736 
L 305.230871 210.394089 
L 305.743958 244.821332 
L 306.021108 252.663141 
L 306.04077 252.702055 
L 306.084883 252.458442 
L 306.178556 250.192237 
L 306.327431 240.169719 
L 306.515636 210.027962 
L 306.909425 114.027234 
L 307.011356 121.151546 
L 308.062816 236.432037 
L 308.430036 251.967133 
L 308.513052 252.702184 
L 308.565069 252.375881 
L 308.664904 249.658616 
L 308.818741 238.26617 
L 309.010378 204.865802 
L 309.382771 114.027246 
L 309.465385 118.939289 
L 309.737122 160.00224 
L 310.190187 211.483681 
L 310.702488 245.381271 
L 310.972462 252.680751 
L 310.98748 252.701999 
L 311.028001 252.494267 
L 311.118413 250.44124 
L 311.264796 241.0684 
L 311.451093 212.527362 
L 311.855791 114.027245 
L 311.968213 122.455832 
L 312.910372 230.098482 
L 313.333206 251.058222 
L 313.459762 252.702173 
L 313.502076 252.48586 
L 313.593212 250.38466 
L 313.73995 240.885116 
L 313.926557 212.035603 
L 314.329137 114.027235 
L 314.439264 122.172308 
L 315.402558 231.360309 
L 315.81504 251.263949 
L 315.93276 252.702182 
L 315.977587 252.461837 
L 316.070898 250.21806 
L 316.219416 240.272974 
L 316.407293 210.340477 
L 316.802484 114.02724 
L 316.905398 121.277852 
L 317.944876 235.763712 
L 318.318488 251.887141 
L 318.406115 252.702179 
L 318.457413 252.3844 
L 318.556523 249.7182 
L 318.71001 238.457754 
L 318.901339 205.376181 
L 319.27583 114.02726 
L 319.360079 119.120629 
L 319.644015 162.076138 
L 320.095181 212.489839 
L 320.605993 245.857111 
L 320.869813 252.692101 
L 320.881259 252.701704 
L 320.916754 252.535139 
L 321.002818 250.742117 
L 321.14527 242.233024 
L 321.329359 215.702347 
L 321.597324 136.373963 
L 321.74885 114.027241 
L 321.783117 114.963198 
L 321.890844 126.532595 
L 322.62889 217.388998 
L 323.127161 247.868825 
L 323.352467 252.702179 
L 323.361775 252.69218 
L 323.40844 252.324572 
L 323.511175 249.360448 
L 323.667482 237.225813 
L 323.860985 202.044643 
L 324.222196 114.027238 
L 324.295652 117.98693 
L 324.517696 150.867484 
L 324.987331 207.821632 
L 325.500917 243.405674 
L 325.795099 252.597321 
L 325.826538 252.702104 
L 325.876402 252.394076 
L 325.974787 249.781426 
L 326.127564 238.697612 
L 326.318246 206.079617 
L 326.695542 114.02725 
L 326.78241 119.402588 
L 327.088392 165.673317 
L 327.537737 214.371058 
L 328.044873 246.692483 
L 328.297031 252.70174 
L 328.30956 252.689226 
L 328.328922 252.5966 
L 328.406656 251.236614 
L 328.541933 244.180848 
L 328.721147 221.236812 
L 328.95046 157.61426 
L 329.168562 114.02725 
L 329.18945 114.382203 
L 329.267216 120.736866 
L 330.360505 238.705497 
L 330.705849 252.224409 
L 330.772533 252.702167 
L 330.82599 252.354504 
L 330.926913 249.540029 
L 331.08181 237.844419 
L 331.274053 203.760505 
L 331.641908 114.02724 
L 331.720924 118.544616 
L 331.969985 155.969261 
L 332.42852 209.694115 
L 332.942146 244.459482 
L 333.223728 252.648842 
L 333.246246 252.70211 
L 333.292515 252.437701 
L 333.387638 250.063447 
L 333.537935 239.689148 
L 333.727086 208.706527 
L 334.115255 114.027244 
L 334.211616 120.48579 
L 335.33239 240.144824 
L 335.66287 252.360725 
L 335.719243 252.702146 
L 335.773061 252.346985 
L 335.874708 249.483146 
L 336.029956 237.659526 
L 336.222507 203.265286 
L 336.588601 114.027264 
L 336.665981 118.395201 
L 336.907268 154.536721 
L 337.368402 209.119855 
L 337.882252 244.150115 
L 338.167582 252.635199 
L 338.192956 252.702068 
L 338.240304 252.422751 
L 338.336876 249.953898 
L 338.488238 239.293923 
L 338.678002 207.658387 
L 339.061621 114.027246 
L 339.15438 120.04801 
L 339.555197 179.232298 
L 340.012633 222.798131 
L 340.485851 249.52355 
L 340.665238 252.702173 
L 340.691034 252.624153 
L 340.763702 251.487332 
L 340.894298 245.23607 
L 341.070545 224.279462 
L 341.289578 166.798487 
L 341.534967 114.027242 
L 341.555855 114.38683 
L 341.633949 120.792845 
L 342.721404 238.394453 
L 343.069779 252.191181 
L 343.138951 252.702151 
L 343.192049 252.357249 
L 343.292971 249.549181 
L 343.44787 237.867697 
L 343.640118 203.81171 
L 344.008313 114.027253 
L 344.087329 118.558954 
L 344.337067 156.095232 
L 344.795272 209.735983 
L 345.308907 244.483183 
L 345.590146 252.649569 
L 345.612664 252.702079 
L 345.658933 252.435953 
L 345.754418 250.043054 
L 345.904713 239.636402 
L 346.093852 208.58874 
L 346.481333 114.027254 
L 346.577694 120.463397 
L 347.700874 240.268083 
L 348.029998 252.370933 
L 348.085304 252.702164 
L 348.13912 252.349763 
L 348.240405 249.508365 
L 348.395657 237.723544 
L 348.588223 203.405921 
L 348.95468 114.027242 
L 349.032714 118.442942 
L 349.276366 154.977682 
L 349.736518 209.280507 
L 350.250402 244.241541 
L 350.534714 252.639811 
L 350.559017 252.702109 
L 350.606364 252.4252 
L 350.702574 249.976944 
L 350.853579 239.391016 
L 351.043015 207.958394 
L 351.428026 114.027245 
L 351.521767 120.177907 
L 352.677997 241.926926 
L 352.989169 252.50375 
L 353.032014 252.702145 
L 353.084753 252.361327 
L 353.185313 249.578584 
L 353.339857 237.982667 
L 353.531781 204.153087 
L 353.901372 114.027263 
L 353.981369 118.666063 
L 354.236857 157.139147 
L 354.693447 210.180327 
L 355.206833 244.717496 
L 355.485351 252.659616 
L 355.505727 252.702069 
L 355.550559 252.451702 
L 355.644595 250.154676 
L 355.793825 240.035849 
L 355.982351 209.646549 
L 356.374392 114.027246 
L 356.474684 120.939499 
L 357.547046 237.580115 
L 357.903512 252.10442 
L 357.978367 252.70216 
L 358.031105 252.363357 
L 358.131664 249.585369 
L 358.286209 237.999935 
L 358.478137 204.191101 
L 358.847738 114.027242 
L 358.928062 118.685585 
L 359.184902 157.375126 
L 359.641171 210.284733 
L 360.154581 244.776262 
L 360.432418 252.662016 
L 360.452438 252.702019 
L 360.496552 252.457411 
L 360.590225 250.188645 
L 360.739099 240.160398 
L 360.927302 210.007076 
L 361.321085 114.027252 
L 361.422688 121.121771 
L 362.476888 236.583099 
L 362.842767 251.986775 
L 362.924719 252.70217 
L 362.976737 252.374683 
L 363.076572 249.654612 
L 363.230409 238.255974 
L 363.422043 204.843308 
L 363.794104 114.027254 
L 363.876717 118.913291 
L 364.147099 159.761254 
L 364.600145 211.346921 
L 365.112413 245.305322 
L 365.383415 252.678768 
L 365.399148 252.70196 
L 365.440029 252.489651 
L 365.530803 250.411518 
L 365.677543 240.955626 
L 365.864166 212.194649 
L 366.267451 114.027242 
L 366.378561 122.297437 
L 367.332308 230.791798 
L 367.749465 251.172025 
L 367.871072 252.702173 
L 367.914822 252.473564 
L 368.007045 250.300603 
L 368.154853 240.559673 
L 368.342091 211.144751 
L 368.740797 114.027245 
L 368.847317 121.725467 
L 369.846791 233.482279 
L 370.241211 251.585164 
L 370.344427 252.702171 
L 370.39249 252.424035 
L 370.488701 249.97293 
L 370.639706 239.380665 
L 370.829139 207.935349 
L 371.214143 114.027263 
L 371.307558 120.150318 
L 372.466888 242.077879 
L 372.776363 252.514348 
L 372.81814 252.702133 
L 372.87052 252.364735 
L 372.971079 249.589982 
L 373.125624 238.011681 
L 373.317555 204.216964 
L 373.687163 114.027247 
L 373.767813 118.709876 
L 374.026008 157.617875 
L 374.481955 210.393025 
L 374.995042 244.820726 
L 375.272191 252.663075 
L 375.291853 252.702046 
L 375.335967 252.458573 
L 375.429639 250.192728 
L 375.578514 240.171015 
L 375.766719 210.030882 
L 376.160509 114.027242 
L 376.26244 121.150104 
L 377.3139 236.431272 
L 377.68112 251.966902 
L 377.764135 252.702173 
L 377.816152 252.376036 
L 377.915987 249.659166 
L 378.069824 238.267589 
L 378.261461 204.868949 
L 378.633856 114.027252 
L 378.716469 118.93803 
L 378.988206 160.000407 
L 379.441271 211.482632 
L 379.953571 245.380683 
L 380.223545 252.680701 
L 380.238564 252.701992 
L 380.279084 252.494388 
L 380.369496 250.441704 
L 380.51588 241.069637 
L 380.702176 212.530169 
L 381.106875 114.027255 
L 381.219298 122.454305 
L 382.161456 230.097641 
L 382.58429 251.057897 
L 382.710845 252.702164 
L 382.753159 252.485985 
L 382.844295 250.385131 
L 382.991033 240.886366 
L 383.17764 212.038433 
L 383.580222 114.027243 
L 383.690348 122.170798 
L 384.653642 231.359483 
L 385.066124 251.263644 
L 385.183843 252.702173 
L 385.22867 252.461971 
L 385.321981 250.218551 
L 385.470499 240.274265 
L 385.658376 210.343386 
L 386.053568 114.027245 
L 386.156482 121.2764 
L 387.19596 235.762941 
L 387.569571 251.886903 
L 387.657198 252.702172 
L 387.708497 252.384557 
L 387.807607 249.718746 
L 387.961093 238.459164 
L 388.152423 205.379309 
L 388.526914 114.027262 
L 388.611164 119.11935 
L 388.895099 162.07433 
L 389.346265 212.488805 
L 389.857077 245.856541 
L 390.120897 252.692066 
L 390.132342 252.701704 
L 390.167837 252.53525 
L 390.253901 250.742548 
L 390.396353 242.234185 
L 390.580442 215.705006 
L 390.848408 136.37744 
L 390.999934 114.027247 
L 391.034201 114.962581 
L 391.141928 126.530877 
L 391.879974 217.388023 
L 392.378244 247.868325 
L 392.603551 252.702173 
L 392.612858 252.692203 
L 392.659523 252.324746 
L 392.762258 249.361033 
L 392.918565 237.227302 
L 393.112069 202.047911 
L 393.47328 114.027242 
L 393.546737 117.985769 
L 393.76878 150.865562 
L 394.238414 207.820539 
L 394.752 243.40504 
L 395.046182 252.597229 
L 395.077621 252.702101 
L 395.127485 252.394232 
L 395.22587 249.781969 
L 395.378647 238.69901 
L 395.56933 206.082718 
L 395.946627 114.027251 
L 396.033494 119.401281 
L 396.339476 165.671558 
L 396.78882 214.37005 
L 397.295957 246.691942 
L 397.548114 252.701731 
L 397.560643 252.689253 
L 397.580005 252.596689 
L 397.657739 251.236982 
L 397.793017 244.181873 
L 397.97223 221.239199 
L 398.201544 157.618412 
L 398.419646 114.027256 
L 398.440535 114.381812 
L 398.487273 117.429132 
L 398.487273 117.429132 
" clip-path="url(#p6c0321391e)" style="fill: none; stroke: #ff7f0e; stroke-width: 1.5; stroke-linecap: square"/>
   </g>
   <g id="patch_3">
    <path d="M 57.6 307.584 
L 57.6 41.472 
" style="fill: none; stroke: #000000; stroke-width: 0.8; stroke-linejoin: miter; stroke-linecap: square"/>
   </g>
   <g id="patch_4">
    <path d="M 414.72 307.584 
L 414.72 41.472 
" style="fill: none; stroke: #000000; stroke-width: 0.8; stroke-linejoin: miter; stroke-linecap: square"/>
   </g>
   <g id="patch_5">
    <path d="M 57.6 307.584 
L 414.72 307.584 
" style="fill: none; stroke: #000000; stroke-width: 0.8; stroke-linejoin: miter; stroke-linecap: square"/>
   </g>
   <g id="patch_6">
    <path d="M 57.6 41.472 
L 414.72 41.472 
" style="fill: none; stroke: #000000; stroke-width: 0.8; stroke-linejoin: miter; stroke-linecap: square"/>
   </g>
  </g>
 </g>
 <defs>
  <clipPath id="p6c0321391e">
   <rect x="57.6" y="41.472" width="357.12" height="266.112"/>
  </clipPath>
 </defs>
</svg>
