<?xml version="1.0" encoding="UTF-8" standalone="no"?>
<!-- Created with Inkscape (http://www.inkscape.org/) -->

<svg
   width="130mm"
   height="120mm"
   viewBox="0 0 130 120"
   version="1.1"
   id="svg5"
   inkscape:version="1.2.2 (b0a8486541, 2022-12-01)"
   sodipodi:docname="RDE.svg"
   xmlns:inkscape="http://www.inkscape.org/namespaces/inkscape"
   xmlns:sodipodi="http://sodipodi.sourceforge.net/DTD/sodipodi-0.dtd"
   xmlns="http://www.w3.org/2000/svg"
   xmlns:svg="http://www.w3.org/2000/svg">
  <sodipodi:namedview
     id="namedview7"
     pagecolor="#ffffff"
     bordercolor="#666666"
     borderopacity="1.0"
     inkscape:showpageshadow="2"
     inkscape:pageopacity="0.0"
     inkscape:pagecheckerboard="0"
     inkscape:deskcolor="#d1d1d1"
     inkscape:document-units="mm"
     showgrid="false"
     inkscape:zoom="1.9737415"
     inkscape:cx="230.52664"
     inkscape:cy="263.2057"
     inkscape:window-width="1920"
     inkscape:window-height="1052"
     inkscape:window-x="0"
     inkscape:window-y="28"
     inkscape:window-maximized="1"
     inkscape:current-layer="layer1" />
  <defs
     id="defs2" />
  <g
     inkscape:label="Layer 1"
     inkscape:groupmode="layer"
     id="layer1">
    <ellipse
       style="fill:none;stroke:#c47200;stroke-width:0.352777;stroke-linejoin:bevel;stroke-dasharray:8.46665, 0.352777;stroke-dashoffset:0"
       id="path399"
       cx="66.554749"
       cy="65.023773"
       rx="13.675342"
       ry="13.259627" />
    <ellipse
       style="fill:none;stroke:#c47200;stroke-width:1.21736;stroke-linejoin:bevel"
       id="path399-3"
       cx="66.22525"
       cy="63.726414"
       rx="47.190575"
       ry="45.756039" />
    <path
       style="fill:none;stroke:#c47200;stroke-width:0.352777;stroke-linejoin:bevel"
       id="path498"
       d="m 12.663911,4.9779157 c 0.107364,0.04249 0.213493,0.08823 0.321983,0.127762 0.129993,0.04745 1.03718,0.353167 1.100631,0.374587 0.639714,0.216018 1.280737,0.426007 1.916599,0.653136 0.315682,0.114539 0.623753,0.24994 0.919627,0.40887 0.03741,0.02008 0.06916,0.05243 0.109908,0.06435 0.01052,0.003 -0.0045,-0.02214 -0.0017,-0.03272 0.0161,-0.06281 0.03857,-0.123796 0.05785,-0.185694 0.0067,-0.01142 0.0074,-0.03147 0.02041,-0.03415 0.144375,-0.02968 0.07789,0.22318 0.07116,0.261502 -0.0041,0.02288 -0.0446,0.02941 -0.04573,0.05262 -7.4e-4,0.01555 0.02815,0.01332 0.04221,0.02003 0.09386,0.03066 0.278942,0.106218 0.374522,0.04621 0.0399,-0.02506 0.0705,-0.06257 0.10576,-0.09385 0.007,-0.04662 0.0222,-0.09269 0.0214,-0.13984 -4.2e-4,-0.0249 -0.0148,-0.04769 -0.025,-0.07041 -0.006,-0.01322 -0.0212,-0.05114 -0.0232,-0.03678 -0.004,0.02901 0.0285,0.05981 0.0161,0.08638 -0.10022,0.21596 -0.204825,0.1197 -0.0921,0.200205 0.26714,0.129949 0.54851,0.227552 0.84521,0.253642 0.19267,-0.01128 0.33789,-0.107294 0.2957,-0.326365 -0.0116,-0.06031 -0.0672,-0.117438 -0.10405,-0.162338 -0.12296,-0.114259 -0.24954,-0.241228 -0.40384,-0.313834 -0.0596,-0.02807 -0.12209,-0.04972 -0.18314,-0.07458 -0.27314,-0.05475 -0.552,-0.01518 -0.819378,0.04973 -0.04392,0.01523 -0.08853,0.02855 -0.131739,0.04569 -0.116837,0.04635 -0.229892,0.101702 -0.344672,0.152926 -0.358079,0.159801 -0.57128,0.253331 -0.940437,0.442585 -0.209798,0.107555 -0.415376,0.22315 -0.62306,0.334725 -0.53603,0.298078 -1.069399,0.601581 -1.58714,0.930694 -0.08924,0.05672 -0.177836,0.114527 -0.264741,0.174769 -0.132532,0.09187 -0.118587,0.04615 -0.131793,0.123093 0.08167,0.09601 0.150066,0.20511 0.245012,0.288005 0.0047,0.0041 0.122565,-0.02445 0.15641,-0.02648 0.01937,-0.0012 0.04031,-0.0021 0.05786,0.0062 0.0085,0.0039 0.01965,0.02754 0.01047,0.02595 -0.03404,-0.006 -0.06351,-0.02723 -0.0953,-0.04079 -0.0018,-5.89e-4 -0.0047,-0.0036 -0.0054,-0.0018 -0.01191,0.02971 -0.02089,0.167023 -0.02317,0.20397 0.01577,0.147162 -0.0082,0.292353 -0.02412,0.438491 -0.02044,0.165223 -0.03885,0.331365 -0.01483,0.496907 7.3e-4,0.02627 0.372367,0.01602 0.371643,-0.01026 v 0 c -0.0026,-0.1445 0.03289,-0.287476 0.03955,-0.431532 0.01136,-0.143385 0.03209,-0.302018 -0.0088,-0.442719 0.0243,-0.15737 0.06892,-0.305214 -0.01637,-0.456524 -0.06105,-0.04518 -0.115639,-0.100754 -0.183162,-0.13553 -0.06762,-0.03486 -0.183348,-0.02857 -0.254735,-0.01632 -0.03893,0.0067 -0.07717,0.01785 -0.114291,0.03137 -0.226743,0.08262 -0.09797,0.07046 0.03709,0.390376 0.01843,7.96e-4 0.03725,0.0063 0.05526,0.0024 0.138018,-0.02977 0.368923,-0.128282 0.473804,-0.175065 0.566255,-0.252584 1.107134,-0.557253 1.641867,-0.869888 0.655771,-0.39415 0.511422,-0.296849 1.113144,-0.696525 0.0095,-0.0063 0.412654,-0.284476 0.504528,-0.33575 0.06577,-0.03671 0.137079,-0.05214 0.208629,-0.07232 0.198726,-0.04324 0.424186,-0.08739 0.625506,-0.04484 -0.0111,-0.0061 -0.0449,-0.0229 -0.0332,-0.01819 0.13189,0.05242 0.23198,0.161489 0.34863,0.238862 0.0854,0.05974 0.0359,0.01735 0.0808,-0.04977 0.042,-0.06289 0.11089,-0.05795 0.0164,-0.07059 -0.27142,-0.06501 -0.53028,-0.170933 -0.80067,-0.238988 -0.14499,-0.01647 -0.160145,-0.04263 -0.283138,0.152839 -0.019,0.03028 0.0082,0.07116 0.01573,0.106112 8.2e-4,0.0037 0.0061,0.0095 0.0087,0.0069 0.0047,-0.0047 0.0022,-0.01329 0.0042,-0.0197 0.0099,-0.03176 0.02096,-0.06316 0.03144,-0.09474 0.02826,-0.02083 0.05653,-0.04166 0.0848,-0.06248 0.0037,-0.0028 0.01497,-0.0055 0.01119,-0.0082 -0.01093,-0.0078 -0.02573,-0.0079 -0.03867,-0.01155 -0.08216,-0.0236 -0.164498,-0.04753 -0.249316,-0.05982 -0.05986,-0.0024 -0.19208,-0.02039 -0.229593,0.04907 -0.124862,0.231188 -0.0061,0.341298 0.199502,0.370937 0.04445,0.0064 0.08927,-0.01008 0.133893,-0.01512 0.04501,-0.07148 0.112024,-0.133153 0.135053,-0.21442 0.02572,-0.09083 -0.100178,-0.230477 -0.147139,-0.275042 -0.332689,-0.315722 -0.771904,-0.492187 -1.180949,-0.678544 -0.196438,-0.07841 -0.390938,-0.161854 -0.589315,-0.23522 -0.803161,-0.297154 -1.637516,-0.533066 -2.480504,-0.686873 -0.108939,-0.01989 -0.219284,-0.03113 -0.328928,-0.04669 -0.02834,-5.04e-4 -0.0352,0.400518 -0.0068,0.401001 z" />
    <circle
       style="fill:none;stroke:#c47200;stroke-width:0.352777;stroke-linejoin:bevel;stroke-dasharray:0.352777, 1.05833;stroke-dashoffset:0"
       id="path512"
       cx="67.422783"
       cy="64.652596"
       r="38.134811" />
    <path
       sodipodi:type="spiral"
       style="fill:none;fill-rule:evenodd;stroke:#000000;stroke-width:0.264583"
       id="path8695"
       sodipodi:cx="52.051273"
       sodipodi:cy="58.980831"
       sodipodi:expansion="1"
       sodipodi:revolution="2.98"
       sodipodi:radius="8.6057434"
       sodipodi:argument="-20.164965"
       sodipodi:t0="0.42141986"
       d="m 55.524362,60.024913 c -0.366252,2.186499 -2.607759,3.520403 -4.725017,3.1204 -2.562384,-0.4841 -4.113897,-3.129473 -3.603946,-5.624257 0.600633,-2.938416 3.651404,-4.708206 6.523497,-4.087491 3.31456,0.71634 5.30306,4.173479 4.571036,7.422735 -0.831497,3.690793 -4.695659,5.898297 -8.321974,5.054582 -4.067091,-0.946266 -6.493812,-5.217913 -5.538128,-9.221213 0.936191,-3.921649 4.751718,-6.547033 8.734686,-6.242273"
       transform="translate(-38.273179,-43.620374)" />
    <path
       style="fill:#c47200;fill-opacity:1;stroke:#c47200;stroke-width:0.265;stroke-linecap:butt;stroke-linejoin:miter;stroke-dasharray:6.36, 0.265;stroke-dashoffset:0;stroke-opacity:1"
       d="m 53.60928,59.735716 c 0,-21.338213 0,-21.240045 0,-21.240045"
       id="path10938" />
    <path
       style="fill:#c47200;fill-opacity:1;stroke:#c47200;stroke-width:0.367834;stroke-linecap:butt;stroke-linejoin:miter;stroke-dasharray:none;stroke-dashoffset:0;stroke-opacity:1"
       d="m 19.414057,69.168986 c 0,-41.112006 0,-40.922868 0,-40.922868"
       id="path10938-7" />
    <path
       style="fill:#c47200;fill-opacity:1;stroke:#c47200;stroke-width:0.367834;stroke-linecap:butt;stroke-linejoin:miter;stroke-dasharray:none;stroke-dashoffset:0;stroke-opacity:1"
       d="m 113.19396,60.042316 c 0,-41.112003 0,-40.922865 0,-40.922865"
       id="path10938-7-5" />
    <path
       style="fill:#c47200;fill-opacity:1;stroke:#c47200;stroke-width:0.265;stroke-linecap:butt;stroke-linejoin:miter;stroke-dasharray:6.36, 0.265;stroke-dashoffset:0;stroke-opacity:1"
       d="m 79.168221,59.201976 c 0,-21.338207 0,-21.240039 0,-21.240039"
       id="path10938-6" />
    <path
       style="fill:#c47200;fill-opacity:1;stroke:#c47200;stroke-width:0.264999;stroke-linejoin:bevel;stroke-dasharray:8.46664, 0.352777;stroke-dashoffset:0"
       id="path14003"
       d="m 41.437219,27.132667 c 1.14686,1.318588 2.22731,2.692069 3.254153,4.105722 0.101997,0.147767 0.206362,0.293925 0.305988,0.443301 0.05234,0.07847 0.100901,0.159414 0.149794,0.240083 0.0071,0.0117 0.0066,0.04423 0.01804,0.03682 0.356984,-0.229934 0.252167,-0.183095 0.08093,-0.429112 -0.01516,-0.03151 -0.03034,-0.06303 -0.04551,-0.09455 0.0024,-0.0051 0.0072,-0.0209 0.0071,-0.01529 -2.65e-4,0.04703 0.0085,0.098 -0.01132,0.140628 -0.0034,0.0073 -0.03066,0.0055 -0.02286,0.0074 0.02914,0.0071 0.05968,0.0059 0.08953,0.0088 0.08011,-0.03024 0.182409,-0.02765 0.240329,-0.09071 0.136485,-0.148601 0.0072,-0.488866 -0.02458,-0.64678 -0.06013,-0.298365 -0.04827,-0.249692 -0.08989,-0.560496 -0.05413,-0.470021 -0.03861,-0.942668 0.0061,-1.412401 0.0052,-0.03381 0.0084,-0.068 0.01564,-0.101428 0.02302,-0.106056 0.04564,0.0269 -0.03811,0.03193 -0.221919,0.01336 -0.222591,-0.139325 -0.205173,0.0057 -0.01955,0.336113 -0.0033,0.660146 0.06739,0.989906 0.16223,0.564949 0.377108,1.112631 0.50655,1.68669 0.02522,0.177369 0.0428,0.789503 -0.21182,0.841769 -0.01246,-0.0027 -0.04754,-5.29e-4 -0.03735,-0.0082 0.01786,-0.01339 0.04561,-0.0032 0.06564,-0.01302 0.0082,-0.004 -0.01812,-0.003 -0.0267,-0.0061 -0.02479,-0.0089 -0.04797,-0.02214 -0.07312,-0.03 -0.182534,-0.05693 -0.161684,-0.03369 -0.404971,-0.03168 -0.445154,0.100174 -0.879854,0.23395 -1.339194,0.234739 -0.275212,-0.03198 -0.531358,-0.137515 -0.746493,-0.311383 -0.01667,0.0011 0.01688,0.04774 0.009,0.03752 -0.02733,-0.03574 -0.04424,-0.07869 -0.0715,-0.114483 -0.06727,-0.08831 -0.168299,-0.156786 -0.254365,-0.224967 -0.148545,-0.102992 -0.102754,-0.138845 -0.08643,0.0093 0.0084,-0.0067 0.01685,-0.01334 0.02527,-0.02 0.0163,-0.0195 -0.259376,-0.250039 -0.275677,-0.230545 v 0 c -0.01265,0.01262 -0.02527,0.02524 -0.03791,0.03786 -0.130019,0.175437 -0.05836,0.339701 0.106654,0.457171 0.04977,0.03919 0.182724,0.16973 0.234831,0.190931 0.0096,0.0039 0.0053,-0.03476 0.01331,-0.02817 0.03275,0.02691 -0.0057,0.101833 0.05338,0.115427 0.298603,0.313222 0.708083,0.450144 1.135636,0.455682 0.461907,-0.02379 0.900237,-0.143331 1.347618,-0.252381 0.03178,-0.02992 0.02527,-0.03209 0.09284,-0.01807 0.188444,0.03911 0.260784,0.157676 0.505812,0.03062 0.375661,-0.275765 0.420161,-0.757581 0.363853,-1.192427 -0.120822,-0.578525 -0.330955,-1.127 -0.518023,-1.686203 -0.07482,-0.324749 -0.08094,-0.642307 -0.08257,-0.973926 -0.104256,-0.505203 -0.50796,-0.25818 -0.507939,0.08223 -0.06456,0.495684 -0.08832,0.996714 -0.02708,1.494541 0.04,0.271143 0.09185,0.531217 0.160433,0.796354 0.01109,0.04284 0.0082,0.09211 0.03335,0.1285 0.0364,0.05261 0.201028,-0.212418 0.190889,-0.01998 -0.09313,-0.0064 -0.186351,-0.03061 -0.279222,-0.02125 -0.288327,0.02907 -0.298625,0.304792 -0.183412,0.506703 0.177951,0.252635 0.23917,0.456248 0.610076,0.183208 0.03674,-0.02705 -0.0011,-0.09283 -0.01619,-0.135911 -0.08615,-0.247144 -0.289195,-0.549023 -0.411113,-0.75329 -0.9853,-1.470189 -2.076704,-2.875348 -3.353704,-4.106026 -0.01619,-0.02178 -0.324186,0.20741 -0.307981,0.229185 z" />
    <path
       style="fill:#c47200;fill-opacity:1;stroke:#c47200;stroke-width:0.264999;stroke-linejoin:bevel;stroke-dasharray:8.46664, 0.352777;stroke-dashoffset:0"
       id="path14368"
       d="m 94.154551,29.127916 c -0.36328,0.628584 -0.63273,1.304245 -0.89552,1.979152 -0.0204,0.05842 -0.0427,0.116194 -0.0611,0.175273 -0.0766,0.246158 0.045,0.332211 0.32254,0.331031 0.015,-6.3e-5 -0.0298,0.0033 -0.0447,0.0049 0.0429,0.01878 -10e-4,-0.02775 -0.011,-0.02747 -0.0635,0.0019 -0.0662,0.108554 -0.096,0.164624 -0.035,0.06576 -0.0739,0.129418 -0.11078,0.194128 -0.2608,0.415499 -0.54137,0.822983 -0.86836,1.189733 0.12932,0.02032 -0.10053,0.05227 -0.0739,0.07534 0.0962,0.08353 0.20069,0.157337 0.30537,0.230016 0.007,0.0049 0.0345,-5.3e-4 0.0259,-3.5e-5 -0.17273,0.01228 -0.1117,0.0418 -0.20807,-0.0603 -5.3e-4,-0.07229 -0.0128,-0.131152 0.0166,-0.196581 0.005,-0.01132 0.0331,-0.01982 0.0241,-0.02836 -0.0417,-0.03969 -0.10126,-0.05553 -0.14786,-0.08935 -0.17907,-0.129968 -0.2274,-0.193299 -0.38513,-0.353893 -0.44329,-0.494795 -0.5918,-1.137155 -0.65822,-1.780585 0.0182,-0.08172 -0.0542,-0.425791 0.0746,-0.491231 0.0127,-0.0064 0.0237,0.0318 0.0126,0.04061 -0.0309,0.0245 -0.0855,0.0089 -0.11203,0.0382 -0.0129,0.01429 0.0252,0.02913 0.0379,0.04369 0.19186,0.304014 0.28331,0.658974 0.38484,1.000469 0.0805,0.351985 0.0985,0.70704 0.21845,1.049385 0.13088,0.296817 0.31319,0.564824 0.40209,0.879059 0.008,0.09774 0.0815,0.178414 0.10057,0.270259 -0.0199,-0.153919 -0.004,0.02463 0.38534,-0.02281 0.036,-0.0044 0.0591,-0.04247 0.0917,-0.05837 0.0765,-0.03734 0.15395,-0.0735 0.23452,-0.100925 0.33811,-0.115086 0.50026,-0.13208 0.86286,-0.202232 0.60892,-0.07734 1.25043,-0.162129 1.85758,-0.01979 0.005,7.94e-4 0.0137,0.0067 0.0138,0.0021 -0.029,-0.849773 -0.0912,-0.08374 0.0692,-0.292206 0.0112,-0.01453 -0.0363,-0.0061 -0.0539,-0.01124 -0.0197,-0.0058 -0.0385,-0.01434 -0.0577,-0.02151 -0.0215,-0.01429 -0.22356,0.290042 -0.20204,0.304327 v 0 c 0.0501,0.02257 0.14045,0.06869 0.1975,0.07238 0.28672,0.01855 0.53133,-0.133562 0.21525,-0.379074 -0.70162,-0.26965 -1.49524,-0.139377 -2.21756,-0.0428 -0.41759,0.09911 -0.87025,0.176271 -1.21483,0.456645 -0.0575,0.04677 -0.17471,0.103285 -0.14298,0.170257 0.0514,0.108413 0.19667,0.143689 0.31016,0.182573 0.0234,0.008 0.005,-0.04917 0.007,-0.07375 -0.0165,-0.110651 -0.0732,-0.201946 -0.0959,-0.3107 -0.0771,-0.330353 -0.24676,-0.615243 -0.40225,-0.913588 -0.13269,-0.331655 -0.11088,-0.687482 -0.20558,-1.030237 -0.1159,-0.39252 -0.22779,-0.799314 -0.46715,-1.137227 -0.0444,-0.04164 -0.0762,-0.103864 -0.13328,-0.124933 -0.52185,-0.192437 -0.5799,0.398465 -0.56981,0.754578 0.064,0.723443 0.24558,1.434904 0.74203,1.989167 0.23988,0.243893 0.55474,0.603075 0.94002,0.575609 0.0594,-0.0042 0.1243,-0.03027 0.16111,-0.07705 0.0392,-0.04976 0.0299,-0.123065 0.0448,-0.184597 -0.0291,-0.04132 -0.0415,-0.102505 -0.0872,-0.123968 -0.0657,-0.03081 -0.14434,-0.02185 -0.21681,-0.01871 -0.0277,0.0013 -0.0859,0.0051 -0.0771,0.03143 0.13236,0.395028 0.14094,0.338492 0.29509,0.200748 0.36303,-0.373015 0.66561,-0.803416 0.92176,-1.255578 0.13019,-0.260464 0.38053,-0.698902 -0.0306,-0.832757 -0.0584,-7.94e-4 -0.11681,-0.0031 -0.17523,-0.0026 -0.0191,1.77e-4 -0.0701,-0.0095 -0.0573,0.0048 0.0503,0.05615 0.13139,0.07838 0.18187,0.134353 0.0142,0.01569 -0.0238,0.06974 -0.004,0.06327 0.082,-0.02643 -0.044,-0.280617 0.10302,-0.237135 0.28633,-0.653841 0.55731,-1.314509 0.86687,-1.957999 0.0105,-0.02432 -0.33338,-0.172799 -0.34388,-0.148484 z" />
    <path
       style="fill:#c47200;fill-opacity:1;stroke:#c47200;stroke-width:0.264999;stroke-linejoin:bevel;stroke-dasharray:8.46664, 0.352777;stroke-dashoffset:0"
       id="path14370"
       d="m 39.215838,98.259026 c 0.542539,-0.37387 1.085176,-0.74838 1.614816,-1.14041 0.234048,-0.13353 0.330716,-0.36079 0.475363,-0.56812 0.450507,-0.47495 0.957684,-0.8906 1.494518,-1.26343 0.191648,-0.13502 0.541459,-0.22011 -0.05141,-0.36058 -0.04733,-0.0112 -0.07486,0.0622 -0.113445,0.0918 -0.04192,0.0322 -0.08533,0.0623 -0.127992,0.0935 -0.205981,0.16105 -0.326999,0.13816 -0.552344,0.095 -0.411036,-0.12642 -0.720225,-0.0395 -1.094452,0.13058 -0.304752,0.14448 -0.574455,0.3655 -0.906256,0.44677 -0.0098,-0.004 -0.03719,-0.0182 -0.02949,-0.0111 0.07824,0.0725 0.14863,0.15827 0.242666,0.20863 0.02677,0.0143 0.05707,-0.0209 0.08484,-0.0332 0.214355,-0.095 0.422262,-0.17587 0.64598,-0.24873 0.640027,-0.22627 1.317559,-0.1944 1.98387,-0.16286 0.45997,0.0433 0.99464,0.13038 1.301538,0.52063 0.04154,0.0528 0.06444,0.11794 0.09667,0.17692 0.09366,0.42579 -0.116509,0.83046 -0.246615,1.2271 -0.01394,0.0478 -0.02789,0.0955 -0.04183,0.1433 -0.0068,0.0256 0.354931,0.1223 0.36177,0.0967 v 0 c 0.01593,-0.0452 0.03188,-0.0904 0.04783,-0.13563 0.17226,-0.48435 0.393304,-0.97079 0.234199,-1.49077 -0.0476,-0.0866 -0.08361,-0.18063 -0.142804,-0.25973 -0.347482,-0.46433 -0.948383,-0.60497 -1.490501,-0.66676 -0.776467,-0.0537 -1.564222,-0.0597 -2.306037,0.20995 -0.237159,0.0887 -0.492566,0.17122 -0.701849,0.3197 -0.05193,0.0368 -0.14672,0.0622 -0.143724,0.12581 0.0056,0.11999 0.08543,0.23029 0.164734,0.32051 0.02371,0.027 0.0714,-0.008 0.107101,-0.0113 0.345215,-0.0993 0.638112,-0.30289 0.956173,-0.46372 0.245104,-0.1117 0.457459,-0.19058 0.723339,-0.10308 0.359679,0.0791 0.676179,0.0625 0.975066,-0.1706 0.0011,-7.9e-4 0.261257,-0.19872 0.259461,-0.21885 -0.04863,-0.54512 -0.259411,-0.2918 -0.505285,-0.15882 -0.58175,0.38115 -1.132499,0.82472 -1.555049,1.38226 -0.121021,0.20464 -0.194511,0.33462 -0.417304,0.45853 -0.545502,0.37182 -1.094428,0.73971 -1.609931,1.15316 -0.01887,0.0188 0.247523,0.28565 0.26639,0.26682 z" />
    <path
       style="fill:#c47200;fill-opacity:1;stroke:#c47200;stroke-width:0.264999;stroke-linejoin:bevel;stroke-dasharray:8.46664, 0.352777;stroke-dashoffset:0"
       id="path14372"
       d="m 98.723771,89.413086 c 1.03302,0.59748 2.071819,1.18483 3.088209,1.81051 0.31631,0.21169 0.64734,0.40494 0.9405,0.64945 0.0356,0.0297 0.069,0.0621 0.10162,0.0951 0.007,0.007 0.0162,0.0364 0.0179,0.026 0.008,-0.0496 0.002,-0.10049 0.002,-0.15073 0.26841,-0.0743 0.20505,-0.0462 0.0931,-0.18211 -0.014,-0.0217 -0.32145,0.17634 -0.30744,0.19808 v 0 c 0.17456,0.21782 0.18532,0.26104 0.50848,0.18673 0.0131,-0.0643 0.0417,-0.1274 0.0392,-0.193 -0.003,-0.0705 -0.13147,-0.20858 -0.16304,-0.24048 -0.27869,-0.28165 -0.61762,-0.49436 -0.93938,-0.72113 -1.01288,-0.65173 -2.05695,-1.25677 -3.146499,-1.77216 -0.0208,-0.0166 -0.2557,0.27715 -0.23492,0.29376 z" />
    <path
       style="fill:#c47200;fill-opacity:1;stroke:#c47200;stroke-width:0.264999;stroke-linejoin:bevel;stroke-dasharray:8.46664, 0.352777;stroke-dashoffset:0"
       id="path14374"
       d="m 99.802801,88.114706 c -0.91716,0.64621 -1.80266,1.33648 -2.6882,2.02508 -0.1778,0.14895 -0.48137,0.33441 -0.26716,0.61701 0.10613,0.14002 0.64668,0.22163 0.80686,0.26018 0.75864,0.17077 1.44798,0.53874 2.14923,0.861 0.265199,0.12869 0.538899,0.21881 0.827499,0.27135 0.0247,0.0105 0.17373,-0.339 0.14902,-0.34954 v 0 c -0.25941,-0.0475 -0.50005,-0.14528 -0.73743,-0.2608 -0.722119,-0.33417 -1.436889,-0.70597 -2.217999,-0.88391 -0.0897,-0.0194 -0.4442,-0.10181 -0.56116,-0.10855 -0.0517,-0.003 -0.19878,0.0262 -0.15768,0.13361 0.0467,0.12214 0.29229,-0.81104 0.30546,-0.24617 0.91185,-0.6521 1.8021,-1.33465 2.664889,-2.05055 0.019,-0.0193 -0.254329,-0.28804 -0.273329,-0.26871 z" />
    <path
       style="fill:#c47200;fill-opacity:1;stroke:#c47200;stroke-width:0.264999;stroke-linejoin:bevel;stroke-dasharray:8.46664, 0.352777;stroke-dashoffset:0"
       id="path14376"
       d="m 22.231586,64.249336 c 2.002645,0.1035 4.006996,0.16515 6.010095,0.26057 0.257048,-0.0986 0.530529,0.0801 0.791181,0.038 0.02043,-0.003 -0.04113,-0.025 -0.04195,-0.0457 -0.0043,-0.10762 0.08325,-0.2299 0.02734,-0.32196 -0.04384,-0.0722 -0.166603,-0.0279 -0.249534,-0.0439 -0.09606,-0.0185 -0.19158,-0.0397 -0.287369,-0.0595 -0.405117,-0.0872 -0.776158,-0.25526 -1.101149,-0.50972 -0.208581,-0.18889 -0.462645,-0.31021 -0.70636,-0.44554 -0.150691,-0.0951 -0.324406,-0.14749 -0.467926,-0.2537 -0.04826,-0.0539 0.02979,0.0522 -0.05733,0.16972 -0.01373,0.0185 -0.0805,0.003 -0.06588,0.021 0.02527,0.0308 0.07571,0.0247 0.113569,0.0371 0.783011,0.35297 1.488459,0.85427 2.180577,1.35706 0.341538,0.27279 0.71278,0.52618 0.997858,0.86286 0.06254,0.0739 0.221911,0.24239 0.148711,0.37697 -0.02672,0.0491 -0.09083,0.0653 -0.136239,0.0979 -0.08775,0.0354 -0.172519,0.0794 -0.263242,0.1063 -0.277064,0.0822 -0.569164,0.11656 -0.854625,0.1499 -0.429263,0.0501 -0.860687,0.0875 -1.290773,0.13022 -0.280045,0.0234 -0.159938,0.0159 -0.360063,0.0263 -0.02548,0.007 0.06789,0.36683 0.09336,0.36023 v 0 c 0.225211,0.009 0.09386,0.007 0.394076,-0.002 0.66158,-0.0426 1.671714,-0.0788 2.266119,-0.3464 0.125312,-0.0564 0.232727,-0.14623 0.349091,-0.21935 0.06321,-0.10838 0.160308,-0.20315 0.189648,-0.32514 0.136932,-0.56937 -0.888426,-1.22686 -1.226272,-1.52964 -0.723644,-0.52529 -1.472473,-1.03741 -2.306209,-1.37301 -0.110109,-0.0337 -0.277072,-0.10339 -0.394769,-0.05 -0.207251,0.0939 -0.152604,0.2773 -0.0421,0.39601 0.14919,0.12788 0.326257,0.20359 0.495548,0.30122 0.227651,0.12744 0.477888,0.22286 0.669277,0.40521 0.355997,0.29879 0.753788,0.5197 1.213498,0.61905 0.432226,0.0856 0.585857,0.23196 0.920176,-0.19127 0.01987,-0.0252 -0.03996,-0.0547 -0.07001,-0.0659 -0.140584,-0.0522 -0.759722,-0.12265 -0.782214,-0.1257 -2.075019,-0.20006 -4.166044,-0.28336 -6.248979,-0.16898 -0.02559,0.007 0.06729,0.36824 0.09286,0.36168 z" />
    <path
       style="fill:#c47200;fill-opacity:1;stroke:#c47200;stroke-width:0.264999;stroke-linejoin:bevel;stroke-dasharray:8.46664, 0.352777;stroke-dashoffset:0"
       id="path14378"
       d="m 111.7182,63.018706 c -1.30701,-0.11862 -2.62987,-0.12347 -3.93178,0.0502 -0.12098,0.0345 -0.62391,0.0666 -0.58268,0.33737 0.0399,0.26231 0.30742,0.2894 0.5038,0.33323 0.50075,0.11968 0.72333,-0.27109 0.20874,-0.50638 -0.15374,-0.0512 -0.30452,-0.066 -0.46685,-0.05 -0.045,0.004 -0.15865,0.0735 -0.19709,0.0493 0.1674,-0.09 0.12232,0.10394 0.1898,0.11371 -0.54241,-0.68387 -0.0467,-0.21267 -0.31907,-0.3098 -0.007,-0.003 0.0122,-0.009 0.0183,-0.0131 -0.0189,-0.008 -0.0377,-0.0153 -0.0566,-0.0229 -1.3e-4,-0.003 -2.6e-4,-0.005 -2.6e-4,-0.008 -0.0136,-0.0219 -0.32278,0.17081 -0.30916,0.19267 v 0 c 0.13561,0.16272 0.22176,0.1957 0.44662,0.20691 0.0462,0.002 0.12852,0.031 0.13816,-0.0142 0.0246,-0.11575 -0.0182,-0.23934 -0.0607,-0.3498 -0.008,-0.0214 -0.0432,0.0156 -0.0648,0.0234 -0.13445,0.082 -0.24299,0.22019 -0.15542,0.38525 0.0202,0.038 0.0458,0.079 0.0847,0.0975 0.0629,0.0299 0.13674,0.0268 0.20511,0.0401 0.16311,-0.0385 0.19109,-0.0633 0.35413,-0.0265 0.17382,0.0408 0.0704,0.0294 0.1467,-0.0996 0.0486,-0.0821 0.24001,-0.0339 -0.0104,-0.054 -0.0496,-0.008 -0.0992,-0.016 -0.14864,-0.0245 -0.0406,-0.007 -0.0875,-0.0447 -0.12173,-0.0218 -0.0351,0.0235 -0.0112,0.0852 -0.0298,0.12321 -0.0142,0.0291 -0.0936,0.0559 -0.0655,0.072 0.12735,0.0726 0.31548,-0.33105 0.43303,-0.077 1.22054,-0.0943 2.44543,-0.0888 3.66887,-0.0787 0.0261,0.009 0.14861,-0.35999 0.12254,-0.36865 z" />
    <path
       style="fill:#c47200;fill-opacity:1;stroke:#c47200;stroke-width:0.264999;stroke-linejoin:bevel;stroke-dasharray:8.46664, 0.352777;stroke-dashoffset:0"
       id="path14380"
       d="m 107.87427,61.887046 c -0.5403,0.7711 -1.05173,1.56177 -1.58362,2.33875 -0.1465,0.26615 -0.6074,0.71046 -0.5381,1.05489 0.0101,0.0502 0.041,0.0939 0.0615,0.14091 0.0496,0.0286 0.0923,0.0771 0.14887,0.0858 0.18546,0.0287 0.27187,-0.0662 0.42092,-0.12746 0.0806,-0.0331 0.14471,-0.0348 0.23233,-0.0466 0.56126,-0.0273 1.12478,0.0173 1.68642,0.034 0.46991,2.6e-4 0.94428,0.0429 1.41336,-0.003 0.0277,-0.0138 0.0554,-0.0276 0.0831,-0.0415 0.021,-0.0142 -0.17897,-0.31175 -0.20001,-0.29761 v 0 c 0.005,-0.004 0.01,-0.008 0.0143,-0.012 -0.39943,-0.009 -0.79905,-0.0168 -1.19819,-0.0359 -0.64906,-0.0269 -1.30653,-0.0701 -1.95266,0.0122 -0.14011,0.0362 -0.2527,0.0782 -0.38173,0.13983 -0.0203,0.01 -0.0691,0.005 -0.0618,0.0267 0.0145,0.0429 0.14968,-0.0332 0.10755,0.0829 -0.003,0.0153 0.005,0.0371 -0.008,0.0459 -0.0439,0.0298 0.0185,-0.10635 0.0432,-0.15332 0.13348,-0.25336 0.33505,-0.46347 0.49372,-0.69968 0.55418,-0.76887 1.07317,-1.5624 1.55449,-2.37904 0.0118,-0.0238 -0.32423,-0.18986 -0.33597,-0.1661 z" />
    <text
       xml:space="preserve"
       style="font-size:6.35px;line-height:1.25;font-family:'Arciform (unicode)';-inkscape-font-specification:'Arciform (unicode)';stroke-width:0.264583"
       x="22.065504"
       y="11.339933"
       id="text14799"><tspan
         sodipodi:role="line"
         id="tspan14797"
         style="font-size:6.35px;stroke-width:0.264583"
         x="22.065504"
         y="11.339933">Вращение</tspan></text>
    <path
       style="fill:#c47200;fill-opacity:1;stroke:#c47200;stroke-width:0.264999;stroke-linejoin:bevel;stroke-dasharray:8.46664, 0.352777;stroke-dashoffset:0"
       id="path14851"
       d="m 26.34687,16.372179 c 0.04746,0.62203 0.182224,1.239872 0.18759,1.865339 0.0019,0.202869 -0.01429,0.4055 -0.02143,0.60825 -0.03362,0.61291 -0.09748,1.225008 -0.219991,1.826999 -0.05743,0.282175 -0.115975,0.548404 -0.275966,0.788302 -0.01397,0.0041 -0.02978,0.02048 -0.04189,0.01241 -0.09009,-0.06017 0.300186,-0.02326 0.185396,0.06807 -0.08096,0.06442 -0.182173,0.09813 -0.273262,0.147191 0.05672,0.06403 0.05782,0.16378 0.288219,-0.187362 0.02392,-0.03644 -0.04716,-0.07349 -0.06677,-0.112398 -0.02751,-0.05457 -0.04957,-0.111712 -0.07436,-0.167568 -0.225391,-0.672622 0.0558,-1.279269 0.335065,-1.885948 0.262575,-0.588129 0.578488,-1.161814 0.720691,-1.795436 0.07332,-0.326686 0.06072,-0.381005 0.07028,-0.700587 -0.0074,-0.342887 -0.135313,-0.629801 -0.338971,-0.894901 -0.128858,-0.17381 -0.256106,-0.348054 -0.401278,-0.508764 -0.0699,-0.03994 -0.091,-0.130649 -0.139988,-0.184846 -0.005,-0.0055 0.0081,0.01373 0.0072,0.02109 -0.0039,0.03117 -0.01426,0.06118 -0.02138,0.09177 -0.203552,0.06425 -0.224494,0.03485 -0.09093,0.123293 0.157253,0.104129 0.309293,0.153146 0.490879,0.202459 0.454091,0.07317 0.911082,0.110921 1.351135,0.251431 0.280495,0.115546 0.550494,0.272277 0.720246,0.529466 0.09965,0.255539 0.169341,0.521149 0.269904,0.777382 0.186441,0.401469 0.340759,0.810734 0.417354,1.247246 0.05713,0.347314 -0.0083,0.526294 -0.247804,0.765281 -0.279736,0.237413 -0.549701,0.48545 -0.813318,0.740537 -0.368324,0.333656 -0.677389,0.72472 -1.03037,1.072896 -0.156332,0.131942 -0.336574,0.289444 -0.555456,0.284779 -0.0062,-1.32e-4 0.01863,-0.0085 0.01378,-0.01233 -0.01151,-0.0092 -0.02854,-0.0072 -0.0428,-0.0108 -0.09031,-0.09285 -0.05756,-0.0896 -0.214527,-0.181091 -0.01135,-0.0041 -0.0227,-0.0082 -0.03405,-0.01228 -0.02138,-0.01431 -0.223954,0.28787 -0.202587,0.302197 v 0 c 0.03361,0.01513 0.06722,0.03025 0.100836,0.04538 -0.08762,-0.23273 0.03346,0.111072 0.156506,0.156258 0.404694,0.173143 0.787289,-0.06447 1.082993,-0.334831 0.349019,-0.350385 0.671676,-0.726273 1.026152,-1.071565 0.264945,-0.259358 0.540379,-0.507 0.814882,-0.756108 0.289052,-0.320368 0.393105,-0.605927 0.330229,-1.044257 -0.0793,-0.460833 -0.238405,-0.891937 -0.442603,-1.312309 -0.114832,-0.271074 -0.186685,-0.55561 -0.298746,-0.827165 -0.20279,-0.325403 -0.504936,-0.541927 -0.85792,-0.688533 -0.445725,-0.162097 -0.909859,-0.224734 -1.380834,-0.266803 -0.110291,-0.01982 -0.200358,-0.02901 -0.303511,-0.07068 -0.05452,-0.02201 -0.245316,-0.170934 -0.282988,-0.17346 -0.08629,-0.0058 -0.170688,0.02796 -0.256029,0.04194 -0.01905,0.04221 -0.0466,0.08155 -0.05716,0.126643 -0.0335,0.142999 0.112956,0.284887 0.19251,0.380656 0.141767,0.153479 0.261279,0.324435 0.388152,0.490082 0.162983,0.202518 0.256252,0.418087 0.253124,0.687015 -0.01392,0.285043 -0.0033,0.322696 -0.07486,0.616992 -0.149653,0.615828 -0.478737,1.164619 -0.717629,1.746642 -0.307761,0.725691 -0.578147,1.385295 -0.293383,2.168575 0.03623,0.07445 0.154384,0.333748 0.188854,0.340413 0.492403,0.09518 0.436536,-0.04673 0.29609,-0.245089 -0.119274,0.02387 -0.2496,0.01606 -0.357823,0.0716 -0.01431,0.0073 0.0097,0.163509 0.08085,0.203361 0.191696,0.1074 0.321162,0.04317 0.465595,-0.08533 0.526413,-0.766927 0.52986,-1.900449 0.606256,-2.792217 -7.94e-4,-0.213145 0.0052,-0.426421 -0.0024,-0.63944 -0.02217,-0.634047 -0.137946,-1.260887 -0.237093,-1.885822 -0.0033,-0.02622 -0.374026,0.01974 -0.370774,0.04595 z" />
    <path
       style="fill:#c47200;fill-opacity:1;stroke:#c47200;stroke-width:0.264999;stroke-linejoin:bevel;stroke-dasharray:8.46664, 0.352777;stroke-dashoffset:0"
       id="path15216"
       d="m 24.53321,14.046841 c 0.733324,-0.05338 1.466797,-0.10422 2.202032,-0.120306 0.329004,-0.0078 0.659762,0.05181 0.978434,-0.05213 0.196435,-0.0797 0.410525,-0.08952 0.617127,-0.129773 0.326007,-0.05046 0.656826,-0.06136 0.986264,-0.06121 0.236529,0.0032 0.114816,0.02789 0.08084,-0.326038 -5.29e-4,-0.0061 0.02207,-0.0064 0.0163,-0.0085 -0.02687,-0.0096 -0.0561,-0.01056 -0.08415,-0.01582 -0.350849,-0.122947 -0.682938,-0.292923 -1.023581,-0.440733 -0.07032,-0.04005 -0.647607,-0.206282 -0.665197,-0.05088 -0.01101,0.09723 0.02859,0.1936 0.04288,0.290401 0.203276,0.108053 0.44101,0.100507 0.663964,0.07432 0.02273,0.0011 0.04731,-0.0058 0.06818,0.0033 0.0074,0.0032 -0.019,0.0164 -0.0123,0.02098 0.109114,0.0746 0.235659,0.120531 0.34762,0.19078 0.197366,0.123836 0.284666,0.18841 0.479015,0.323929 0.359413,0.299739 0.805437,0.477536 1.167821,0.76988 -0.0284,-0.01029 0.08663,0.0677 0.06189,0.09702 -0.0054,0.0064 -0.01463,-0.0098 -0.02302,-0.01013 -0.01297,-5.3e-4 -0.02585,0.0035 -0.03815,0.0076 -0.06461,0.02177 -0.127228,0.04908 -0.191461,0.07193 -0.379412,0.129831 -0.775255,0.181686 -1.175138,0.173738 -0.19562,-7.93e-4 -0.388274,-0.01701 -0.580726,-0.04986 -0.02453,-0.0109 -0.178668,0.336108 -0.154131,0.347009 v 0 c 0.210688,0.04764 0.42032,0.07662 0.63735,0.07708 0.506132,-7.94e-4 1.009422,-0.0335 1.481164,-0.236771 0.332975,-0.160636 0.554034,-0.380463 0.263593,-0.727244 -0.354875,-0.316825 -0.804119,-0.510328 -1.175022,-0.808882 -0.37718,-0.259119 -0.790284,-0.611034 -1.272924,-0.595569 -0.08988,0.0047 -0.194307,0.01302 -0.308313,0.0019 -0.0312,0.195154 0.01992,0.270939 -0.150715,0.261663 -0.01937,-0.0011 0.03907,-0.0019 0.05819,0.0016 0.09539,0.01667 0.168323,0.04919 0.260607,0.08293 0.359315,0.156779 0.71043,0.334465 1.083254,0.458568 0.06553,0.01598 0.292463,0.08039 0.336421,0.03707 0.338603,-0.333666 0.101729,-0.358764 -0.09392,-0.381944 -0.413965,-0.01169 -0.830308,-0.0074 -1.23698,0.08181 -0.215191,0.04379 -0.436065,0.06198 -0.641356,0.146081 -0.02673,0.0069 -0.05515,0.0091 -0.0802,0.02069 -0.0058,0.0027 0.02357,0.0082 0.01717,0.0085 -0.280239,0.01342 -0.562404,-0.06963 -0.843402,-0.03758 -0.745773,7.93e-4 -1.492498,0.0394 -2.230667,0.150561 -0.02503,0.0093 0.106196,0.363312 0.131228,0.354033 z" />
    <path
       style="fill:#d40000;fill-opacity:1;stroke:#aa0000;stroke-width:0.264999;stroke-linejoin:bevel;stroke-dasharray:8.46664, 0.352777;stroke-dashoffset:0"
       id="path15218"
       d="m 60.340806,24.419764 c 1.299943,-0.463867 2.609485,-0.883933 3.949315,-1.216803 0.62125,-0.154178 1.17526,-0.222469 1.78232,-0.02029 0.35351,0.174593 0.72458,0.213346 1.11263,0.224903 0.51788,-0.02045 1.0145,0.07971 1.50671,0.228566 0.40237,0.13862 0.81314,0.241906 1.23715,0.280075 0.18212,0.108024 0.036,-0.05949 0.0341,-0.0495 -0.007,0.03961 0.018,0.07861 0.0289,0.117404 0.041,0.09342 0.023,0.05786 0.0654,0.13363 0.006,0.0245 0.35285,-0.06404 0.34659,-0.08855 v 0 c -0.015,-0.04996 -0.0315,-0.0941 -0.0615,-0.13729 -0.0625,-0.165015 -0.0687,-0.30998 -0.28892,-0.324908 -0.40089,-0.05219 -0.79288,-0.13498 -1.1738,-0.275053 -0.51939,-0.15952 -1.0447,-0.286192 -1.59334,-0.259548 -0.35697,1.82e-4 -0.69346,0.0049 -1.01643,-0.173241 -0.75547,-0.302655 -1.38544,-0.224166 -2.17641,-0.06439 -1.35618,0.312809 -2.677471,0.74242 -3.957401,1.291624 -0.02357,0.01447 0.181052,0.347842 0.204626,0.333375 z" />
    <path
       style="fill:#aa0000;fill-opacity:1;stroke:#aa0000;stroke-width:0.264999;stroke-linejoin:bevel;stroke-dasharray:8.46664, 0.352777;stroke-dashoffset:0"
       id="path15220"
       d="m 62.037171,26.049576 c 1.40516,-0.40767 2.82128,-0.776906 4.26685,-1.00852 0.54854,-0.09943 1.08079,-0.05242 1.61621,0.07338 0.42976,0.09059 0.86937,0.05992 1.30346,0.118168 0.41497,0.05925 0.8037,0.219072 1.19759,0.353983 0.0204,0.006 0.0523,0.03733 0.0613,0.01805 0.0507,-0.108175 0.10888,-0.227931 0.0924,-0.346239 -0.007,-0.05098 -0.0977,-0.0324 -0.14714,-0.04677 -0.25424,-0.07388 -0.51333,-0.129223 -0.77161,-0.186423 -1.20062,-0.244216 -2.41844,-0.374412 -3.64039,-0.44341 -0.81989,-0.05468 -1.63397,0.0158 -2.44719,0.105368 -0.41076,0.0218 -0.81147,0.01929 -1.21342,0.119306 -0.36254,0.133601 -0.61129,0.416192 -0.829082,0.721696 -0.04334,0.05486 -0.08653,0.108085 -0.116938,0.171008 -0.0109,0.02273 0.310539,0.177099 0.32146,0.154368 v 0 c 0.0373,-0.0402 0.0866,-0.09213 0.11656,-0.13725 0.17873,-0.238087 0.37992,-0.466934 0.67146,-0.563504 0.38861,-0.0808 0.7809,-0.07713 1.17558,-0.103089 0.72751,-0.06284 1.45797,-0.07542 2.18734,-0.03099 1.20946,0.06645 2.41675,0.173325 3.61185,0.376541 0.2561,0.04393 0.50895,0.09113 0.7622,0.148754 0.0444,0.01011 0.0946,0.05488 0.13326,0.03078 0.11139,-0.06935 0.19318,-0.179472 0.27293,-0.283668 0.009,-0.01222 -0.0288,-0.01101 -0.0432,-0.01651 -0.40336,-0.177729 -0.81974,-0.332386 -1.25572,-0.407244 -0.42574,-0.05814 -0.85131,-0.03922 -1.27639,-0.09215 -0.20288,-0.0532 -0.40817,-0.121779 -0.61681,-0.148071 -0.44156,-0.05564 -0.88739,-0.04615 -1.32938,-0.0024 -1.47161,0.199601 -2.91898,0.560496 -4.30624,1.094666 -0.0233,0.01434 0.17965,0.344471 0.20299,0.330118 z" />
    <path
       style="fill:#d40000;fill-opacity:1;stroke:#aa0000;stroke-width:0.264999;stroke-linejoin:bevel;stroke-dasharray:8.46664, 0.352777;stroke-dashoffset:0"
       id="path15222"
       d="m 68.048321,22.158582 c 0.88294,0.438311 1.77903,0.849349 2.66404,1.283375 0.28017,0.17341 0.74444,0.309671 0.92945,0.60979 0.0292,0.04734 0.0466,0.101 0.0699,0.151501 0.15745,0.560935 -0.0165,1.012877 -0.37229,1.44858 -0.41824,0.415338 -0.96933,0.548002 -1.5333,0.633452 -0.70626,0.08304 -1.41861,0.07771 -2.1256,0.01066 -0.0523,-0.0062 -0.10451,-0.01225 -0.15674,-0.01863 -0.0787,-0.0096 -0.20565,-0.02609 -0.20587,-0.02553 -0.14544,0.366678 -0.19233,0.311801 0.007,0.385479 0.42428,0.108972 0.86972,0.07483 1.29965,0.02241 0.67286,-0.140301 1.33094,-0.395161 1.8932,-0.796312 0.12498,-0.08917 0.24037,-0.191084 0.36054,-0.286625 0.51218,-0.420738 0.86485,-0.959835 1.1557,-1.545156 0.16073,-0.299324 0.32845,-0.594683 0.42937,-0.920211 0.003,-0.06715 0.0265,-0.13653 0.009,-0.201432 -0.0781,-0.290148 -0.25109,-0.435642 -0.49594,-0.608523 -0.60998,-0.430686 -1.31934,-0.618858 -2.02478,-0.82355 -0.78478,-0.175877 -1.58722,-0.288896 -2.3933,-0.264959 -0.36095,0.01072 -0.62269,0.02209 -0.94792,0.142316 -0.0817,0.03021 -0.15549,0.07864 -0.23323,0.117965 -0.23304,0.16056 -0.4589,0.469736 -0.18092,0.71651 0.0601,0.05331 0.13951,0.07953 0.20926,0.119298 0.71409,0.259199 1.44687,0.452422 2.15615,0.727422 0.68942,0.285723 1.34748,0.640273 2.01654,0.969832 0.46408,0.212487 0.91547,0.447448 1.3398,0.73129 0.39096,0.302152 0.8547,0.561488 1.12948,0.983509 0.001,0.02625 0.017,0.05624 0.003,0.07876 -0.0107,0.01786 -0.0408,0.0091 -0.0604,0.01606 -0.0409,0.01439 -0.08,0.03366 -0.12097,0.04778 -0.33407,0.115064 -0.68154,0.185608 -1.02518,0.264956 -1.08013,0.266719 -2.17632,0.425993 -3.28627,0.483688 -0.12423,0.0044 -0.24847,0.0084 -0.37268,0.0132 -0.009,2.65e-4 -0.33093,0.0096 -0.39118,0.02514 -0.23818,0.06135 -0.14288,0.320487 0.0293,0.428905 0.18517,0.110046 0.30189,0.105487 0.49789,0.01304 0.021,-0.01532 -0.19557,-0.312504 -0.21658,-0.29719 v 0 c -0.0659,0.03463 -0.061,0.02098 0.0533,0.04188 0.0344,0.0063 -0.16952,-0.03901 -0.0983,-0.03665 -0.0217,-0.01201 -0.0493,-0.05519 -0.065,-0.03601 -0.0555,0.06791 -0.18389,0.236577 -0.0966,0.244729 0.25857,0.02413 0.52211,-0.0024 0.78067,0.009 1.13411,-0.04429 2.25294,-0.212698 3.34901,-0.513241 0.3821,-0.09958 1.31871,-0.24052 1.39494,-0.746411 0.0105,-0.06993 -0.023,-0.139549 -0.0345,-0.209325 -0.0394,-0.06585 -0.0719,-0.136425 -0.11832,-0.197538 -0.28597,-0.376333 -0.71977,-0.616183 -1.08815,-0.898665 -0.43428,-0.293079 -0.89028,-0.54583 -1.36473,-0.768578 -0.67485,-0.339291 -1.34011,-0.699743 -2.03197,-1.00344 -0.70732,-0.273995 -1.43388,-0.476097 -2.16239,-0.684908 -0.0461,-0.01254 -0.0909,-0.03171 -0.13831,-0.03759 -0.0203,-0.0026 -0.0588,0.02981 -0.0607,0.0094 -0.008,-0.0828 0.13378,-0.145566 0.17504,-0.178494 0.46906,-0.185203 0.98341,-0.157718 1.47884,-0.120504 0.75124,0.05643 0.898,0.101899 1.65581,0.234122 0.70963,0.178186 1.30269,0.322974 1.94379,0.684416 0.0244,0.01376 0.36446,0.210471 0.41897,0.316397 0.0171,0.03324 0.002,0.07473 0.003,0.112093 -0.0981,0.305798 -0.26279,0.585237 -0.41558,0.866378 -0.28961,0.532061 -0.63299,1.021297 -1.10925,1.407266 -0.28307,0.222369 -0.37135,0.309687 -0.68534,0.485571 -0.43477,0.243539 -0.91789,0.404419 -1.40122,0.516552 -0.32605,0.04094 -0.65768,0.07056 -0.98518,0.02521 -0.19034,-0.04638 -0.0777,-0.04316 -0.29868,0.274077 -0.0149,0.02146 0.0519,0.0069 0.0775,0.01252 0.0341,0.0075 0.0678,0.0164 0.10199,0.02339 0.0538,0.01101 0.10796,0.0204 0.16194,0.0306 0.80188,0.124044 1.61903,0.129656 2.42236,0.0087 0.63275,-0.133107 1.24924,-0.316952 1.70499,-0.804262 0.0639,-0.08304 0.13566,-0.160644 0.19183,-0.249132 0.29624,-0.466677 0.3785,-1.027919 0.20194,-1.551895 -0.0361,-0.07156 -0.0657,-0.14683 -0.10837,-0.214685 -0.22329,-0.354986 -0.65627,-0.527177 -0.99555,-0.738701 -0.88189,-0.457213 -1.77778,-0.889569 -2.69788,-1.264928 -0.0223,-0.01535 -0.23935,0.300493 -0.21701,0.315839 z" />
    <path
       style="fill:#c47200;fill-opacity:1;stroke:#c47200;stroke-width:0.194554;stroke-linejoin:bevel;stroke-dasharray:6.21595, 0.258998;stroke-dashoffset:0"
       id="path14370-3"
       d="m 71.696601,107.65715 c -0.26178,-0.41765 -0.52361,-0.83601 -0.77917,-1.27394 -0.11293,-0.14916 -0.15958,-0.40303 -0.22937,-0.63463 -0.21738,-0.53056 -0.4621,-0.99488 -0.72112,-1.41136 -0.0925,-0.15083 -0.26126,-0.24588 0.0248,-0.4028 0.0228,-0.0125 0.0361,0.0695 0.0547,0.10255 0.0202,0.036 0.0412,0.0696 0.0618,0.10445 0.0994,0.17991 0.15777,0.15434 0.26651,0.10612 0.19833,-0.14122 0.34751,-0.0441 0.52808,0.14587 0.14705,0.1614 0.27719,0.4083 0.43728,0.49908 0.005,-0.004 0.0179,-0.0203 0.0142,-0.0124 -0.0377,0.081 -0.0717,0.1768 -0.11709,0.23306 -0.0129,0.016 -0.0276,-0.0234 -0.0409,-0.0371 -0.10343,-0.10612 -0.20375,-0.19646 -0.31169,-0.27785 -0.30883,-0.25276 -0.63574,-0.21716 -0.95724,-0.18193 -0.22195,0.0484 -0.47993,0.14565 -0.62801,0.58159 -0.02,0.059 -0.0311,0.13175 -0.0467,0.19763 -0.0452,0.47564 0.0562,0.92769 0.119,1.37077 0.007,0.0534 0.0135,0.10668 0.0202,0.16008 0.003,0.0286 -0.17125,0.13662 -0.17455,0.10802 v 0 c -0.008,-0.0505 -0.0154,-0.10098 -0.0231,-0.15151 -0.0831,-0.54106 -0.18977,-1.08445 -0.113,-1.66531 0.023,-0.0967 0.0403,-0.20178 0.0689,-0.29014 0.16767,-0.51869 0.45761,-0.6758 0.71918,-0.74483 0.37466,-0.06 0.75476,-0.0667 1.1127,0.23454 0.11443,0.0991 0.23767,0.19126 0.33865,0.35713 0.025,0.0411 0.0708,0.0695 0.0694,0.14054 -0.003,0.13404 -0.0412,0.25725 -0.0795,0.35803 -0.0114,0.0302 -0.0344,-0.009 -0.0517,-0.0126 -0.16657,-0.11093 -0.30789,-0.33835 -0.46136,-0.51801 -0.11827,-0.12478 -0.22073,-0.2129 -0.34902,-0.11515 -0.17355,0.0884 -0.32627,0.0698 -0.47048,-0.19058 -4.9e-4,-8.8e-4 -0.12606,-0.22198 -0.1252,-0.24447 0.0234,-0.60894 0.12517,-0.32596 0.24381,-0.17741 0.2807,0.42577 0.54644,0.92128 0.75033,1.54409 0.0584,0.2286 0.0939,0.3738 0.20135,0.51222 0.26321,0.41535 0.52808,0.82632 0.77681,1.28817 0.009,0.021 -0.11943,0.3191 -0.12853,0.29806 z" />
  </g>
</svg>
