<?xml version="1.0" encoding="utf-8" standalone="no"?>
<!DOCTYPE svg PUBLIC "-//W3C//DTD SVG 1.1//EN"
  "http://www.w3.org/Graphics/SVG/1.1/DTD/svg11.dtd">
<svg xmlns:xlink="http://www.w3.org/1999/xlink" width="460.8pt" height="345.6pt" viewBox="0 0 460.8 345.6" xmlns="http://www.w3.org/2000/svg" version="1.1">
 <metadata>
  <rdf:RDF xmlns:dc="http://purl.org/dc/elements/1.1/" xmlns:cc="http://creativecommons.org/ns#" xmlns:rdf="http://www.w3.org/1999/02/22-rdf-syntax-ns#">
   <cc:Work>
    <dc:type rdf:resource="http://purl.org/dc/dcmitype/StillImage"/>
    <dc:date>2023-01-27T01:10:24.519430</dc:date>
    <dc:format>image/svg+xml</dc:format>
    <dc:creator>
     <cc:Agent>
      <dc:title>Matplotlib v3.6.2, https://matplotlib.org/</dc:title>
     </cc:Agent>
    </dc:creator>
   </cc:Work>
  </rdf:RDF>
 </metadata>
 <defs>
  <style type="text/css">*{stroke-linejoin: round; stroke-linecap: butt}</style>
 </defs>
 <g id="figure_1">
  <g id="patch_1">
   <path d="M 0 345.6 
L 460.8 345.6 
L 460.8 0 
L 0 0 
L 0 345.6 
z
" style="fill: none"/>
  </g>
  <g id="axes_1">
   <g id="patch_2">
    <path d="M 56.015346 300.328 
L 450 300.328 
L 450 25.44 
L 56.015346 25.44 
L 56.015346 300.328 
z
" style="fill: none"/>
   </g>
   <g id="matplotlib.axis_1">
    <g id="xtick_1">
     <g id="line2d_1">
      <path d="M 397.381554 300.328 
L 397.381554 25.44 
" clip-path="url(#p71daf766f4)" style="fill: none; stroke-dasharray: 0.8,1.32; stroke-dashoffset: 0; stroke: #b0b0b0; stroke-width: 0.8"/>
     </g>
     <g id="line2d_2">
      <defs>
       <path id="mde24669925" d="M 0 0 
L 0 3.5 
" style="stroke: #000000; stroke-width: 0.8"/>
      </defs>
      <g>
       <use xlink:href="#mde24669925" x="397.381554" y="300.328" style="stroke: #000000; stroke-width: 0.8"/>
      </g>
     </g>
     <g id="text_1">
      <!-- $\mathdefault{10^{-1}}$ -->
      <g transform="translate(385.631554 314.926437) scale(0.1 -0.1)">
       <defs>
        <path id="DejaVuSans-31" d="M 794 531 
L 1825 531 
L 1825 4091 
L 703 3866 
L 703 4441 
L 1819 4666 
L 2450 4666 
L 2450 531 
L 3481 531 
L 3481 0 
L 794 0 
L 794 531 
z
" transform="scale(0.015625)"/>
        <path id="DejaVuSans-30" d="M 2034 4250 
Q 1547 4250 1301 3770 
Q 1056 3291 1056 2328 
Q 1056 1369 1301 889 
Q 1547 409 2034 409 
Q 2525 409 2770 889 
Q 3016 1369 3016 2328 
Q 3016 3291 2770 3770 
Q 2525 4250 2034 4250 
z
M 2034 4750 
Q 2819 4750 3233 4129 
Q 3647 3509 3647 2328 
Q 3647 1150 3233 529 
Q 2819 -91 2034 -91 
Q 1250 -91 836 529 
Q 422 1150 422 2328 
Q 422 3509 836 4129 
Q 1250 4750 2034 4750 
z
" transform="scale(0.015625)"/>
        <path id="DejaVuSans-2212" d="M 678 2272 
L 4684 2272 
L 4684 1741 
L 678 1741 
L 678 2272 
z
" transform="scale(0.015625)"/>
       </defs>
       <use xlink:href="#DejaVuSans-31" transform="translate(0 0.684375)"/>
       <use xlink:href="#DejaVuSans-30" transform="translate(63.623047 0.684375)"/>
       <use xlink:href="#DejaVuSans-2212" transform="translate(128.203125 38.965625) scale(0.7)"/>
       <use xlink:href="#DejaVuSans-31" transform="translate(186.855469 38.965625) scale(0.7)"/>
      </g>
     </g>
    </g>
    <g id="xtick_2">
     <g id="line2d_3">
      <defs>
       <path id="m35abc81187" d="M 0 0 
L 0 2 
" style="stroke: #000000; stroke-width: 0.6"/>
      </defs>
      <g>
       <use xlink:href="#m35abc81187" x="147.032958" y="300.328" style="stroke: #000000; stroke-width: 0.6"/>
      </g>
     </g>
    </g>
    <g id="xtick_3">
     <g id="line2d_4">
      <g>
       <use xlink:href="#m35abc81187" x="210.103189" y="300.328" style="stroke: #000000; stroke-width: 0.6"/>
      </g>
     </g>
    </g>
    <g id="xtick_4">
     <g id="line2d_5">
      <g>
       <use xlink:href="#m35abc81187" x="254.85223" y="300.328" style="stroke: #000000; stroke-width: 0.6"/>
      </g>
     </g>
    </g>
    <g id="xtick_5">
     <g id="line2d_6">
      <g>
       <use xlink:href="#m35abc81187" x="289.562282" y="300.328" style="stroke: #000000; stroke-width: 0.6"/>
      </g>
     </g>
    </g>
    <g id="xtick_6">
     <g id="line2d_7">
      <g>
       <use xlink:href="#m35abc81187" x="317.922461" y="300.328" style="stroke: #000000; stroke-width: 0.6"/>
      </g>
     </g>
    </g>
    <g id="xtick_7">
     <g id="line2d_8">
      <g>
       <use xlink:href="#m35abc81187" x="341.900649" y="300.328" style="stroke: #000000; stroke-width: 0.6"/>
      </g>
     </g>
    </g>
    <g id="xtick_8">
     <g id="line2d_9">
      <g>
       <use xlink:href="#m35abc81187" x="362.671501" y="300.328" style="stroke: #000000; stroke-width: 0.6"/>
      </g>
     </g>
    </g>
    <g id="xtick_9">
     <g id="line2d_10">
      <g>
       <use xlink:href="#m35abc81187" x="380.992691" y="300.328" style="stroke: #000000; stroke-width: 0.6"/>
      </g>
     </g>
    </g>
    <g id="text_2">
     <!-- Δx -->
     <g transform="translate(246.627986 328.604562) scale(0.1 -0.1)">
      <defs>
       <path id="DejaVuSans-394" d="M 2188 4044 
L 906 525 
L 3472 525 
L 2188 4044 
z
M 50 0 
L 1831 4666 
L 2547 4666 
L 4325 0 
L 50 0 
z
" transform="scale(0.015625)"/>
       <path id="DejaVuSans-78" d="M 3513 3500 
L 2247 1797 
L 3578 0 
L 2900 0 
L 1881 1375 
L 863 0 
L 184 0 
L 1544 1831 
L 300 3500 
L 978 3500 
L 1906 2253 
L 2834 3500 
L 3513 3500 
z
" transform="scale(0.015625)"/>
      </defs>
      <use xlink:href="#DejaVuSans-394"/>
      <use xlink:href="#DejaVuSans-78" x="68.408203"/>
     </g>
    </g>
   </g>
   <g id="matplotlib.axis_2">
    <g id="ytick_1">
     <g id="line2d_11">
      <path d="M 56.015346 225.555519 
L 450 225.555519 
" clip-path="url(#p71daf766f4)" style="fill: none; stroke-dasharray: 0.8,1.32; stroke-dashoffset: 0; stroke: #b0b0b0; stroke-width: 0.8"/>
     </g>
     <g id="line2d_12">
      <defs>
       <path id="md54d87c666" d="M 0 0 
L -3.5 0 
" style="stroke: #000000; stroke-width: 0.8"/>
      </defs>
      <g>
       <use xlink:href="#md54d87c666" x="56.015346" y="225.555519" style="stroke: #000000; stroke-width: 0.8"/>
      </g>
     </g>
     <g id="text_3">
      <!-- $\mathdefault{10^{-4}}$ -->
      <g transform="translate(25.515346 229.354738) scale(0.1 -0.1)">
       <defs>
        <path id="DejaVuSans-34" d="M 2419 4116 
L 825 1625 
L 2419 1625 
L 2419 4116 
z
M 2253 4666 
L 3047 4666 
L 3047 1625 
L 3713 1625 
L 3713 1100 
L 3047 1100 
L 3047 0 
L 2419 0 
L 2419 1100 
L 313 1100 
L 313 1709 
L 2253 4666 
z
" transform="scale(0.015625)"/>
       </defs>
       <use xlink:href="#DejaVuSans-31" transform="translate(0 0.684375)"/>
       <use xlink:href="#DejaVuSans-30" transform="translate(63.623047 0.684375)"/>
       <use xlink:href="#DejaVuSans-2212" transform="translate(128.203125 38.965625) scale(0.7)"/>
       <use xlink:href="#DejaVuSans-34" transform="translate(186.855469 38.965625) scale(0.7)"/>
      </g>
     </g>
    </g>
    <g id="ytick_2">
     <g id="line2d_13">
      <path d="M 56.015346 113.271137 
L 450 113.271137 
" clip-path="url(#p71daf766f4)" style="fill: none; stroke-dasharray: 0.8,1.32; stroke-dashoffset: 0; stroke: #b0b0b0; stroke-width: 0.8"/>
     </g>
     <g id="line2d_14">
      <g>
       <use xlink:href="#md54d87c666" x="56.015346" y="113.271137" style="stroke: #000000; stroke-width: 0.8"/>
      </g>
     </g>
     <g id="text_4">
      <!-- $\mathdefault{10^{-3}}$ -->
      <g transform="translate(25.515346 117.070355) scale(0.1 -0.1)">
       <defs>
        <path id="DejaVuSans-33" d="M 2597 2516 
Q 3050 2419 3304 2112 
Q 3559 1806 3559 1356 
Q 3559 666 3084 287 
Q 2609 -91 1734 -91 
Q 1441 -91 1130 -33 
Q 819 25 488 141 
L 488 750 
Q 750 597 1062 519 
Q 1375 441 1716 441 
Q 2309 441 2620 675 
Q 2931 909 2931 1356 
Q 2931 1769 2642 2001 
Q 2353 2234 1838 2234 
L 1294 2234 
L 1294 2753 
L 1863 2753 
Q 2328 2753 2575 2939 
Q 2822 3125 2822 3475 
Q 2822 3834 2567 4026 
Q 2313 4219 1838 4219 
Q 1578 4219 1281 4162 
Q 984 4106 628 3988 
L 628 4550 
Q 988 4650 1302 4700 
Q 1616 4750 1894 4750 
Q 2613 4750 3031 4423 
Q 3450 4097 3450 3541 
Q 3450 3153 3228 2886 
Q 3006 2619 2597 2516 
z
" transform="scale(0.015625)"/>
       </defs>
       <use xlink:href="#DejaVuSans-31" transform="translate(0 0.765625)"/>
       <use xlink:href="#DejaVuSans-30" transform="translate(63.623047 0.765625)"/>
       <use xlink:href="#DejaVuSans-2212" transform="translate(128.203125 39.046875) scale(0.7)"/>
       <use xlink:href="#DejaVuSans-33" transform="translate(186.855469 39.046875) scale(0.7)"/>
      </g>
     </g>
    </g>
    <g id="ytick_3">
     <g id="line2d_15">
      <defs>
       <path id="m66cfcc1cbe" d="M 0 0 
L -2 0 
" style="stroke: #000000; stroke-width: 0.6"/>
      </defs>
      <g>
       <use xlink:href="#m66cfcc1cbe" x="56.015346" y="284.266636" style="stroke: #000000; stroke-width: 0.6"/>
      </g>
     </g>
    </g>
    <g id="ytick_4">
     <g id="line2d_16">
      <g>
       <use xlink:href="#m66cfcc1cbe" x="56.015346" y="270.237967" style="stroke: #000000; stroke-width: 0.6"/>
      </g>
     </g>
    </g>
    <g id="ytick_5">
     <g id="line2d_17">
      <g>
       <use xlink:href="#m66cfcc1cbe" x="56.015346" y="259.356486" style="stroke: #000000; stroke-width: 0.6"/>
      </g>
     </g>
    </g>
    <g id="ytick_6">
     <g id="line2d_18">
      <g>
       <use xlink:href="#m66cfcc1cbe" x="56.015346" y="250.465669" style="stroke: #000000; stroke-width: 0.6"/>
      </g>
     </g>
    </g>
    <g id="ytick_7">
     <g id="line2d_19">
      <g>
       <use xlink:href="#m66cfcc1cbe" x="56.015346" y="242.94859" style="stroke: #000000; stroke-width: 0.6"/>
      </g>
     </g>
    </g>
    <g id="ytick_8">
     <g id="line2d_20">
      <g>
       <use xlink:href="#m66cfcc1cbe" x="56.015346" y="236.437" style="stroke: #000000; stroke-width: 0.6"/>
      </g>
     </g>
    </g>
    <g id="ytick_9">
     <g id="line2d_21">
      <g>
       <use xlink:href="#m66cfcc1cbe" x="56.015346" y="230.693371" style="stroke: #000000; stroke-width: 0.6"/>
      </g>
     </g>
    </g>
    <g id="ytick_10">
     <g id="line2d_22">
      <g>
       <use xlink:href="#m66cfcc1cbe" x="56.015346" y="191.754552" style="stroke: #000000; stroke-width: 0.6"/>
      </g>
     </g>
    </g>
    <g id="ytick_11">
     <g id="line2d_23">
      <g>
       <use xlink:href="#m66cfcc1cbe" x="56.015346" y="171.982254" style="stroke: #000000; stroke-width: 0.6"/>
      </g>
     </g>
    </g>
    <g id="ytick_12">
     <g id="line2d_24">
      <g>
       <use xlink:href="#m66cfcc1cbe" x="56.015346" y="157.953585" style="stroke: #000000; stroke-width: 0.6"/>
      </g>
     </g>
    </g>
    <g id="ytick_13">
     <g id="line2d_25">
      <g>
       <use xlink:href="#m66cfcc1cbe" x="56.015346" y="147.072104" style="stroke: #000000; stroke-width: 0.6"/>
      </g>
     </g>
    </g>
    <g id="ytick_14">
     <g id="line2d_26">
      <g>
       <use xlink:href="#m66cfcc1cbe" x="56.015346" y="138.181286" style="stroke: #000000; stroke-width: 0.6"/>
      </g>
     </g>
    </g>
    <g id="ytick_15">
     <g id="line2d_27">
      <g>
       <use xlink:href="#m66cfcc1cbe" x="56.015346" y="130.664207" style="stroke: #000000; stroke-width: 0.6"/>
      </g>
     </g>
    </g>
    <g id="ytick_16">
     <g id="line2d_28">
      <g>
       <use xlink:href="#m66cfcc1cbe" x="56.015346" y="124.152618" style="stroke: #000000; stroke-width: 0.6"/>
      </g>
     </g>
    </g>
    <g id="ytick_17">
     <g id="line2d_29">
      <g>
       <use xlink:href="#m66cfcc1cbe" x="56.015346" y="118.408988" style="stroke: #000000; stroke-width: 0.6"/>
      </g>
     </g>
    </g>
    <g id="ytick_18">
     <g id="line2d_30">
      <g>
       <use xlink:href="#m66cfcc1cbe" x="56.015346" y="79.470169" style="stroke: #000000; stroke-width: 0.6"/>
      </g>
     </g>
    </g>
    <g id="ytick_19">
     <g id="line2d_31">
      <g>
       <use xlink:href="#m66cfcc1cbe" x="56.015346" y="59.697871" style="stroke: #000000; stroke-width: 0.6"/>
      </g>
     </g>
    </g>
    <g id="ytick_20">
     <g id="line2d_32">
      <g>
       <use xlink:href="#m66cfcc1cbe" x="56.015346" y="45.669202" style="stroke: #000000; stroke-width: 0.6"/>
      </g>
     </g>
    </g>
    <g id="ytick_21">
     <g id="line2d_33">
      <g>
       <use xlink:href="#m66cfcc1cbe" x="56.015346" y="34.787721" style="stroke: #000000; stroke-width: 0.6"/>
      </g>
     </g>
    </g>
    <g id="ytick_22">
     <g id="line2d_34">
      <g>
       <use xlink:href="#m66cfcc1cbe" x="56.015346" y="25.896904" style="stroke: #000000; stroke-width: 0.6"/>
      </g>
     </g>
    </g>
    <g id="text_5">
     <!-- ε -->
     <g transform="translate(19.435659 165.586344) rotate(-90) scale(0.1 -0.1)">
      <defs>
       <path id="DejaVuSans-3b5" d="M 1234 1888 
Q 884 1963 697 2166 
Q 509 2366 509 2656 
Q 509 3097 866 3344 
Q 1219 3588 1831 3588 
Q 2069 3588 2334 3550 
Q 2600 3513 2906 3438 
L 2906 2916 
Q 2603 3006 2353 3047 
Q 2100 3088 1878 3088 
Q 1506 3088 1291 2944 
Q 1072 2800 1072 2600 
Q 1072 2381 1284 2241 
Q 1494 2103 1856 2103 
L 2341 2103 
L 2341 1628 
L 1878 1628 
Q 1450 1628 1225 1469 
Q 981 1294 981 1019 
Q 981 738 1244 563 
Q 1509 388 1981 388 
Q 2272 388 2538 444 
Q 2803 503 3025 619 
L 3025 84 
Q 2744 -3 2481 -47 
Q 2216 -91 1966 -91 
Q 1222 -91 819 194 
Q 416 478 416 1019 
Q 416 1356 631 1584 
Q 847 1813 1234 1888 
z
" transform="scale(0.015625)"/>
      </defs>
      <use xlink:href="#DejaVuSans-3b5"/>
     </g>
    </g>
   </g>
   <g id="line2d_35">
    <path d="M 432.091607 41.304288 
L 397.381554 125.339992 
L 369.021376 210.954212 
L 334.311323 183.031964 
L 289.562282 181.080689 
L 226.492052 195.054127 
L 181.743011 209.773212 
L 163.421821 217.616113 
L 118.67278 243.025388 
L 73.923739 287.833091 
" clip-path="url(#p71daf766f4)" style="fill: none; stroke: #1f77b4; stroke-width: 1.5; stroke-linecap: square"/>
    <defs>
     <path id="mc55fcdfc05" d="M 0 3 
C 0.795609 3 1.55874 2.683901 2.12132 2.12132 
C 2.683901 1.55874 3 0.795609 3 0 
C 3 -0.795609 2.683901 -1.55874 2.12132 -2.12132 
C 1.55874 -2.683901 0.795609 -3 0 -3 
C -0.795609 -3 -1.55874 -2.683901 -2.12132 -2.12132 
C -2.683901 -1.55874 -3 -0.795609 -3 0 
C -3 0.795609 -2.683901 1.55874 -2.12132 2.12132 
C -1.55874 2.683901 -0.795609 3 0 3 
z
" style="stroke: #1f77b4"/>
    </defs>
    <g clip-path="url(#p71daf766f4)">
     <use xlink:href="#mc55fcdfc05" x="432.091607" y="41.304288" style="fill: #1f77b4; stroke: #1f77b4"/>
     <use xlink:href="#mc55fcdfc05" x="397.381554" y="125.339992" style="fill: #1f77b4; stroke: #1f77b4"/>
     <use xlink:href="#mc55fcdfc05" x="369.021376" y="210.954212" style="fill: #1f77b4; stroke: #1f77b4"/>
     <use xlink:href="#mc55fcdfc05" x="334.311323" y="183.031964" style="fill: #1f77b4; stroke: #1f77b4"/>
     <use xlink:href="#mc55fcdfc05" x="289.562282" y="181.080689" style="fill: #1f77b4; stroke: #1f77b4"/>
     <use xlink:href="#mc55fcdfc05" x="226.492052" y="195.054127" style="fill: #1f77b4; stroke: #1f77b4"/>
     <use xlink:href="#mc55fcdfc05" x="181.743011" y="209.773212" style="fill: #1f77b4; stroke: #1f77b4"/>
     <use xlink:href="#mc55fcdfc05" x="163.421821" y="217.616113" style="fill: #1f77b4; stroke: #1f77b4"/>
     <use xlink:href="#mc55fcdfc05" x="118.67278" y="243.025388" style="fill: #1f77b4; stroke: #1f77b4"/>
     <use xlink:href="#mc55fcdfc05" x="73.923739" y="287.833091" style="fill: #1f77b4; stroke: #1f77b4"/>
    </g>
   </g>
   <g id="line2d_36">
    <path d="M 432.091607 37.934909 
L 397.381554 59.697871 
L 369.021376 77.479506 
L 334.311323 99.242468 
L 289.562282 127.299805 
L 226.492052 166.844402 
L 181.743011 194.90174 
L 163.421821 206.388999 
L 118.67278 234.446336 
L 73.923739 262.503674 
" clip-path="url(#p71daf766f4)" style="fill: none; stroke-dasharray: 5.55,2.4; stroke-dashoffset: 0; stroke: #ff7f0e; stroke-width: 1.5"/>
   </g>
   <g id="patch_3">
    <path d="M 56.015346 300.328 
L 56.015346 25.44 
" style="fill: none; stroke: #000000; stroke-width: 0.8; stroke-linejoin: miter; stroke-linecap: square"/>
   </g>
   <g id="patch_4">
    <path d="M 450 300.328 
L 450 25.44 
" style="fill: none; stroke: #000000; stroke-width: 0.8; stroke-linejoin: miter; stroke-linecap: square"/>
   </g>
   <g id="patch_5">
    <path d="M 56.015346 300.328 
L 450 300.328 
" style="fill: none; stroke: #000000; stroke-width: 0.8; stroke-linejoin: miter; stroke-linecap: square"/>
   </g>
   <g id="patch_6">
    <path d="M 56.015346 25.44 
L 450 25.44 
" style="fill: none; stroke: #000000; stroke-width: 0.8; stroke-linejoin: miter; stroke-linecap: square"/>
   </g>
   <g id="text_6">
    <!-- График порядка аппроксимации u_s -->
    <g transform="translate(137.188923 19.44) scale(0.12 -0.12)">
     <defs>
      <path id="DejaVuSans-413" d="M 628 0 
L 628 4666 
L 3531 4666 
L 3531 4134 
L 1259 4134 
L 1259 0 
L 628 0 
z
" transform="scale(0.015625)"/>
      <path id="DejaVuSans-440" d="M 1159 525 
L 1159 -1331 
L 581 -1331 
L 581 3500 
L 1159 3500 
L 1159 2969 
Q 1341 3281 1617 3432 
Q 1894 3584 2278 3584 
Q 2916 3584 3314 3078 
Q 3713 2572 3713 1747 
Q 3713 922 3314 415 
Q 2916 -91 2278 -91 
Q 1894 -91 1617 61 
Q 1341 213 1159 525 
z
M 3116 1747 
Q 3116 2381 2855 2742 
Q 2594 3103 2138 3103 
Q 1681 3103 1420 2742 
Q 1159 2381 1159 1747 
Q 1159 1113 1420 752 
Q 1681 391 2138 391 
Q 2594 391 2855 752 
Q 3116 1113 3116 1747 
z
" transform="scale(0.015625)"/>
      <path id="DejaVuSans-430" d="M 2194 1759 
Q 1497 1759 1228 1600 
Q 959 1441 959 1056 
Q 959 750 1161 570 
Q 1363 391 1709 391 
Q 2188 391 2477 730 
Q 2766 1069 2766 1631 
L 2766 1759 
L 2194 1759 
z
M 3341 1997 
L 3341 0 
L 2766 0 
L 2766 531 
Q 2569 213 2275 61 
Q 1981 -91 1556 -91 
Q 1019 -91 701 211 
Q 384 513 384 1019 
Q 384 1609 779 1909 
Q 1175 2209 1959 2209 
L 2766 2209 
L 2766 2266 
Q 2766 2663 2505 2880 
Q 2244 3097 1772 3097 
Q 1472 3097 1187 3025 
Q 903 2953 641 2809 
L 641 3341 
Q 956 3463 1253 3523 
Q 1550 3584 1831 3584 
Q 2591 3584 2966 3190 
Q 3341 2797 3341 1997 
z
" transform="scale(0.015625)"/>
      <path id="DejaVuSans-444" d="M 947 1747 
Q 947 1013 1173 702 
Q 1400 391 1784 391 
Q 2091 391 2447 916 
L 2447 2578 
Q 2091 3103 1784 3103 
Q 1400 3103 1173 2792 
Q 947 2481 947 1747 
z
M 2447 -1331 
L 2447 447 
Q 2269 153 2064 31 
Q 1859 -91 1600 -91 
Q 1078 -91 714 392 
Q 350 875 350 1734 
Q 350 2594 714 3089 
Q 1078 3584 1600 3584 
Q 1859 3584 2064 3465 
Q 2269 3347 2447 3053 
L 2447 4666 
L 3025 4666 
L 3025 3053 
Q 3203 3347 3408 3465 
Q 3613 3584 3872 3584 
Q 4394 3584 4758 3089 
Q 5122 2594 5122 1734 
Q 5122 875 4758 392 
Q 4394 -91 3872 -91 
Q 3613 -91 3408 31 
Q 3203 153 3025 447 
L 3025 -1331 
L 2447 -1331 
z
M 4525 1747 
Q 4525 2481 4298 2792 
Q 4072 3103 3688 3103 
Q 3381 3103 3025 2578 
L 3025 916 
Q 3381 391 3688 391 
Q 4072 391 4298 702 
Q 4525 1013 4525 1747 
z
" transform="scale(0.015625)"/>
      <path id="DejaVuSans-438" d="M 3578 3500 
L 3578 0 
L 3006 0 
L 3006 2809 
L 1319 0 
L 581 0 
L 581 3500 
L 1153 3500 
L 1153 697 
L 2838 3500 
L 3578 3500 
z
" transform="scale(0.015625)"/>
      <path id="DejaVuSans-43a" d="M 581 3500 
L 1153 3500 
L 1153 1856 
L 2775 3500 
L 3481 3500 
L 2144 2147 
L 3653 0 
L 3009 0 
L 1769 1766 
L 1153 1141 
L 1153 0 
L 581 0 
L 581 3500 
z
" transform="scale(0.015625)"/>
      <path id="DejaVuSans-20" transform="scale(0.015625)"/>
      <path id="DejaVuSans-43f" d="M 3603 3500 
L 3603 0 
L 3025 0 
L 3025 3041 
L 1159 3041 
L 1159 0 
L 581 0 
L 581 3500 
L 3603 3500 
z
" transform="scale(0.015625)"/>
      <path id="DejaVuSans-43e" d="M 1959 3097 
Q 1497 3097 1228 2736 
Q 959 2375 959 1747 
Q 959 1119 1226 758 
Q 1494 397 1959 397 
Q 2419 397 2687 759 
Q 2956 1122 2956 1747 
Q 2956 2369 2687 2733 
Q 2419 3097 1959 3097 
z
M 1959 3584 
Q 2709 3584 3137 3096 
Q 3566 2609 3566 1747 
Q 3566 888 3137 398 
Q 2709 -91 1959 -91 
Q 1206 -91 779 398 
Q 353 888 353 1747 
Q 353 2609 779 3096 
Q 1206 3584 1959 3584 
z
" transform="scale(0.015625)"/>
      <path id="DejaVuSans-44f" d="M 1181 2491 
Q 1181 2231 1381 2084 
Q 1581 1938 1953 1938 
L 2728 1938 
L 2728 3041 
L 1953 3041 
Q 1581 3041 1381 2897 
Q 1181 2753 1181 2491 
z
M 363 0 
L 1431 1534 
Q 1069 1616 828 1830 
Q 588 2044 588 2491 
Q 588 2997 923 3248 
Q 1259 3500 1938 3500 
L 3306 3500 
L 3306 0 
L 2728 0 
L 2728 1478 
L 2013 1478 
L 981 0 
L 363 0 
z
" transform="scale(0.015625)"/>
      <path id="DejaVuSans-434" d="M 1384 459 
L 3053 459 
L 3053 3041 
L 1844 3041 
L 1844 2603 
Q 1844 1316 1475 628 
L 1384 459 
z
M 550 459 
Q 834 584 959 850 
Q 1266 1509 1266 2838 
L 1266 3500 
L 3631 3500 
L 3631 459 
L 4091 459 
L 4091 -884 
L 3631 -884 
L 3631 0 
L 794 0 
L 794 -884 
L 334 -884 
L 334 459 
L 550 459 
z
" transform="scale(0.015625)"/>
      <path id="DejaVuSans-441" d="M 3122 3366 
L 3122 2828 
Q 2878 2963 2633 3030 
Q 2388 3097 2138 3097 
Q 1578 3097 1268 2742 
Q 959 2388 959 1747 
Q 959 1106 1268 751 
Q 1578 397 2138 397 
Q 2388 397 2633 464 
Q 2878 531 3122 666 
L 3122 134 
Q 2881 22 2623 -34 
Q 2366 -91 2075 -91 
Q 1284 -91 818 406 
Q 353 903 353 1747 
Q 353 2603 823 3093 
Q 1294 3584 2113 3584 
Q 2378 3584 2631 3529 
Q 2884 3475 3122 3366 
z
" transform="scale(0.015625)"/>
      <path id="DejaVuSans-43c" d="M 581 3500 
L 1422 3500 
L 2416 1156 
L 3413 3500 
L 4247 3500 
L 4247 0 
L 3669 0 
L 3669 2950 
L 2703 672 
L 2128 672 
L 1159 2950 
L 1159 0 
L 581 0 
L 581 3500 
z
" transform="scale(0.015625)"/>
      <path id="DejaVuSans-446" d="M 3603 0 
L 581 0 
L 581 3500 
L 1159 3500 
L 1159 459 
L 3025 459 
L 3025 3500 
L 3603 3500 
L 3603 459 
L 4063 459 
L 4063 -884 
L 3603 -884 
L 3603 0 
z
" transform="scale(0.015625)"/>
      <path id="DejaVuSans-75" d="M 544 1381 
L 544 3500 
L 1119 3500 
L 1119 1403 
Q 1119 906 1312 657 
Q 1506 409 1894 409 
Q 2359 409 2629 706 
Q 2900 1003 2900 1516 
L 2900 3500 
L 3475 3500 
L 3475 0 
L 2900 0 
L 2900 538 
Q 2691 219 2414 64 
Q 2138 -91 1772 -91 
Q 1169 -91 856 284 
Q 544 659 544 1381 
z
M 1991 3584 
L 1991 3584 
z
" transform="scale(0.015625)"/>
      <path id="DejaVuSans-5f" d="M 3263 -1063 
L 3263 -1509 
L -63 -1509 
L -63 -1063 
L 3263 -1063 
z
" transform="scale(0.015625)"/>
      <path id="DejaVuSans-73" d="M 2834 3397 
L 2834 2853 
Q 2591 2978 2328 3040 
Q 2066 3103 1784 3103 
Q 1356 3103 1142 2972 
Q 928 2841 928 2578 
Q 928 2378 1081 2264 
Q 1234 2150 1697 2047 
L 1894 2003 
Q 2506 1872 2764 1633 
Q 3022 1394 3022 966 
Q 3022 478 2636 193 
Q 2250 -91 1575 -91 
Q 1294 -91 989 -36 
Q 684 19 347 128 
L 347 722 
Q 666 556 975 473 
Q 1284 391 1588 391 
Q 1994 391 2212 530 
Q 2431 669 2431 922 
Q 2431 1156 2273 1281 
Q 2116 1406 1581 1522 
L 1381 1569 
Q 847 1681 609 1914 
Q 372 2147 372 2553 
Q 372 3047 722 3315 
Q 1072 3584 1716 3584 
Q 2034 3584 2315 3537 
Q 2597 3491 2834 3397 
z
" transform="scale(0.015625)"/>
     </defs>
     <use xlink:href="#DejaVuSans-413"/>
     <use xlink:href="#DejaVuSans-440" x="60.986328"/>
     <use xlink:href="#DejaVuSans-430" x="124.462891"/>
     <use xlink:href="#DejaVuSans-444" x="185.742188"/>
     <use xlink:href="#DejaVuSans-438" x="271.240234"/>
     <use xlink:href="#DejaVuSans-43a" x="336.230469"/>
     <use xlink:href="#DejaVuSans-20" x="396.630859"/>
     <use xlink:href="#DejaVuSans-43f" x="428.417969"/>
     <use xlink:href="#DejaVuSans-43e" x="493.798828"/>
     <use xlink:href="#DejaVuSans-440" x="554.980469"/>
     <use xlink:href="#DejaVuSans-44f" x="618.457031"/>
     <use xlink:href="#DejaVuSans-434" x="678.613281"/>
     <use xlink:href="#DejaVuSans-43a" x="747.753906"/>
     <use xlink:href="#DejaVuSans-430" x="808.154297"/>
     <use xlink:href="#DejaVuSans-20" x="869.433594"/>
     <use xlink:href="#DejaVuSans-430" x="901.220703"/>
     <use xlink:href="#DejaVuSans-43f" x="962.5"/>
     <use xlink:href="#DejaVuSans-43f" x="1027.880859"/>
     <use xlink:href="#DejaVuSans-440" x="1093.261719"/>
     <use xlink:href="#DejaVuSans-43e" x="1156.738281"/>
     <use xlink:href="#DejaVuSans-43a" x="1217.919922"/>
     <use xlink:href="#DejaVuSans-441" x="1278.320312"/>
     <use xlink:href="#DejaVuSans-438" x="1333.300781"/>
     <use xlink:href="#DejaVuSans-43c" x="1398.291016"/>
     <use xlink:href="#DejaVuSans-430" x="1473.730469"/>
     <use xlink:href="#DejaVuSans-446" x="1535.009766"/>
     <use xlink:href="#DejaVuSans-438" x="1603.076172"/>
     <use xlink:href="#DejaVuSans-438" x="1668.066406"/>
     <use xlink:href="#DejaVuSans-20" x="1733.056641"/>
     <use xlink:href="#DejaVuSans-75" x="1764.84375"/>
     <use xlink:href="#DejaVuSans-5f" x="1828.222656"/>
     <use xlink:href="#DejaVuSans-73" x="1878.222656"/>
    </g>
   </g>
   <g id="legend_1">
    <g id="patch_7">
     <path d="M 63.015346 48.118125 
L 137.699721 48.118125 
Q 139.699721 48.118125 139.699721 46.118125 
L 139.699721 32.44 
Q 139.699721 30.44 137.699721 30.44 
L 63.015346 30.44 
Q 61.015346 30.44 61.015346 32.44 
L 61.015346 46.118125 
Q 61.015346 48.118125 63.015346 48.118125 
z
" style="fill: #ffffff; opacity: 0.8; stroke: #cccccc; stroke-linejoin: miter"/>
    </g>
    <g id="line2d_37">
     <path d="M 65.015346 38.538437 
L 75.015346 38.538437 
L 85.015346 38.538437 
" style="fill: none; stroke-dasharray: 5.55,2.4; stroke-dashoffset: 0; stroke: #ff7f0e; stroke-width: 1.5"/>
    </g>
    <g id="text_7">
     <!-- O(dx^2) -->
     <g transform="translate(93.015346 42.038437) scale(0.1 -0.1)">
      <defs>
       <path id="DejaVuSans-4f" d="M 2522 4238 
Q 1834 4238 1429 3725 
Q 1025 3213 1025 2328 
Q 1025 1447 1429 934 
Q 1834 422 2522 422 
Q 3209 422 3611 934 
Q 4013 1447 4013 2328 
Q 4013 3213 3611 3725 
Q 3209 4238 2522 4238 
z
M 2522 4750 
Q 3503 4750 4090 4092 
Q 4678 3434 4678 2328 
Q 4678 1225 4090 567 
Q 3503 -91 2522 -91 
Q 1538 -91 948 565 
Q 359 1222 359 2328 
Q 359 3434 948 4092 
Q 1538 4750 2522 4750 
z
" transform="scale(0.015625)"/>
       <path id="DejaVuSans-28" d="M 1984 4856 
Q 1566 4138 1362 3434 
Q 1159 2731 1159 2009 
Q 1159 1288 1364 580 
Q 1569 -128 1984 -844 
L 1484 -844 
Q 1016 -109 783 600 
Q 550 1309 550 2009 
Q 550 2706 781 3412 
Q 1013 4119 1484 4856 
L 1984 4856 
z
" transform="scale(0.015625)"/>
       <path id="DejaVuSans-64" d="M 2906 2969 
L 2906 4863 
L 3481 4863 
L 3481 0 
L 2906 0 
L 2906 525 
Q 2725 213 2448 61 
Q 2172 -91 1784 -91 
Q 1150 -91 751 415 
Q 353 922 353 1747 
Q 353 2572 751 3078 
Q 1150 3584 1784 3584 
Q 2172 3584 2448 3432 
Q 2725 3281 2906 2969 
z
M 947 1747 
Q 947 1113 1208 752 
Q 1469 391 1925 391 
Q 2381 391 2643 752 
Q 2906 1113 2906 1747 
Q 2906 2381 2643 2742 
Q 2381 3103 1925 3103 
Q 1469 3103 1208 2742 
Q 947 2381 947 1747 
z
" transform="scale(0.015625)"/>
       <path id="DejaVuSans-5e" d="M 2988 4666 
L 4684 2925 
L 4056 2925 
L 2681 4159 
L 1306 2925 
L 678 2925 
L 2375 4666 
L 2988 4666 
z
" transform="scale(0.015625)"/>
       <path id="DejaVuSans-32" d="M 1228 531 
L 3431 531 
L 3431 0 
L 469 0 
L 469 531 
Q 828 903 1448 1529 
Q 2069 2156 2228 2338 
Q 2531 2678 2651 2914 
Q 2772 3150 2772 3378 
Q 2772 3750 2511 3984 
Q 2250 4219 1831 4219 
Q 1534 4219 1204 4116 
Q 875 4013 500 3803 
L 500 4441 
Q 881 4594 1212 4672 
Q 1544 4750 1819 4750 
Q 2544 4750 2975 4387 
Q 3406 4025 3406 3419 
Q 3406 3131 3298 2873 
Q 3191 2616 2906 2266 
Q 2828 2175 2409 1742 
Q 1991 1309 1228 531 
z
" transform="scale(0.015625)"/>
       <path id="DejaVuSans-29" d="M 513 4856 
L 1013 4856 
Q 1481 4119 1714 3412 
Q 1947 2706 1947 2009 
Q 1947 1309 1714 600 
Q 1481 -109 1013 -844 
L 513 -844 
Q 928 -128 1133 580 
Q 1338 1288 1338 2009 
Q 1338 2731 1133 3434 
Q 928 4138 513 4856 
z
" transform="scale(0.015625)"/>
      </defs>
      <use xlink:href="#DejaVuSans-4f"/>
      <use xlink:href="#DejaVuSans-28" x="78.710938"/>
      <use xlink:href="#DejaVuSans-64" x="117.724609"/>
      <use xlink:href="#DejaVuSans-78" x="181.201172"/>
      <use xlink:href="#DejaVuSans-5e" x="240.380859"/>
      <use xlink:href="#DejaVuSans-32" x="324.169922"/>
      <use xlink:href="#DejaVuSans-29" x="387.792969"/>
     </g>
    </g>
   </g>
  </g>
 </g>
 <defs>
  <clipPath id="p71daf766f4">
   <rect x="56.015346" y="25.44" width="393.984654" height="274.888"/>
  </clipPath>
 </defs>
</svg>
